<svg width="742" height="256" viewBox="0 0 742 256" fill="none" xmlns="http://www.w3.org/2000/svg">
<g clip-path="url(#clip0_1_8)">
<rect width="742" height="256" fill="white"/>
<rect width="742" height="256" fill="#D08B05"/>
<path fill-rule="evenodd" clip-rule="evenodd" d="M368.172 62.4821V71.519C367.291 71.563 366.41 71.628 365.531 71.7132C364.362 71.8268 363.386 72.6505 363.076 73.7826L361.242 80.4989C359.367 80.8839 357.516 81.38 355.699 81.9839C355.7 81.9839 350.753 77.0845 350.753 77.0845C349.919 76.2588 348.662 76.0338 347.593 76.5198C346.789 76.8854 345.994 77.2694 345.208 77.6721L340.69 69.8458C342.959 67.1903 343.433 63.2871 341.587 60.0906C339.247 56.0364 334.054 54.6451 330 56.9859C325.946 59.3269 324.554 64.5191 326.895 68.5734C328.741 71.7699 332.358 73.3108 335.792 72.6734L340.311 80.4997C339.569 80.9789 338.839 81.4753 338.12 81.9891C337.165 82.6714 336.731 83.8731 337.029 85.0082L338.799 91.7419C337.368 93.0127 336.013 94.3675 334.741 95.7994C334.742 95.7987 328.008 94.0294 328.008 94.0294C326.873 93.7308 325.671 94.1651 324.989 95.12C324.475 95.8386 323.979 96.569 323.5 97.3106L315.674 92.7921C316.311 89.3578 314.77 85.7405 311.574 83.8949C307.519 81.5541 302.327 82.9456 299.986 87C297.645 91.0544 299.036 96.2466 303.091 98.5874C306.287 100.433 310.19 99.9592 312.846 97.6899L320.672 102.208C320.27 102.994 319.885 103.789 319.52 104.593C319.034 105.662 319.259 106.919 320.085 107.753L324.984 112.7C324.38 114.516 323.884 116.367 323.499 118.243C323.499 118.242 316.783 120.076 316.783 120.076C315.65 120.386 314.827 121.362 314.713 122.531C314.628 123.41 314.563 124.291 314.519 125.172H305.482C304.317 121.879 301.173 119.517 297.483 119.517C292.801 119.517 289 123.318 289 128C289 132.682 292.801 136.483 297.483 136.483C301.173 136.483 304.317 134.121 305.482 130.828H314.519C314.563 131.709 314.628 132.59 314.713 133.469C314.827 134.638 315.65 135.614 316.783 135.924L323.499 137.758C323.884 139.633 324.38 141.484 324.984 143.301C324.984 143.3 320.085 148.247 320.085 148.247C319.259 149.081 319.034 150.338 319.52 151.407C319.885 152.211 320.27 153.006 320.672 153.792L312.846 158.31C310.19 156.041 306.287 155.567 303.091 157.412C299.036 159.753 297.645 164.946 299.986 169C302.327 173.054 307.519 174.446 311.574 172.105C314.77 170.259 316.311 166.642 315.674 163.208L323.5 158.689C323.979 159.431 324.475 160.161 324.989 160.88C325.671 161.835 326.873 162.269 328.008 161.971L334.742 160.201C336.013 161.632 337.368 162.987 338.799 164.259C338.799 164.258 337.029 170.992 337.029 170.992C336.731 172.127 337.165 173.329 338.12 174.011C338.839 174.525 339.569 175.021 340.311 175.5L335.792 183.326C332.358 182.689 328.741 184.23 326.895 187.426C324.554 191.481 325.946 196.673 330 199.014C334.055 201.355 339.247 199.964 341.587 195.909C343.433 192.713 342.959 188.81 340.69 186.154L345.208 178.328C345.994 178.73 346.789 179.115 347.593 179.48C348.662 179.966 349.919 179.741 350.753 178.915L355.7 174.016C357.516 174.62 359.367 175.116 361.243 175.501C361.242 175.501 363.076 182.217 363.076 182.217C363.386 183.35 364.362 184.173 365.531 184.287C366.41 184.372 367.291 184.437 368.172 184.481V193.518C364.879 194.683 362.517 197.827 362.517 201.517C362.517 206.199 366.318 210 371 210C375.682 210 379.483 206.199 379.483 201.517C379.483 197.827 377.121 194.683 373.828 193.518V184.481C374.709 184.437 375.59 184.372 376.469 184.287C377.638 184.173 378.614 183.35 378.924 182.217L380.758 175.501C382.633 175.116 384.484 174.62 386.301 174.016C386.3 174.016 391.247 178.915 391.247 178.915C392.081 179.741 393.338 179.966 394.407 179.48C395.211 179.115 396.006 178.73 396.792 178.328L401.31 186.154C399.041 188.81 398.567 192.713 400.413 195.909C402.753 199.964 407.945 201.355 412 199.014C416.055 196.673 417.446 191.481 415.105 187.426C413.259 184.23 409.642 182.689 406.208 183.326L401.689 175.5C402.431 175.021 403.161 174.525 403.88 174.011C404.835 173.329 405.269 172.127 404.971 170.992L403.201 164.258C404.633 162.987 405.987 161.632 407.259 160.201C407.258 160.201 413.992 161.971 413.992 161.971C415.127 162.269 416.329 161.835 417.011 160.88C417.525 160.161 418.021 159.431 418.5 158.689L426.327 163.208C425.689 166.642 427.23 170.259 430.427 172.105C434.481 174.446 439.673 173.054 442.014 169C444.355 164.945 442.964 159.753 438.909 157.412C435.713 155.567 431.81 156.041 429.154 158.31L421.328 153.792C421.731 153.006 422.115 152.211 422.48 151.407C422.966 150.338 422.741 149.081 421.915 148.247L417.016 143.3C417.62 141.484 418.116 139.633 418.501 137.757C418.501 137.758 425.217 135.924 425.217 135.924C426.35 135.614 427.173 134.638 427.287 133.469C427.372 132.59 427.437 131.709 427.481 130.828H436.518C437.683 134.121 440.826 136.483 444.517 136.483C449.199 136.483 453 132.682 453 128C453 123.318 449.199 119.517 444.517 119.517C440.826 119.517 437.683 121.879 436.518 125.172H427.481C427.437 124.291 427.372 123.41 427.287 122.531C427.173 121.362 426.35 120.386 425.217 120.076L418.501 118.242C418.116 116.367 417.62 114.516 417.016 112.699C417.016 112.7 421.915 107.753 421.915 107.753C422.741 106.919 422.966 105.662 422.48 104.593C422.115 103.789 421.731 102.994 421.328 102.208L429.154 97.6899C431.81 99.9592 435.713 100.433 438.909 98.5874C442.964 96.2466 444.355 91.0544 442.014 87C439.673 82.9456 434.481 81.5541 430.427 83.8949C427.23 85.7405 425.689 89.3578 426.327 92.7921L418.5 97.3106C418.021 96.569 417.525 95.8386 417.011 95.12C416.329 94.1651 415.127 93.7308 413.992 94.0294L407.258 95.7987C405.987 94.3675 404.633 93.0127 403.201 91.7414C403.201 91.7419 404.971 85.0082 404.971 85.0082C405.269 83.8731 404.835 82.6714 403.88 81.9891C403.161 81.4753 402.431 80.9789 401.689 80.4997L406.208 72.6734C409.642 73.3108 413.259 71.7699 415.105 68.5734C417.446 64.5191 416.054 59.3269 412 56.9859C407.946 54.6451 402.753 56.0364 400.413 60.0906C398.567 63.2871 399.041 67.1903 401.31 69.8458L396.792 77.6721C396.006 77.2694 395.211 76.8854 394.407 76.5198C393.338 76.0338 392.081 76.2588 391.247 77.0845L386.3 81.9839C384.484 81.38 382.633 80.8839 380.757 80.4986C380.758 80.4989 378.924 73.7826 378.924 73.7826C378.614 72.6505 377.638 71.8268 376.469 71.7132C375.59 71.628 374.709 71.563 373.828 71.519V62.4821C377.121 61.3166 379.483 58.1736 379.483 54.4828C379.483 49.8011 375.682 46 371 46C366.318 46 362.517 49.8011 362.517 54.4828C362.517 58.1736 364.879 61.3166 368.172 62.4821Z" fill="black"/>
<path fill-rule="evenodd" clip-rule="evenodd" d="M373.998 77.0883L375.78 83.6094C376.071 84.6764 376.957 85.4758 378.048 85.6576C380.784 86.1129 383.47 86.8327 386.068 87.8065C387.103 88.1946 388.27 87.9448 389.056 87.1666L393.859 82.4102C395.648 83.3066 397.382 84.3081 399.052 85.4082C399.052 85.4086 397.335 91.9464 397.335 91.9464C397.054 93.0162 397.421 94.1514 398.275 94.8542C400.417 96.6168 402.383 98.5832 404.146 100.725C404.849 101.579 405.984 101.946 407.054 101.665L413.591 99.9477C414.692 101.618 415.693 103.352 416.59 105.14C416.59 105.141 411.833 109.944 411.833 109.944C411.055 110.73 410.805 111.897 411.194 112.932C412.167 115.53 412.887 118.216 413.342 120.952C413.524 122.043 414.324 122.929 415.391 123.22L421.912 125.002C422.029 126.999 422.029 129.001 421.912 130.998C421.912 130.998 415.391 132.78 415.391 132.78C414.324 133.071 413.524 133.957 413.342 135.048C412.887 137.784 412.167 140.47 411.194 143.068C410.805 144.104 411.055 145.27 411.833 146.056L416.59 150.859C415.693 152.648 414.692 154.382 413.592 156.052C413.591 156.052 407.054 154.335 407.054 154.335C405.984 154.054 404.849 154.421 404.146 155.275C402.383 157.417 400.417 159.383 398.275 161.146C397.421 161.849 397.054 162.984 397.335 164.054L399.052 170.592C397.382 171.692 395.648 172.693 393.86 173.59C393.859 173.59 389.056 168.833 389.056 168.833C388.27 168.055 387.103 167.805 386.068 168.194C383.47 169.167 380.784 169.887 378.048 170.343C376.957 170.524 376.071 171.324 375.78 172.391L373.998 178.912C372.001 179.029 369.999 179.029 368.002 178.912C368.002 178.912 366.22 172.391 366.22 172.391C365.929 171.324 365.043 170.524 363.952 170.343C361.216 169.887 358.53 169.167 355.932 168.194C354.896 167.805 353.73 168.055 352.944 168.833L348.141 173.59C346.352 172.693 344.618 171.692 342.948 170.592C342.948 170.592 344.665 164.054 344.665 164.054C344.946 162.984 344.579 161.849 343.725 161.146C341.583 159.383 339.617 157.417 337.854 155.275C337.151 154.421 336.016 154.054 334.946 154.335L328.408 156.052C327.308 154.382 326.307 152.648 325.41 150.86C325.41 150.859 330.167 146.056 330.167 146.056C330.945 145.27 331.195 144.104 330.806 143.068C329.833 140.47 329.113 137.784 328.657 135.048C328.476 133.957 327.676 133.071 326.609 132.78L320.088 130.998C319.971 129.001 319.971 126.999 320.088 125.002C320.088 125.002 326.609 123.22 326.609 123.22C327.676 122.929 328.476 122.043 328.657 120.952C329.113 118.216 329.833 115.53 330.806 112.932C331.195 111.897 330.945 110.73 330.167 109.944L325.41 105.141C326.307 103.352 327.308 101.618 328.408 99.948C328.408 99.9477 334.946 101.665 334.946 101.665C336.016 101.946 337.151 101.579 337.854 100.725C339.617 98.5832 341.583 96.6168 343.725 94.8542C344.579 94.1514 344.946 93.0162 344.665 91.9464L342.948 85.4086C344.618 84.3076 346.352 83.3066 348.14 82.4102C348.141 82.4102 352.944 87.1666 352.944 87.1666C353.73 87.9448 354.896 88.1946 355.932 87.8065C358.53 86.8327 361.216 86.1129 363.952 85.6576C365.043 85.4758 365.929 84.6764 366.22 83.6094L368.002 77.0883C369.999 76.9706 372.001 76.9706 373.998 77.0883H373.998Z" fill="#FFD322"/>
<path fill-rule="evenodd" clip-rule="evenodd" d="M349.41 84.4289C353.099 98.1805 366.151 134.848 404 155.044C403.866 155.156 403.741 155.281 403.627 155.42C401.875 157.549 399.921 159.503 397.792 161.255C396.943 161.953 396.578 163.082 396.857 164.145L398.565 170.643C396.904 171.737 395.181 172.732 393.404 173.623C393.404 173.623 388.63 168.895 388.63 168.895C387.849 168.122 386.689 167.874 385.66 168.26C383.078 169.227 380.409 169.943 377.69 170.395C376.605 170.576 375.725 171.371 375.436 172.431L373.665 178.912C371.68 179.029 369.69 179.029 367.706 178.912C367.705 178.912 365.935 172.431 365.935 172.431C365.645 171.371 364.765 170.576 363.681 170.395C360.961 169.943 358.292 169.227 355.711 168.26C354.681 167.874 353.522 168.122 352.741 168.895L347.967 173.623C346.189 172.732 344.466 171.737 342.806 170.643C342.806 170.643 344.513 164.145 344.513 164.145C344.792 163.082 344.427 161.953 343.579 161.255C341.45 159.503 339.496 157.549 337.744 155.42C337.045 154.571 335.917 154.206 334.854 154.485L328.357 156.193C327.262 154.532 326.268 152.809 325.377 151.032C325.377 151.031 330.104 146.257 330.104 146.257C330.877 145.476 331.126 144.317 330.74 143.287C329.772 140.706 329.057 138.036 328.604 135.316C328.424 134.232 327.629 133.352 326.569 133.062L320.088 131.292C319.971 129.306 319.971 127.317 320.088 125.332C320.088 125.331 326.569 123.561 326.569 123.561C327.629 123.271 328.424 122.391 328.604 121.307C329.057 118.587 329.772 115.918 330.74 113.336C331.126 112.306 330.877 111.147 330.104 110.366L325.377 105.592C326.268 103.814 327.263 102.091 328.356 100.431C328.357 100.43 334.854 102.138 334.854 102.138C335.917 102.417 337.045 102.052 337.744 101.203C339.496 99.0743 341.45 97.1199 343.579 95.3681C344.427 94.6695 344.792 93.5412 344.513 92.478L342.806 85.9801C344.466 84.8859 346.19 83.891 347.967 83L349.41 84.4289Z" fill="#E5B700"/>
<path fill-rule="evenodd" clip-rule="evenodd" d="M371 205C369.344 205 368 203.656 368 202C368 200.344 369.344 199 371 199C372.656 199 374 200.344 374 202C374 203.656 372.656 205 371 205Z" fill="white"/>
<path fill-rule="evenodd" clip-rule="evenodd" d="M332.5 194.598C331.066 193.77 330.574 191.934 331.402 190.5C332.23 189.066 334.066 188.574 335.5 189.402C336.934 190.23 337.426 192.066 336.598 193.5C335.77 194.934 333.934 195.426 332.5 194.598V194.598Z" fill="white"/>
<path fill-rule="evenodd" clip-rule="evenodd" d="M409.5 194.598C408.066 195.426 406.23 194.934 405.402 193.5C404.574 192.066 405.066 190.23 406.5 189.402C407.934 188.574 409.77 189.066 410.598 190.5C411.426 191.934 410.934 193.77 409.5 194.598V194.598Z" fill="white"/>
<path fill-rule="evenodd" clip-rule="evenodd" d="M305.335 166.5C304.645 165.066 305.055 163.23 306.25 162.402C307.445 161.574 308.975 162.066 309.665 163.5C310.355 164.934 309.945 166.77 308.75 167.598C307.555 168.426 306.025 167.934 305.335 166.5Z" fill="white"/>
<path fill-rule="evenodd" clip-rule="evenodd" d="M436.665 166.5C435.975 167.934 434.445 168.426 433.25 167.598C432.055 166.77 431.645 164.934 432.335 163.5C433.025 162.066 434.555 161.574 435.75 162.402C436.945 163.23 437.355 165.066 436.665 166.5Z" fill="white"/>
<path fill-rule="evenodd" clip-rule="evenodd" d="M371 89C349.475 89 332 106.475 332 128C332 149.525 349.475 167 371 167C392.525 167 410 149.525 410 128C410 106.475 392.525 89 371 89Z" fill="black"/>
<path fill-rule="evenodd" clip-rule="evenodd" d="M371 95C389.765 95 405 110.011 405 128.5C405 146.989 389.765 162 371 162C352.235 162 337 146.989 337 128.5C337 110.011 352.235 95 371 95Z" fill="#5B5C6C"/>
<path fill-rule="evenodd" clip-rule="evenodd" d="M447 128C447 129.656 445.88 131 444.5 131C443.12 131 442 129.656 442 128C442 126.344 443.12 125 444.5 125C445.88 125 447 126.344 447 128Z" fill="white"/>
<path fill-rule="evenodd" clip-rule="evenodd" d="M295 128C295 126.344 296.12 125 297.5 125C298.88 125 300 126.344 300 128C300 129.656 298.88 131 297.5 131C296.12 131 295 129.656 295 128Z" fill="white"/>
<path fill-rule="evenodd" clip-rule="evenodd" d="M305.335 90.25C306.025 89.0551 307.555 88.6451 308.75 89.335C309.945 90.0247 310.355 91.555 309.665 92.75C308.975 93.9449 307.445 94.3549 306.25 93.665C305.055 92.9753 304.645 91.445 305.335 90.25Z" fill="white"/>
<path fill-rule="evenodd" clip-rule="evenodd" d="M436.665 90.25C437.355 91.445 436.945 92.9753 435.75 93.665C434.555 94.3549 433.025 93.9449 432.335 92.75C431.645 91.555 432.055 90.0247 433.25 89.335C434.445 88.6451 435.975 89.0551 436.665 90.25Z" fill="white"/>
<path fill-rule="evenodd" clip-rule="evenodd" d="M409.5 62.335C410.934 63.025 411.426 64.5552 410.598 65.7498C409.77 66.9448 407.934 67.3548 406.5 66.6652C405.066 65.9753 404.574 64.4449 405.402 63.2499C406.23 62.0553 408.066 61.645 409.5 62.335Z" fill="white"/>
<path fill-rule="evenodd" clip-rule="evenodd" d="M332.5 62.335C333.934 61.645 335.77 62.0553 336.598 63.2499C337.426 64.4449 336.934 65.9753 335.5 66.6652C334.066 67.3548 332.23 66.9448 331.402 65.7498C330.574 64.5552 331.066 63.025 332.5 62.335Z" fill="white"/>
<path fill-rule="evenodd" clip-rule="evenodd" d="M371 52C372.656 52 374 53.1204 374 54.5C374 55.8796 372.656 57 371 57C369.344 57 368 55.8796 368 54.5C368 53.1204 369.344 52 371 52Z" fill="white"/>
<path fill-rule="evenodd" clip-rule="evenodd" d="M354.292 99C360.722 114.396 373.103 135.421 396 150.442C389.832 157.523 380.75 162 370.631 162C352.069 162 337 146.937 337 128.384C337 115.756 343.98 104.746 354.292 99Z" fill="#4A4B58"/>
<path fill-rule="evenodd" clip-rule="evenodd" d="M378.427 105.895V100H372.776V105.254H368.537V100H362.887V105.254H354.486V110.854H358.181V125.672H354V131.272H358.181V146.09H354.486V151.69H364.701V156H370.352V151.69H374.188V156H379.839V151.583C386.113 150.763 391 145.315 391 138.681C391 133.572 388.102 129.166 383.903 127.037C385.984 124.727 387.258 121.65 387.258 118.263C387.258 112.477 383.54 107.593 378.427 105.895ZM363.832 131.272V146.09H378.195C382.168 146.09 385.349 142.746 385.349 138.681C385.349 134.616 382.168 131.272 378.195 131.272H363.832ZM374.452 125.672C378.426 125.672 381.607 122.328 381.607 118.263C381.607 114.198 378.426 110.854 374.452 110.854H363.832V125.672H374.452Z" fill="#D08B05"/>
<path fill-rule="evenodd" clip-rule="evenodd" d="M357.879 105C359.524 108.435 361.446 112.045 363.685 115.728V125.52H370.339C371.767 127.405 373.286 129.285 374.9 131.148H363.685V146.04H377.832C380.971 146.04 383.608 143.879 384.528 140.915C385.964 142.192 387.453 143.447 389 144.673C387.124 148.365 383.595 151.008 379.452 151.561V156H373.885V151.668H370.107V156H364.541V151.668H354.479V146.04H358.119V131.148H354V125.52H358.119V110.628H354.479V105H357.879Z" fill="#C17C04"/>
</g>
<defs>
<clipPath id="clip0_1_8">
<rect width="742" height="256" fill="white"/>
</clipPath>
</defs>
</svg>
