<svg width="1920" height="1290" viewBox="0 0 1920 1290" fill="none" xmlns="http://www.w3.org/2000/svg">
<g clip-path="url(#clip0_310_639)">
<rect width="1920" height="1290" fill="black"/>
<g filter="url(#filter0_f_310_639)">
<ellipse cx="1246.5" cy="663.5" rx="428.5" ry="422.5" fill="url(#paint0_linear_310_639)"/>
</g>
<g filter="url(#filter1_f_310_639)">
<ellipse cx="471.5" cy="-122" rx="450.5" ry="360" fill="url(#paint1_linear_310_639)"/>
</g>
<g filter="url(#filter2_f_310_639)">
<circle cx="1364.5" cy="1262.5" r="134.5" fill="url(#paint2_linear_310_639)"/>
</g>
<path fill-rule="evenodd" clip-rule="evenodd" d="M1202.87 662.165C1200.42 662.137 1198.9 661.488 1197.46 660.698C1194.68 659.203 1191.92 657.679 1189.16 656.156C1184.57 653.635 1179.98 651.106 1175.41 648.567C1174.2 647.918 1172.99 647.269 1171.86 646.507C1171.13 646.027 1170.45 645.379 1169.89 644.702C1168.82 643.404 1168.74 641.852 1169.36 640.357C1170.23 638.269 1171.27 636.238 1172.31 634.235C1173.86 631.188 1175.46 628.197 1177.07 625.179C1178.95 621.568 1180.86 617.956 1182.78 614.317C1184.69 610.678 1186.6 606.982 1188.55 603.314C1190.18 600.155 1191.87 596.995 1193.52 593.835C1194.85 591.324 1196.14 588.757 1197.49 586.246C1198.28 584.751 1199.01 583.171 1200.25 581.958C1201.23 580.97 1202.33 580.716 1203.4 581.337C1203.96 581.675 1204.53 582.155 1204.86 582.691C1205.74 584.045 1206.55 585.428 1207.31 586.838C1208.44 588.898 1209.51 591.014 1210.6 593.101C1212.26 596.289 1213.92 599.477 1215.58 602.665C1216.88 605.148 1218.2 607.602 1219.49 610.085C1220.64 612.286 1221.79 614.486 1222.95 616.687C1224.14 618.972 1225.34 621.229 1226.53 623.514C1227.68 625.686 1228.81 627.887 1229.96 630.059C1231.42 632.881 1232.91 635.645 1234.32 638.495C1234.74 639.285 1235.02 640.159 1235.28 641.034C1235.78 642.981 1235.11 644.617 1233.62 645.745C1232.27 646.761 1230.83 647.579 1229.4 648.397C1226.86 649.836 1224.3 651.219 1221.77 652.601C1219.1 654.068 1216.43 655.507 1213.75 656.974C1211.31 658.328 1208.86 659.682 1206.38 660.98C1205.03 661.713 1203.63 662.165 1202.87 662.165ZM1190.21 637.056C1191.27 637.648 1192.29 638.241 1193.3 638.777C1196.06 640.3 1198.81 641.796 1201.57 643.319C1202.02 643.573 1202.42 643.573 1202.87 643.347C1205.37 641.965 1207.87 640.582 1210.41 639.2C1211.66 638.504 1212.93 637.799 1214.2 637.084C1213.44 635.166 1202.53 614.599 1202.11 614.373C1198.14 621.906 1194.17 629.467 1190.21 637.056Z" fill="#086C81"/>
<path fill-rule="evenodd" clip-rule="evenodd" d="M1377.99 656.692C1377.99 664.996 1378.02 673.299 1377.99 681.602C1377.95 685.884 1377.28 690.091 1375.6 694.075C1372.85 700.703 1368.2 705.208 1361.53 707.293C1353.61 709.75 1345.68 709.378 1337.97 706.251C1332.13 703.868 1327.89 699.623 1325.58 693.479C1325.09 692.176 1324.68 690.799 1324.46 689.458C1324.2 687.932 1325.21 686.666 1326.66 686.628C1327.81 686.591 1329 686.591 1330.16 686.591C1333.13 686.591 1336.11 686.628 1339.05 686.591C1340.54 686.591 1341.69 687.075 1342.55 688.378C1344.56 691.394 1347.5 692.176 1350.81 692.102C1353.31 692.064 1355.58 691.394 1357.29 689.458C1358.82 687.745 1359.45 685.623 1359.67 683.389C1359.82 681.9 1359.75 680.373 1359.79 678.847C1359.79 678.511 1359.75 678.214 1359.67 677.916C1359.45 676.65 1358.71 676.315 1357.7 677.059C1356.55 677.878 1355.5 678.884 1354.31 679.628C1350.81 681.862 1346.94 682.57 1342.92 682.235C1334.7 681.565 1328.78 677.097 1325.43 669.501C1320.89 659.299 1320.89 648.836 1325.43 638.56C1327.85 633.161 1331.83 629.177 1337.34 627.203C1343.41 625.081 1349.36 625.416 1354.91 629.028C1355.8 629.624 1356.62 630.405 1357.48 631.076C1358.74 632.044 1359.52 631.671 1359.75 630.07C1359.79 629.624 1359.82 629.177 1359.9 628.73C1360.08 627.65 1360.94 626.794 1362.02 626.682C1362.54 626.608 1363.1 626.608 1363.62 626.608C1367.42 626.608 1371.21 626.608 1375.01 626.608C1375.42 626.608 1375.83 626.682 1376.24 626.757C1377.17 626.943 1377.73 627.576 1377.88 628.544C1378.02 629.288 1378.02 630.108 1378.02 630.89C1378.05 639.478 1378.06 648.079 1378.06 656.692C1378.04 656.692 1378.01 656.692 1377.99 656.692ZM1359.79 653.453C1359.79 652.224 1359.56 650.512 1358.93 648.873C1357.51 645.113 1354.91 642.842 1350.96 642.544C1347.06 642.246 1343.89 643.921 1342.14 647.645C1340.1 651.964 1340.13 656.432 1342.44 660.676C1345.6 666.485 1353.38 667.044 1357.4 661.831C1359.15 659.559 1359.79 656.841 1359.79 653.453Z" fill="#086C81"/>
<path d="M1261.07 653.9C1261.07 645.895 1261.04 637.852 1261.07 629.81C1261.07 629.14 1261.3 628.432 1261.52 627.762C1261.78 626.943 1262.49 626.57 1263.31 626.496C1263.83 626.422 1264.35 626.422 1264.87 626.422C1268.69 626.422 1272.51 626.422 1276.33 626.422C1276.71 626.422 1277.07 626.446 1277.41 626.496C1278.38 626.682 1279.13 627.427 1279.27 628.432C1279.39 629.065 1279.42 629.698 1279.5 630.368C1279.68 631.82 1280.5 632.23 1281.69 631.374C1282.33 630.927 1282.85 630.443 1283.44 629.959C1287.5 626.831 1292.08 625.64 1297.1 626.012C1301.42 626.347 1305.29 627.836 1308.49 631.001C1311.51 633.98 1313.22 637.703 1314.15 641.836C1315.01 645.634 1315.01 649.469 1315.01 653.304C1315.01 661.322 1315.01 669.352 1315.01 677.394C1315.01 678.065 1314.97 678.735 1314.9 679.405C1314.71 680.559 1314.11 681.155 1313 681.378C1312.55 681.453 1312.09 681.49 1311.62 681.49C1307.8 681.49 1303.99 681.49 1300.19 681.49C1300.02 681.49 1299.86 681.49 1299.71 681.49C1297.62 681.378 1296.92 680.634 1296.81 678.474C1296.81 677.99 1296.81 677.469 1296.81 676.985C1296.81 668.694 1296.79 660.391 1296.77 652.075C1296.77 650.102 1296.47 648.203 1295.61 646.416C1294.01 643.028 1290.63 641.315 1286.79 641.874C1282.66 642.506 1279.91 645.671 1279.5 650.177C1279.42 651.145 1279.39 652.113 1279.39 653.081C1279.39 661.533 1279.39 669.948 1279.35 678.363C1279.37 678.685 1279.36 679.008 1279.31 679.331C1279.09 680.597 1278.49 681.229 1277.26 681.378C1276.63 681.49 1276 681.49 1275.4 681.49C1271.98 681.515 1268.54 681.515 1265.09 681.49C1264.42 681.49 1263.72 681.453 1263.05 681.341C1262.11 681.192 1261.52 680.597 1261.33 679.628C1261.18 678.809 1261.07 677.99 1261.07 677.171C1261.04 669.426 1261.04 661.682 1261.04 653.937C1261.06 653.912 1261.07 653.9 1261.07 653.9Z" fill="#086C81"/>
<path fill-rule="evenodd" clip-rule="evenodd" d="M1412.75 682.16C1406.76 682.123 1401.18 680.671 1396.22 677.059C1390.31 672.666 1387.07 666.559 1385.99 659.187C1385.28 654.384 1385.39 649.581 1386.77 644.889C1389.19 636.512 1394.29 630.666 1402.22 627.688C1410 624.783 1417.82 624.969 1425.37 628.432C1432.55 631.746 1437.09 637.517 1439.14 645.336C1440.74 651.405 1440.71 657.549 1438.85 663.581C1436.43 671.586 1431.36 677.059 1423.84 680.113C1420.27 681.565 1416.59 682.123 1412.75 682.16ZM1421.76 653.937C1421.76 651.666 1421.46 649.432 1420.42 647.347C1418.86 644.219 1416.4 642.469 1412.94 642.469C1409.48 642.469 1406.91 644.145 1405.49 647.347C1403.52 651.74 1403.56 656.283 1405.49 660.639C1408.17 666.597 1415.99 667.155 1419.64 661.793C1421.28 659.448 1421.76 656.767 1421.76 653.937Z" fill="#086C81"/>
<path d="M1447.82 653.9C1447.82 645.833 1447.82 637.765 1447.82 629.698C1447.84 629.301 1447.88 628.904 1447.93 628.507C1448.15 627.315 1448.78 626.645 1449.94 626.496C1450.46 626.421 1451.02 626.421 1451.54 626.421C1455.33 626.421 1459.13 626.434 1462.93 626.459C1463.32 626.459 1463.71 626.484 1464.08 626.533C1465.09 626.719 1465.72 627.315 1465.87 628.358C1465.98 628.99 1465.98 629.624 1466.02 630.294C1466.05 630.927 1466.05 631.56 1466.13 632.193C1466.35 633.682 1467.13 633.98 1468.29 633.086C1468.7 632.751 1469.11 632.342 1469.48 631.969C1472.23 629.251 1475.36 627.278 1479.12 626.421C1479.39 626.347 1479.67 626.297 1479.94 626.273C1482.28 625.937 1482.69 627.092 1482.95 628.804C1483.03 629.251 1482.99 629.772 1482.99 630.219C1482.99 634.464 1482.99 638.671 1482.95 642.879C1482.95 643.437 1482.84 644.033 1482.73 644.592C1482.51 645.559 1481.84 646.155 1480.91 646.23C1479.83 646.341 1478.78 646.304 1477.7 646.379C1476.14 646.528 1474.54 646.602 1473.01 646.937C1468.88 647.905 1466.54 650.809 1466.17 655.166C1466.07 656.308 1466.02 657.449 1466.02 658.591C1466.02 665.144 1466.02 671.66 1466.02 678.214C1466.02 678.511 1466.02 678.809 1465.94 679.144C1465.76 680.634 1465.12 681.304 1463.67 681.416C1462.78 681.49 1461.89 681.527 1460.99 681.527C1457.72 681.527 1454.4 681.527 1451.13 681.49C1448.6 681.49 1447.85 680.708 1447.85 678.064C1447.82 669.985 1447.82 661.942 1447.82 653.9Z" fill="#086C81"/>
<path d="M1245.3 679.557C1243.56 679.445 1241.79 679.389 1240.08 679.193C1237.78 678.968 1236.07 677.679 1234.95 675.687C1233.18 672.659 1231.56 669.546 1229.96 666.434C1229.56 665.648 1229.37 664.723 1229.28 663.854C1229.09 661.919 1230.1 660.573 1231.58 659.619C1233.1 658.638 1234.67 657.769 1236.24 656.899C1237.11 656.451 1238.01 656.03 1238.96 655.721C1241.09 654.992 1242.8 655.497 1244.15 657.348C1245.13 658.694 1245.94 660.18 1246.73 661.638C1247.82 663.601 1248.86 665.592 1249.9 667.611C1251.02 669.771 1252.14 671.958 1253.21 674.173C1253.46 674.706 1253.57 675.379 1253.6 675.968C1253.71 677.538 1252.76 678.744 1251.13 679.081C1250.2 679.277 1249.22 679.361 1248.27 679.417C1247.29 679.473 1246.28 679.445 1245.3 679.445C1245.3 679.483 1245.3 679.52 1245.3 679.557Z" fill="#086C81"/>
<path d="M1158.84 679.557C1157.43 679.473 1155.6 679.417 1153.83 679.193C1152.61 679.025 1151.51 678.463 1151.12 677.145C1150.95 676.528 1150.98 675.827 1151.09 675.182C1151.35 673.667 1152.16 672.377 1152.87 671.031C1154.3 668.254 1155.77 665.477 1157.26 662.728C1158.19 661.017 1159.12 659.278 1160.22 657.651C1161.69 655.435 1163.94 654.818 1166.28 655.968C1168.57 657.119 1170.82 658.297 1172.96 659.671C1175.13 661.073 1175.95 663.121 1174.88 665.645C1173.92 667.917 1172.74 670.077 1171.58 672.265C1170.85 673.639 1170.09 674.957 1169.24 676.248C1168 678.127 1166.2 679.137 1164.03 679.305C1162.42 679.445 1160.84 679.473 1158.84 679.557Z" fill="#086C81"/>
</g>
<defs>
<filter id="filter0_f_310_639" x="218" y="-359" width="2057" height="2045" filterUnits="userSpaceOnUse" color-interpolation-filters="sRGB">
<feFlood flood-opacity="0" result="BackgroundImageFix"/>
<feBlend mode="normal" in="SourceGraphic" in2="BackgroundImageFix" result="shape"/>
<feGaussianBlur stdDeviation="300" result="effect1_foregroundBlur_310_639"/>
</filter>
<filter id="filter1_f_310_639" x="-579" y="-1082" width="2101" height="1920" filterUnits="userSpaceOnUse" color-interpolation-filters="sRGB">
<feFlood flood-opacity="0" result="BackgroundImageFix"/>
<feBlend mode="normal" in="SourceGraphic" in2="BackgroundImageFix" result="shape"/>
<feGaussianBlur stdDeviation="300" result="effect1_foregroundBlur_310_639"/>
</filter>
<filter id="filter2_f_310_639" x="630" y="528" width="1469" height="1469" filterUnits="userSpaceOnUse" color-interpolation-filters="sRGB">
<feFlood flood-opacity="0" result="BackgroundImageFix"/>
<feBlend mode="normal" in="SourceGraphic" in2="BackgroundImageFix" result="shape"/>
<feGaussianBlur stdDeviation="300" result="effect1_foregroundBlur_310_639"/>
</filter>
<linearGradient id="paint0_linear_310_639" x1="1246.5" y1="241" x2="1246.5" y2="1086" gradientUnits="userSpaceOnUse">
<stop stop-color="#05AAC5"/>
<stop offset="1" stop-color="#B9713D" stop-opacity="0"/>
</linearGradient>
<linearGradient id="paint1_linear_310_639" x1="471.5" y1="-482" x2="471.5" y2="238" gradientUnits="userSpaceOnUse">
<stop stop-color="#00CEFC"/>
<stop offset="0.595" stop-color="#5181DB" stop-opacity="0.405"/>
<stop offset="1" stop-color="#894EC4" stop-opacity="0"/>
</linearGradient>
<linearGradient id="paint2_linear_310_639" x1="1364.5" y1="1128" x2="1364.5" y2="1397" gradientUnits="userSpaceOnUse">
<stop stop-color="#6D31BA"/>
<stop offset="1" stop-color="#B9713D" stop-opacity="0"/>
</linearGradient>
<clipPath id="clip0_310_639">
<rect width="1920" height="1290" fill="white"/>
</clipPath>
</defs>
</svg>
