<svg width="1920" height="1290" viewBox="0 0 1920 1290" fill="none" xmlns="http://www.w3.org/2000/svg">
<g clip-path="url(#clip0_310_639)">
<rect width="1920" height="1290" fill="black"/>
<g filter="url(#filter0_f_310_639)">
<ellipse cx="1246.5" cy="663.5" rx="428.5" ry="422.5" fill="url(#paint0_linear_310_639)"/>
</g>
<g filter="url(#filter1_f_310_639)">
<ellipse cx="471.5" cy="-122" rx="450.5" ry="360" fill="url(#paint1_linear_310_639)"/>
</g>
<g filter="url(#filter2_f_310_639)">
<circle cx="1364.5" cy="1262.5" r="134.5" fill="url(#paint2_linear_310_639)"/>
</g>
<path fill-rule="evenodd" clip-rule="evenodd" d="M1197.87 646.165C1195.42 646.137 1193.9 645.488 1192.46 644.698C1189.68 643.203 1186.92 641.679 1184.16 640.156C1179.57 637.635 1174.98 635.106 1170.41 632.567C1169.2 631.918 1167.99 631.269 1166.86 630.507C1166.13 630.027 1165.45 629.379 1164.89 628.702C1163.82 627.404 1163.74 625.852 1164.36 624.357C1165.23 622.269 1166.27 620.238 1167.31 618.235C1168.86 615.188 1170.46 612.197 1172.07 609.179C1173.95 605.568 1175.86 601.956 1177.78 598.317C1179.69 594.678 1181.6 590.982 1183.55 587.314C1185.18 584.155 1186.87 580.995 1188.52 577.835C1189.85 575.324 1191.14 572.757 1192.49 570.246C1193.28 568.751 1194.01 567.171 1195.25 565.958C1196.23 564.97 1197.33 564.716 1198.4 565.337C1198.96 565.675 1199.53 566.155 1199.86 566.691C1200.74 568.045 1201.55 569.428 1202.31 570.838C1203.44 572.898 1204.51 575.014 1205.6 577.101C1207.26 580.289 1208.92 583.477 1210.58 586.665C1211.88 589.148 1213.2 591.602 1214.49 594.085C1215.64 596.286 1216.79 598.486 1217.95 600.687C1219.14 602.972 1220.34 605.229 1221.53 607.514C1222.68 609.686 1223.81 611.887 1224.96 614.059C1226.42 616.881 1227.91 619.645 1229.32 622.495C1229.74 623.285 1230.02 624.159 1230.28 625.034C1230.78 626.981 1230.11 628.617 1228.62 629.745C1227.27 630.761 1225.83 631.579 1224.4 632.397C1221.86 633.836 1219.3 635.219 1216.77 636.601C1214.1 638.068 1211.43 639.507 1208.75 640.974C1206.31 642.328 1203.86 643.682 1201.38 644.98C1200.03 645.713 1198.63 646.165 1197.87 646.165ZM1185.21 621.056C1186.27 621.648 1187.29 622.241 1188.3 622.777C1191.06 624.3 1193.81 625.796 1196.57 627.319C1197.02 627.573 1197.42 627.573 1197.87 627.347C1200.37 625.965 1202.87 624.582 1205.41 623.2C1206.66 622.504 1207.93 621.799 1209.2 621.084C1208.44 619.166 1197.53 598.599 1197.11 598.373C1193.14 605.906 1189.17 613.467 1185.21 621.056Z" fill="#086C81"/>
<path fill-rule="evenodd" clip-rule="evenodd" d="M1372.99 640.692C1372.99 648.996 1373.02 657.299 1372.99 665.602C1372.95 669.884 1372.28 674.091 1370.6 678.075C1367.85 684.703 1363.2 689.208 1356.53 691.293C1348.61 693.75 1340.68 693.378 1332.97 690.251C1327.13 687.868 1322.89 683.623 1320.58 677.479C1320.09 676.176 1319.68 674.799 1319.46 673.458C1319.2 671.932 1320.21 670.666 1321.66 670.628C1322.81 670.591 1324 670.591 1325.16 670.591C1328.13 670.591 1331.11 670.628 1334.05 670.591C1335.54 670.591 1336.69 671.075 1337.55 672.378C1339.56 675.394 1342.5 676.176 1345.81 676.102C1348.31 676.064 1350.58 675.394 1352.29 673.458C1353.82 671.745 1354.45 669.623 1354.67 667.389C1354.82 665.9 1354.75 664.373 1354.79 662.847C1354.79 662.511 1354.75 662.214 1354.67 661.916C1354.45 660.65 1353.71 660.315 1352.7 661.059C1351.55 661.878 1350.5 662.884 1349.31 663.628C1345.81 665.862 1341.94 666.57 1337.92 666.235C1329.7 665.565 1323.78 661.097 1320.43 653.501C1315.89 643.299 1315.89 632.836 1320.43 622.56C1322.85 617.161 1326.83 613.177 1332.34 611.203C1338.41 609.081 1344.36 609.416 1349.91 613.028C1350.8 613.624 1351.62 614.405 1352.48 615.076C1353.74 616.044 1354.52 615.671 1354.75 614.07C1354.79 613.624 1354.82 613.177 1354.9 612.73C1355.08 611.65 1355.94 610.794 1357.02 610.682C1357.54 610.608 1358.1 610.608 1358.62 610.608C1362.42 610.608 1366.21 610.608 1370.01 610.608C1370.42 610.608 1370.83 610.682 1371.24 610.757C1372.17 610.943 1372.73 611.576 1372.88 612.544C1373.02 613.288 1373.02 614.108 1373.02 614.89C1373.05 623.478 1373.06 632.079 1373.06 640.692C1373.04 640.692 1373.01 640.692 1372.99 640.692ZM1354.79 637.453C1354.79 636.224 1354.56 634.512 1353.93 632.873C1352.51 629.113 1349.91 626.842 1345.96 626.544C1342.06 626.246 1338.89 627.921 1337.14 631.645C1335.1 635.964 1335.13 640.432 1337.44 644.676C1340.6 650.485 1348.38 651.044 1352.4 645.831C1354.15 643.559 1354.79 640.841 1354.79 637.453Z" fill="#086C81"/>
<path d="M1256.07 637.9C1256.07 629.895 1256.04 621.852 1256.07 613.81C1256.07 613.14 1256.3 612.432 1256.52 611.762C1256.78 610.943 1257.49 610.57 1258.31 610.496C1258.83 610.422 1259.35 610.422 1259.87 610.422C1263.69 610.422 1267.51 610.422 1271.33 610.422C1271.71 610.422 1272.07 610.446 1272.41 610.496C1273.38 610.682 1274.13 611.427 1274.27 612.432C1274.39 613.065 1274.42 613.698 1274.5 614.368C1274.68 615.82 1275.5 616.23 1276.69 615.374C1277.33 614.927 1277.85 614.443 1278.44 613.959C1282.5 610.831 1287.08 609.64 1292.1 610.012C1296.42 610.347 1300.29 611.836 1303.49 615.001C1306.51 617.98 1308.22 621.703 1309.15 625.836C1310.01 629.634 1310.01 633.469 1310.01 637.304C1310.01 645.322 1310.01 653.352 1310.01 661.394C1310.01 662.065 1309.97 662.735 1309.9 663.405C1309.71 664.559 1309.11 665.155 1308 665.378C1307.55 665.453 1307.09 665.49 1306.62 665.49C1302.8 665.49 1298.99 665.49 1295.19 665.49C1295.02 665.49 1294.86 665.49 1294.71 665.49C1292.62 665.378 1291.92 664.634 1291.81 662.474C1291.81 661.99 1291.81 661.469 1291.81 660.985C1291.81 652.694 1291.79 644.391 1291.77 636.075C1291.77 634.102 1291.47 632.203 1290.61 630.416C1289.01 627.028 1285.63 625.315 1281.79 625.874C1277.66 626.506 1274.91 629.671 1274.5 634.177C1274.42 635.145 1274.39 636.113 1274.39 637.081C1274.39 645.533 1274.39 653.948 1274.35 662.363C1274.37 662.685 1274.36 663.008 1274.31 663.331C1274.09 664.597 1273.49 665.229 1272.26 665.378C1271.63 665.49 1271 665.49 1270.4 665.49C1266.98 665.515 1263.54 665.515 1260.09 665.49C1259.42 665.49 1258.72 665.453 1258.05 665.341C1257.11 665.192 1256.52 664.597 1256.33 663.628C1256.18 662.809 1256.07 661.99 1256.07 661.171C1256.04 653.426 1256.04 645.682 1256.04 637.937C1256.06 637.912 1256.07 637.9 1256.07 637.9Z" fill="#086C81"/>
<path fill-rule="evenodd" clip-rule="evenodd" d="M1407.75 666.16C1401.76 666.123 1396.18 664.671 1391.22 661.059C1385.31 656.666 1382.07 650.559 1380.99 643.187C1380.28 638.384 1380.39 633.581 1381.77 628.889C1384.19 620.512 1389.29 614.666 1397.22 611.688C1405 608.783 1412.82 608.969 1420.37 612.432C1427.55 615.746 1432.09 621.517 1434.14 629.336C1435.74 635.405 1435.71 641.549 1433.85 647.581C1431.43 655.586 1426.36 661.059 1418.84 664.113C1415.27 665.565 1411.59 666.123 1407.75 666.16ZM1416.76 637.937C1416.76 635.666 1416.46 633.432 1415.42 631.347C1413.86 628.219 1411.4 626.469 1407.94 626.469C1404.48 626.469 1401.91 628.145 1400.49 631.347C1398.52 635.74 1398.56 640.283 1400.49 644.639C1403.17 650.597 1410.99 651.155 1414.64 645.793C1416.28 643.448 1416.76 640.767 1416.76 637.937Z" fill="#086C81"/>
<path d="M1442.82 637.9C1442.82 629.833 1442.82 621.765 1442.82 613.698C1442.84 613.301 1442.88 612.904 1442.93 612.507C1443.15 611.315 1443.78 610.645 1444.94 610.496C1445.46 610.421 1446.02 610.421 1446.54 610.421C1450.33 610.421 1454.13 610.434 1457.93 610.459C1458.32 610.459 1458.71 610.484 1459.08 610.533C1460.09 610.719 1460.72 611.315 1460.87 612.358C1460.98 612.99 1460.98 613.624 1461.02 614.294C1461.05 614.927 1461.05 615.56 1461.13 616.193C1461.35 617.682 1462.13 617.98 1463.29 617.086C1463.7 616.751 1464.11 616.342 1464.48 615.969C1467.23 613.251 1470.36 611.278 1474.12 610.421C1474.39 610.347 1474.67 610.297 1474.94 610.273C1477.28 609.937 1477.69 611.092 1477.95 612.804C1478.03 613.251 1477.99 613.772 1477.99 614.219C1477.99 618.464 1477.99 622.671 1477.95 626.879C1477.95 627.437 1477.84 628.033 1477.73 628.592C1477.51 629.559 1476.84 630.155 1475.91 630.23C1474.83 630.341 1473.78 630.304 1472.7 630.379C1471.14 630.528 1469.54 630.602 1468.01 630.937C1463.88 631.905 1461.54 634.809 1461.17 639.166C1461.07 640.308 1461.02 641.449 1461.02 642.591C1461.02 649.144 1461.02 655.66 1461.02 662.214C1461.02 662.511 1461.02 662.809 1460.94 663.144C1460.76 664.634 1460.12 665.304 1458.67 665.416C1457.78 665.49 1456.89 665.527 1455.99 665.527C1452.72 665.527 1449.4 665.527 1446.13 665.49C1443.6 665.49 1442.85 664.708 1442.85 662.064C1442.82 653.985 1442.82 645.942 1442.82 637.9Z" fill="#086C81"/>
<path d="M1240.3 663.557C1238.56 663.445 1236.79 663.389 1235.08 663.193C1232.78 662.968 1231.07 661.679 1229.95 659.687C1228.18 656.659 1226.56 653.546 1224.96 650.434C1224.56 649.648 1224.37 648.723 1224.28 647.854C1224.09 645.919 1225.1 644.573 1226.58 643.619C1228.1 642.638 1229.67 641.769 1231.24 640.899C1232.11 640.451 1233.01 640.03 1233.96 639.721C1236.09 638.992 1237.8 639.497 1239.15 641.348C1240.13 642.694 1240.94 644.18 1241.73 645.638C1242.82 647.601 1243.86 649.592 1244.9 651.611C1246.02 653.771 1247.14 655.958 1248.21 658.173C1248.46 658.706 1248.57 659.379 1248.6 659.968C1248.71 661.538 1247.76 662.744 1246.13 663.081C1245.2 663.277 1244.22 663.361 1243.27 663.417C1242.29 663.473 1241.28 663.445 1240.3 663.445C1240.3 663.483 1240.3 663.52 1240.3 663.557Z" fill="#086C81"/>
<path d="M1153.84 663.557C1152.43 663.473 1150.6 663.417 1148.83 663.193C1147.61 663.025 1146.51 662.463 1146.12 661.145C1145.95 660.528 1145.98 659.827 1146.09 659.182C1146.35 657.667 1147.16 656.377 1147.87 655.031C1149.3 652.254 1150.77 649.477 1152.26 646.728C1153.19 645.017 1154.12 643.278 1155.22 641.651C1156.69 639.435 1158.94 638.818 1161.28 639.968C1163.57 641.119 1165.82 642.297 1167.96 643.671C1170.13 645.073 1170.95 647.121 1169.88 649.645C1168.92 651.917 1167.74 654.077 1166.58 656.265C1165.85 657.639 1165.09 658.957 1164.24 660.248C1163 662.127 1161.2 663.137 1159.03 663.305C1157.42 663.445 1155.84 663.473 1153.84 663.557Z" fill="#086C81"/>
</g>
<defs>
<filter id="filter0_f_310_639" x="218" y="-359" width="2057" height="2045" filterUnits="userSpaceOnUse" color-interpolation-filters="sRGB">
<feFlood flood-opacity="0" result="BackgroundImageFix"/>
<feBlend mode="normal" in="SourceGraphic" in2="BackgroundImageFix" result="shape"/>
<feGaussianBlur stdDeviation="300" result="effect1_foregroundBlur_310_639"/>
</filter>
<filter id="filter1_f_310_639" x="-579" y="-1082" width="2101" height="1920" filterUnits="userSpaceOnUse" color-interpolation-filters="sRGB">
<feFlood flood-opacity="0" result="BackgroundImageFix"/>
<feBlend mode="normal" in="SourceGraphic" in2="BackgroundImageFix" result="shape"/>
<feGaussianBlur stdDeviation="300" result="effect1_foregroundBlur_310_639"/>
</filter>
<filter id="filter2_f_310_639" x="630" y="528" width="1469" height="1469" filterUnits="userSpaceOnUse" color-interpolation-filters="sRGB">
<feFlood flood-opacity="0" result="BackgroundImageFix"/>
<feBlend mode="normal" in="SourceGraphic" in2="BackgroundImageFix" result="shape"/>
<feGaussianBlur stdDeviation="300" result="effect1_foregroundBlur_310_639"/>
</filter>
<linearGradient id="paint0_linear_310_639" x1="1246.5" y1="241" x2="1246.5" y2="1086" gradientUnits="userSpaceOnUse">
<stop stop-color="#05AAC5"/>
<stop offset="1" stop-color="#B9713D" stop-opacity="0"/>
</linearGradient>
<linearGradient id="paint1_linear_310_639" x1="471.5" y1="-482" x2="471.5" y2="238" gradientUnits="userSpaceOnUse">
<stop stop-color="#00CEFC"/>
<stop offset="0.595" stop-color="#5181DB" stop-opacity="0.405"/>
<stop offset="1" stop-color="#894EC4" stop-opacity="0"/>
</linearGradient>
<linearGradient id="paint2_linear_310_639" x1="1364.5" y1="1128" x2="1364.5" y2="1397" gradientUnits="userSpaceOnUse">
<stop stop-color="#6D31BA"/>
<stop offset="1" stop-color="#B9713D" stop-opacity="0"/>
</linearGradient>
<clipPath id="clip0_310_639">
<rect width="1920" height="1290" fill="white"/>
</clipPath>
</defs>
</svg>
