<svg xmlns="http://www.w3.org/2000/svg" width="351" height="349" fill="none"><path fill="#022229" d="M0 0h351v349H0z"/><path stroke="url(#a)" d="M80.658 10v339"/><path stroke="url(#b)" d="M128.329 10v339"/><path stroke="url(#c)" d="M176 10v339"/><path stroke="url(#d)" d="M223.671 10v339"/><path stroke="url(#e)" d="M271.342 10v339"/><path stroke="url(#f)" d="M351 87.918H0"/><path stroke="url(#g)" d="M351 133.959H0"/><path stroke="url(#h)" d="M351 180H0"/><path stroke="url(#i)" d="M351 226.041H0"/><path stroke="url(#j)" d="m351 272.083-351-.001"/><path fill="#CBDDE1" fill-rule="evenodd" d="M176.141 212.353c-2.791-.034-4.523-.804-6.16-1.742a862 862 0 0 1-9.463-5.392 3694 3694 0 0 1-15.688-9.009c-1.379-.77-2.759-1.541-4.042-2.445-.834-.569-1.604-1.339-2.246-2.143-1.219-1.541-1.315-3.383-.609-5.158.994-2.478 2.181-4.89 3.368-7.268 1.765-3.617 3.593-7.167 5.422-10.75 2.149-4.287 4.331-8.574 6.512-12.895 2.182-4.32 4.363-8.707 6.577-13.061 1.86-3.751 3.785-7.502 5.678-11.253 1.508-2.981 2.984-6.029 4.523-9.009.899-1.776 1.733-3.651 3.144-5.091 1.123-1.172 2.374-1.474 3.593-.737.642.402 1.284.971 1.669 1.608a74 74 0 0 1 2.791 4.923c1.283 2.445 2.502 4.957 3.753 7.435l5.678 11.354c1.476 2.947 2.984 5.861 4.46 8.808q1.957 3.918 3.946 7.837c1.347 2.713 2.726 5.392 4.074 8.105 1.315 2.579 2.598 5.191 3.914 7.77 1.668 3.349 3.368 6.631 4.972 10.014.481.937.802 1.976 1.091 3.014.577 2.311-.193 4.253-1.893 5.593-1.54 1.206-3.176 2.177-4.812 3.148-2.887 1.708-5.807 3.349-8.694 4.99-3.048 1.742-6.095 3.45-9.143 5.191-2.791 1.608-5.582 3.216-8.405 4.756-1.54.871-3.144 1.407-4.01 1.407m-14.436-29.807c1.219.703 2.374 1.406 3.528 2.043 3.144 1.808 6.288 3.583 9.432 5.392.513.301.963.301 1.476.033 2.855-1.641 5.71-3.282 8.598-4.923q2.148-1.24 4.33-2.512c-.866-2.277-13.313-26.693-13.794-26.961a9763 9763 0 0 0-13.57 26.928" clip-rule="evenodd"/><path fill="#CBDDE1" d="M224.524 233c-1.982-.133-3.997-.2-5.947-.433-2.623-.266-4.573-1.797-5.852-4.161-2.015-3.595-3.87-7.29-5.692-10.986-.448-.932-.672-2.03-.768-3.062-.224-2.297.927-3.895 2.622-5.027 1.727-1.165 3.518-2.197 5.309-3.229.991-.533 2.014-1.032 3.101-1.398 2.431-.866 4.381-.267 5.916 1.931 1.12 1.597 2.047 3.362 2.942 5.093 1.247 2.33 2.431 4.694 3.614 7.091 1.279 2.563 2.558 5.159 3.773 7.789.288.633.416 1.432.448 2.131.128 1.864-.959 3.296-2.814 3.695-1.055.233-2.175.333-3.262.399-1.119.067-2.27.034-3.39.034zm-98.582 0c-1.607-.1-3.696-.167-5.72-.433-1.382-.2-2.635-.866-3.085-2.431-.193-.732-.161-1.565-.033-2.33.29-1.799 1.222-3.33 2.025-4.928a556 556 0 0 1 5.014-9.856c1.06-2.032 2.121-4.096 3.374-6.027 1.671-2.631 4.242-3.363 6.909-1.998 2.604 1.365 5.175 2.764 7.617 4.395 2.475 1.665 3.407 4.096 2.185 7.092-1.092 2.698-2.442 5.261-3.76 7.859a61 61 0 0 1-2.667 4.728c-1.414 2.231-3.471 3.429-5.945 3.629-1.832.167-3.632.2-5.914.3"/><defs><linearGradient id="a" x1="79.658" x2="79.658" y1="10" y2="349" gradientUnits="userSpaceOnUse"><stop stop-color="#fff" stop-opacity="0"/><stop offset=".515" stop-color="#fff" stop-opacity=".1"/><stop offset="1" stop-color="#fff" stop-opacity="0"/></linearGradient><linearGradient id="b" x1="127.329" x2="127.329" y1="10" y2="349" gradientUnits="userSpaceOnUse"><stop stop-color="#fff" stop-opacity="0"/><stop offset=".515" stop-color="#fff" stop-opacity=".1"/><stop offset="1" stop-color="#fff" stop-opacity="0"/></linearGradient><linearGradient id="c" x1="175" x2="175" y1="10" y2="349" gradientUnits="userSpaceOnUse"><stop stop-color="#fff" stop-opacity="0"/><stop offset=".515" stop-color="#fff" stop-opacity=".1"/><stop offset="1" stop-color="#fff" stop-opacity="0"/></linearGradient><linearGradient id="d" x1="222.671" x2="222.671" y1="10" y2="349" gradientUnits="userSpaceOnUse"><stop stop-color="#fff" stop-opacity="0"/><stop offset=".515" stop-color="#fff" stop-opacity=".1"/><stop offset="1" stop-color="#fff" stop-opacity="0"/></linearGradient><linearGradient id="e" x1="270.342" x2="270.342" y1="10" y2="349" gradientUnits="userSpaceOnUse"><stop stop-color="#fff" stop-opacity="0"/><stop offset=".515" stop-color="#fff" stop-opacity=".1"/><stop offset="1" stop-color="#fff" stop-opacity="0"/></linearGradient><linearGradient id="f" x1="351" x2="0" y1="86.918" y2="86.918" gradientUnits="userSpaceOnUse"><stop stop-color="#fff" stop-opacity="0"/><stop offset=".515" stop-color="#fff" stop-opacity=".1"/><stop offset="1" stop-color="#fff" stop-opacity="0"/></linearGradient><linearGradient id="g" x1="351" x2="0" y1="132.959" y2="132.959" gradientUnits="userSpaceOnUse"><stop stop-color="#fff" stop-opacity="0"/><stop offset=".515" stop-color="#fff" stop-opacity=".1"/><stop offset="1" stop-color="#fff" stop-opacity="0"/></linearGradient><linearGradient id="h" x1="351" x2="0" y1="179" y2="179" gradientUnits="userSpaceOnUse"><stop stop-color="#fff" stop-opacity="0"/><stop offset=".515" stop-color="#fff" stop-opacity=".1"/><stop offset="1" stop-color="#fff" stop-opacity="0"/></linearGradient><linearGradient id="i" x1="351" x2="0" y1="225.041" y2="225.041" gradientUnits="userSpaceOnUse"><stop stop-color="#fff" stop-opacity="0"/><stop offset=".515" stop-color="#fff" stop-opacity=".1"/><stop offset="1" stop-color="#fff" stop-opacity="0"/></linearGradient><linearGradient id="j" x1="351" x2="0" y1="271.083" y2="271.082" gradientUnits="userSpaceOnUse"><stop stop-color="#fff" stop-opacity="0"/><stop offset=".515" stop-color="#fff" stop-opacity=".1"/><stop offset="1" stop-color="#fff" stop-opacity="0"/></linearGradient></defs></svg>