<svg xmlns="http://www.w3.org/2000/svg" width="1920" height="1290" fill="none"><g clip-path="url(#a)"><path fill="#000" d="M0 0h1920v1290H0z"/><g filter="url(#b)"><ellipse cx="1246.5" cy="663.5" fill="url(#c)" rx="428.5" ry="422.5"/></g><g filter="url(#d)"><ellipse cx="471.5" cy="-122" fill="url(#e)" rx="450.5" ry="360"/></g><g filter="url(#f)"><circle cx="1364.5" cy="1262.5" r="134.5" fill="url(#g)"/></g><path fill="#086C81" fill-rule="evenodd" d="M1202.87 662.165c-2.45-.028-3.97-.677-5.41-1.467-2.78-1.495-5.54-3.019-8.3-4.542-4.59-2.521-9.18-5.05-13.75-7.589-1.21-.649-2.42-1.298-3.55-2.06-.73-.48-1.41-1.128-1.97-1.805-1.07-1.298-1.15-2.85-.53-4.345.87-2.088 1.91-4.119 2.95-6.122 1.55-3.047 3.15-6.038 4.76-9.056 1.88-3.611 3.79-7.223 5.71-10.862 1.91-3.639 3.82-7.335 5.77-11.003 1.63-3.159 3.32-6.319 4.97-9.479 1.33-2.511 2.62-5.078 3.97-7.589.79-1.495 1.52-3.075 2.76-4.288.98-.988 2.08-1.242 3.15-.621.56.338 1.13.818 1.46 1.354a59 59 0 0 1 2.45 4.147c1.13 2.06 2.2 4.176 3.29 6.263l4.98 9.564c1.3 2.483 2.62 4.937 3.91 7.42 1.15 2.201 2.3 4.401 3.46 6.602 1.19 2.285 2.39 4.542 3.58 6.827 1.15 2.172 2.28 4.373 3.43 6.545 1.46 2.822 2.95 5.586 4.36 8.436.42.79.7 1.664.96 2.539.5 1.947-.17 3.583-1.66 4.711-1.35 1.016-2.79 1.834-4.22 2.652-2.54 1.439-5.1 2.822-7.63 4.204-2.67 1.467-5.34 2.906-8.02 4.373-2.44 1.354-4.89 2.708-7.37 4.006-1.35.733-2.75 1.185-3.51 1.185m-12.66-25.109c1.06.592 2.08 1.185 3.09 1.721 2.76 1.523 5.51 3.019 8.27 4.542.45.254.85.254 1.3.028 2.5-1.382 5-2.765 7.54-4.147 1.25-.696 2.52-1.401 3.79-2.116-.76-1.918-11.67-22.485-12.09-22.711a6272 6272 0 0 0-11.9 22.683m187.78 19.636c0 8.304.03 16.607 0 24.91-.04 4.282-.71 8.489-2.39 12.473-2.75 6.628-7.4 11.133-14.07 13.218-7.92 2.457-15.85 2.085-23.56-1.042-5.84-2.383-10.08-6.628-12.39-12.772-.49-1.303-.9-2.68-1.12-4.021-.26-1.526.75-2.792 2.2-2.83 1.15-.037 2.34-.037 3.5-.037 2.97 0 5.95.037 8.89 0 1.49 0 2.64.484 3.5 1.787 2.01 3.016 4.95 3.798 8.26 3.724 2.5-.038 4.77-.708 6.48-2.644 1.53-1.713 2.16-3.835 2.38-6.069.15-1.489.08-3.016.12-4.542 0-.336-.04-.633-.12-.931-.22-1.266-.96-1.601-1.97-.857-1.15.819-2.2 1.825-3.39 2.569-3.5 2.234-7.37 2.942-11.39 2.607-8.22-.67-14.14-5.138-17.49-12.734-4.54-10.202-4.54-20.665 0-30.941 2.42-5.399 6.4-9.383 11.91-11.357 6.07-2.122 12.02-1.787 17.57 1.825.89.596 1.71 1.377 2.57 2.048 1.26.968 2.04.595 2.27-1.006.04-.446.07-.893.15-1.34.18-1.08 1.04-1.936 2.12-2.048.52-.074 1.08-.074 1.6-.074h11.39c.41 0 .82.074 1.23.149.93.186 1.49.819 1.64 1.787.14.744.14 1.564.14 2.346.03 8.588.04 17.189.04 25.802zm-18.2-3.239c0-1.229-.23-2.941-.86-4.58-1.42-3.76-4.02-6.031-7.97-6.329-3.9-.298-7.07 1.377-8.82 5.101-2.04 4.319-2.01 8.787.3 13.031 3.16 5.809 10.94 6.368 14.96 1.155 1.75-2.272 2.39-4.99 2.39-8.378" clip-rule="evenodd"/><path fill="#086C81" d="M1261.07 653.9c0-8.005-.03-16.048 0-24.09 0-.67.23-1.378.45-2.048.26-.819.97-1.192 1.79-1.266.52-.074 1.04-.074 1.56-.074h11.46q.57 0 1.08.074c.97.186 1.72.931 1.86 1.936.12.633.15 1.266.23 1.936.18 1.452 1 1.862 2.19 1.006.64-.447 1.16-.931 1.75-1.415 4.06-3.128 8.64-4.319 13.66-3.947 4.32.335 8.19 1.824 11.39 4.989 3.02 2.979 4.73 6.702 5.66 10.835.86 3.798.86 7.633.86 11.468v24.09c0 .671-.04 1.341-.11 2.011-.19 1.154-.79 1.75-1.9 1.973a8.4 8.4 0 0 1-1.38.112h-11.91c-2.09-.112-2.79-.856-2.9-3.016v-1.489c0-8.291-.02-16.594-.04-24.91 0-1.973-.3-3.872-1.16-5.659-1.6-3.388-4.98-5.101-8.82-4.542-4.13.632-6.88 3.797-7.29 8.303-.08.968-.11 1.936-.11 2.904 0 8.452 0 16.867-.04 25.282.02.322.01.645-.04.968-.22 1.266-.82 1.898-2.05 2.047-.63.112-1.26.112-1.86.112-3.42.025-6.86.025-10.31 0-.67 0-1.37-.037-2.04-.149-.94-.149-1.53-.744-1.72-1.713-.15-.819-.26-1.638-.26-2.457-.03-7.745-.03-15.489-.03-23.234z"/><path fill="#086C81" fill-rule="evenodd" d="M1412.75 682.16c-5.99-.037-11.57-1.489-16.53-5.101-5.91-4.393-9.15-10.5-10.23-17.872-.71-4.803-.6-9.606.78-14.298 2.42-8.377 7.52-14.223 15.45-17.201 7.78-2.905 15.6-2.719 23.15.744 7.18 3.314 11.72 9.085 13.77 16.904 1.6 6.069 1.57 12.213-.29 18.245-2.42 8.005-7.49 13.478-15.01 16.532-3.57 1.452-7.25 2.01-11.09 2.047m9.01-28.223c0-2.271-.3-4.505-1.34-6.59-1.56-3.128-4.02-4.878-7.48-4.878s-6.03 1.676-7.45 4.878c-1.97 4.393-1.93 8.936 0 13.292 2.68 5.958 10.5 6.516 14.15 1.154 1.64-2.345 2.12-5.026 2.12-7.856" clip-rule="evenodd"/><path fill="#086C81" d="M1447.82 653.9v-24.202c.02-.397.06-.794.11-1.191.22-1.192.85-1.862 2.01-2.011.52-.075 1.08-.075 1.6-.075 3.79 0 7.59.013 11.39.038.39 0 .78.025 1.15.074 1.01.186 1.64.782 1.79 1.825.11.632.11 1.266.15 1.936.03.633.03 1.266.11 1.899.22 1.489 1 1.787 2.16.893.41-.335.82-.744 1.19-1.117 2.75-2.718 5.88-4.691 9.64-5.548.27-.074.55-.124.82-.148 2.34-.336 2.75.819 3.01 2.531.08.447.04.968.04 1.415 0 4.245 0 8.452-.04 12.66 0 .558-.11 1.154-.22 1.713-.22.967-.89 1.563-1.82 1.638-1.08.111-2.13.074-3.21.149-1.56.149-3.16.223-4.69.558-4.13.968-6.47 3.872-6.84 8.229q-.15 1.713-.15 3.425v19.623c0 .297 0 .595-.08.93-.18 1.49-.82 2.16-2.27 2.272-.89.074-1.78.111-2.68.111-3.27 0-6.59 0-9.86-.037-2.53 0-3.28-.782-3.28-3.426-.03-8.079-.03-16.122-.03-24.164m-202.52 25.657c-1.74-.112-3.51-.168-5.22-.364-2.3-.225-4.01-1.514-5.13-3.506-1.77-3.028-3.39-6.141-4.99-9.253-.4-.786-.59-1.711-.68-2.58-.19-1.935.82-3.281 2.3-4.235 1.52-.981 3.09-1.85 4.66-2.72.87-.448 1.77-.869 2.72-1.178 2.13-.729 3.84-.224 5.19 1.627.98 1.346 1.79 2.832 2.58 4.29a217 217 0 0 1 3.17 5.973c1.12 2.16 2.24 4.347 3.31 6.562.25.533.36 1.206.39 1.795.11 1.57-.84 2.776-2.47 3.113-.93.196-1.91.28-2.86.336-.98.056-1.99.028-2.97.028zm-86.46 0c-1.41-.084-3.24-.14-5.01-.364-1.22-.168-2.32-.73-2.71-2.048-.17-.617-.14-1.318-.03-1.963.26-1.515 1.07-2.805 1.78-4.151 1.43-2.777 2.9-5.554 4.39-8.303.93-1.711 1.86-3.45 2.96-5.077 1.47-2.216 3.72-2.833 6.06-1.683 2.29 1.151 4.54 2.329 6.68 3.703 2.17 1.402 2.99 3.45 1.92 5.974-.96 2.272-2.14 4.432-3.3 6.62a49 49 0 0 1-2.34 3.983c-1.24 1.879-3.04 2.889-5.21 3.057-1.61.14-3.19.168-5.19.252"/></g><defs><linearGradient id="c" x1="1246.5" x2="1246.5" y1="241" y2="1086" gradientUnits="userSpaceOnUse"><stop stop-color="#05AAC5"/><stop offset="1" stop-color="#B9713D" stop-opacity="0"/></linearGradient><linearGradient id="e" x1="471.5" x2="471.5" y1="-482" y2="238" gradientUnits="userSpaceOnUse"><stop stop-color="#00CEFC"/><stop offset=".595" stop-color="#5181DB" stop-opacity=".405"/><stop offset="1" stop-color="#894EC4" stop-opacity="0"/></linearGradient><linearGradient id="g" x1="1364.5" x2="1364.5" y1="1128" y2="1397" gradientUnits="userSpaceOnUse"><stop stop-color="#6D31BA"/><stop offset="1" stop-color="#B9713D" stop-opacity="0"/></linearGradient><filter id="b" width="2057" height="2045" x="218" y="-359" color-interpolation-filters="sRGB" filterUnits="userSpaceOnUse"><feFlood flood-opacity="0" result="BackgroundImageFix"/><feBlend in="SourceGraphic" in2="BackgroundImageFix" result="shape"/><feGaussianBlur result="effect1_foregroundBlur_310_639" stdDeviation="300"/></filter><filter id="d" width="2101" height="1920" x="-579" y="-1082" color-interpolation-filters="sRGB" filterUnits="userSpaceOnUse"><feFlood flood-opacity="0" result="BackgroundImageFix"/><feBlend in="SourceGraphic" in2="BackgroundImageFix" result="shape"/><feGaussianBlur result="effect1_foregroundBlur_310_639" stdDeviation="300"/></filter><filter id="f" width="1469" height="1469" x="630" y="528" color-interpolation-filters="sRGB" filterUnits="userSpaceOnUse"><feFlood flood-opacity="0" result="BackgroundImageFix"/><feBlend in="SourceGraphic" in2="BackgroundImageFix" result="shape"/><feGaussianBlur result="effect1_foregroundBlur_310_639" stdDeviation="300"/></filter><clipPath id="a"><path fill="#fff" d="M0 0h1920v1290H0z"/></clipPath></defs></svg>