<svg xmlns="http://www.w3.org/2000/svg" width="742" height="256" fill="none"><g clip-path="url(#a)"><path fill="#fff" d="M0 0h742v256H0z"/><path fill="#D08B05" d="M0 0h742v256H0z"/><path fill="#000" fill-rule="evenodd" d="M368.172 62.482v9.037q-1.322.066-2.641.194a2.83 2.83 0 0 0-2.455 2.07l-1.834 6.716a49 49 0 0 0-5.543 1.485l-4.946-4.9a2.83 2.83 0 0 0-3.16-.564q-1.206.548-2.385 1.152l-4.518-7.826a8.49 8.49 0 0 0 .897-9.755c-2.34-4.055-7.533-5.446-11.587-3.105s-5.446 7.533-3.105 11.587a8.49 8.49 0 0 0 8.897 4.1l4.519 7.827q-1.113.718-2.191 1.49a2.83 2.83 0 0 0-1.091 3.018l1.77 6.734a49 49 0 0 0-4.058 4.057l-6.733-1.77a2.83 2.83 0 0 0-3.019 1.091 56 56 0 0 0-1.489 2.19l-7.826-4.518c.637-3.434-.904-7.052-4.1-8.897-4.055-2.34-9.247-.95-11.588 3.105s-.95 9.247 3.105 11.587c3.196 1.846 7.099 1.372 9.755-.897l7.826 4.518a57 57 0 0 0-1.152 2.385 2.83 2.83 0 0 0 .565 3.16l4.899 4.947a48 48 0 0 0-1.485 5.543l-6.716 1.833a2.83 2.83 0 0 0-2.07 2.455 57 57 0 0 0-.194 2.641h-9.037c-1.165-3.293-4.309-5.655-7.999-5.655-4.682 0-8.483 3.801-8.483 8.483s3.801 8.483 8.483 8.483c3.69 0 6.834-2.362 7.999-5.655h9.037q.066 1.322.194 2.641a2.83 2.83 0 0 0 2.07 2.455l6.716 1.834a49 49 0 0 0 1.485 5.543l-4.899 4.946a2.83 2.83 0 0 0-.565 3.16q.548 1.206 1.152 2.385l-7.826 4.518c-2.656-2.269-6.559-2.743-9.755-.898-4.055 2.341-5.446 7.534-3.105 11.588s7.533 5.446 11.588 3.105a8.49 8.49 0 0 0 4.1-8.897l7.826-4.519q.718 1.113 1.489 2.191a2.83 2.83 0 0 0 3.019 1.091l6.734-1.77a49 49 0 0 0 4.057 4.058l-1.77 6.733a2.83 2.83 0 0 0 1.091 3.019q1.078.77 2.191 1.489l-4.519 7.826a8.49 8.49 0 0 0-8.897 4.1c-2.341 4.055-.949 9.247 3.105 11.588s9.247.95 11.587-3.105c1.846-3.196 1.372-7.099-.897-9.755l4.518-7.826a57 57 0 0 0 2.385 1.152 2.83 2.83 0 0 0 3.16-.565l4.947-4.899c1.816.604 3.667 1.1 5.543 1.485l1.833 6.716a2.83 2.83 0 0 0 2.455 2.07q1.319.128 2.641.194v9.037c-3.293 1.165-5.655 4.309-5.655 7.999 0 4.682 3.801 8.483 8.483 8.483s8.483-3.801 8.483-8.483c0-3.69-2.362-6.834-5.655-7.999v-9.037a57 57 0 0 0 2.641-.194 2.83 2.83 0 0 0 2.455-2.07l1.834-6.716a49 49 0 0 0 5.543-1.485l4.946 4.899a2.83 2.83 0 0 0 3.16.565 57 57 0 0 0 2.385-1.152l4.518 7.826c-2.269 2.656-2.743 6.559-.897 9.755 2.34 4.055 7.532 5.446 11.587 3.105s5.446-7.533 3.105-11.588a8.49 8.49 0 0 0-8.897-4.1l-4.519-7.826a56 56 0 0 0 2.191-1.489 2.83 2.83 0 0 0 1.091-3.019l-1.77-6.734a49 49 0 0 0 4.058-4.057l6.733 1.77a2.83 2.83 0 0 0 3.019-1.091 56 56 0 0 0 1.489-2.191l7.827 4.519a8.49 8.49 0 0 0 4.1 8.897c4.054 2.341 9.246.949 11.587-3.105s.95-9.247-3.105-11.588c-3.196-1.845-7.099-1.371-9.755.898l-7.826-4.518q.604-1.179 1.152-2.385a2.83 2.83 0 0 0-.565-3.16l-4.899-4.947a48 48 0 0 0 1.485-5.543l6.716-1.833a2.83 2.83 0 0 0 2.07-2.455q.128-1.319.194-2.641h9.037a8.49 8.49 0 0 0 7.999 5.655c4.682 0 8.483-3.801 8.483-8.483s-3.801-8.483-8.483-8.483a8.49 8.49 0 0 0-7.999 5.655h-9.037a57 57 0 0 0-.194-2.641 2.83 2.83 0 0 0-2.07-2.455l-6.716-1.834a49 49 0 0 0-1.485-5.543l4.899-4.946a2.83 2.83 0 0 0 .565-3.16 56 56 0 0 0-1.152-2.385l7.826-4.518a8.49 8.49 0 0 0 9.755.897c4.055-2.34 5.446-7.533 3.105-11.587s-7.533-5.446-11.587-3.105a8.49 8.49 0 0 0-4.1 8.897l-7.827 4.519a56 56 0 0 0-1.489-2.191 2.83 2.83 0 0 0-3.019-1.09l-6.734 1.769a48 48 0 0 0-4.057-4.058l1.77-6.733a2.83 2.83 0 0 0-1.091-3.019 56 56 0 0 0-2.191-1.49l4.519-7.826a8.49 8.49 0 0 0 8.897-4.1c2.341-4.054.949-9.246-3.105-11.587s-9.247-.95-11.587 3.105a8.49 8.49 0 0 0 .897 9.755l-4.518 7.826a57 57 0 0 0-2.385-1.152 2.83 2.83 0 0 0-3.16.565l-4.947 4.899a49 49 0 0 0-5.543-1.485l-1.833-6.716a2.83 2.83 0 0 0-2.455-2.07q-1.319-.128-2.641-.194v-9.037a8.49 8.49 0 0 0 5.655-8c0-4.68-3.801-8.482-8.483-8.482s-8.483 3.801-8.483 8.483c0 3.69 2.362 6.834 5.655 8" clip-rule="evenodd"/><path fill="#FFD322" fill-rule="evenodd" d="m373.998 77.088 1.782 6.521a2.83 2.83 0 0 0 2.268 2.049 43 43 0 0 1 8.02 2.148 2.83 2.83 0 0 0 2.988-.64l4.803-4.756a51 51 0 0 1 5.193 2.998l-1.717 6.538a2.83 2.83 0 0 0 .94 2.908 43 43 0 0 1 5.871 5.871 2.83 2.83 0 0 0 2.908.94l6.537-1.717a51 51 0 0 1 2.999 5.192l-4.757 4.804a2.83 2.83 0 0 0-.639 2.988 43 43 0 0 1 2.148 8.02 2.83 2.83 0 0 0 2.049 2.268l6.521 1.782a51 51 0 0 1 0 5.996l-6.521 1.782a2.83 2.83 0 0 0-2.049 2.268 43 43 0 0 1-2.148 8.02 2.83 2.83 0 0 0 .639 2.988l4.757 4.803a51 51 0 0 1-2.998 5.193l-6.538-1.717a2.83 2.83 0 0 0-2.908.94 43 43 0 0 1-5.871 5.871 2.83 2.83 0 0 0-.94 2.908l1.717 6.538a51 51 0 0 1-5.192 2.998l-4.804-4.757a2.83 2.83 0 0 0-2.988-.639 43 43 0 0 1-8.02 2.149 2.83 2.83 0 0 0-2.268 2.048l-1.782 6.521a51 51 0 0 1-5.996 0l-1.782-6.521a2.83 2.83 0 0 0-2.268-2.048 43 43 0 0 1-8.02-2.149 2.83 2.83 0 0 0-2.988.639l-4.803 4.757a51 51 0 0 1-5.193-2.998l1.717-6.538a2.83 2.83 0 0 0-.94-2.908 43 43 0 0 1-5.871-5.871 2.83 2.83 0 0 0-2.908-.94l-6.538 1.717a51 51 0 0 1-2.998-5.192l4.757-4.804a2.83 2.83 0 0 0 .639-2.988 43 43 0 0 1-2.149-8.02 2.83 2.83 0 0 0-2.048-2.268l-6.521-1.782a51 51 0 0 1 0-5.996l6.521-1.782a2.83 2.83 0 0 0 2.048-2.268 43 43 0 0 1 2.149-8.02 2.83 2.83 0 0 0-.639-2.988l-4.757-4.803a51 51 0 0 1 2.998-5.193l6.538 1.717a2.83 2.83 0 0 0 2.908-.94 43 43 0 0 1 5.871-5.87 2.83 2.83 0 0 0 .94-2.909l-1.717-6.537a51 51 0 0 1 5.192-2.999l4.804 4.757a2.83 2.83 0 0 0 2.988.64 43 43 0 0 1 8.02-2.15 2.83 2.83 0 0 0 2.268-2.048l1.782-6.52a51 51 0 0 1 5.996 0" clip-rule="evenodd"/><path fill="#E5B700" fill-rule="evenodd" d="M349.41 84.429c3.689 13.751 16.741 50.419 54.59 70.615a3 3 0 0 0-.373.376 42.7 42.7 0 0 1-5.835 5.835 2.82 2.82 0 0 0-.935 2.89l1.708 6.498a51 51 0 0 1-5.161 2.98l-4.774-4.728a2.82 2.82 0 0 0-2.97-.635 42.7 42.7 0 0 1-7.97 2.135 2.82 2.82 0 0 0-2.254 2.036l-1.771 6.481a51 51 0 0 1-5.959 0l-1.771-6.481a2.82 2.82 0 0 0-2.254-2.036 42.6 42.6 0 0 1-7.97-2.135 2.82 2.82 0 0 0-2.97.635l-4.774 4.728a51 51 0 0 1-5.161-2.98l1.707-6.498a2.82 2.82 0 0 0-.934-2.89 42.7 42.7 0 0 1-5.835-5.835 2.82 2.82 0 0 0-2.89-.935l-6.497 1.708a51 51 0 0 1-2.98-5.161l4.727-4.775a2.82 2.82 0 0 0 .636-2.97 42.7 42.7 0 0 1-2.136-7.971 2.82 2.82 0 0 0-2.035-2.254l-6.481-1.77a51 51 0 0 1 0-5.96l6.481-1.771a2.82 2.82 0 0 0 2.035-2.254 42.7 42.7 0 0 1 2.136-7.971 2.82 2.82 0 0 0-.636-2.97l-4.727-4.774a51 51 0 0 1 2.979-5.161c.001-.001 6.498 1.707 6.498 1.707a2.82 2.82 0 0 0 2.89-.935 42.7 42.7 0 0 1 5.835-5.835 2.82 2.82 0 0 0 .934-2.89l-1.707-6.498a51 51 0 0 1 5.161-2.98z" clip-rule="evenodd"/><path fill="#fff" fill-rule="evenodd" d="M371 205a3.001 3.001 0 0 1 0-6 3.001 3.001 0 0 1 0 6m-38.5-10.402a3.001 3.001 0 0 1 3-5.196 3.001 3.001 0 0 1-3 5.196m77 0a3.001 3.001 0 0 1-3-5.196 3.001 3.001 0 0 1 3 5.196M305.335 166.5c-.69-1.434-.28-3.27.915-4.098s2.725-.336 3.415 1.098.28 3.27-.915 4.098-2.725.336-3.415-1.098m131.33 0c-.69 1.434-2.22 1.926-3.415 1.098s-1.605-2.664-.915-4.098 2.22-1.926 3.415-1.098 1.605 2.664.915 4.098" clip-rule="evenodd"/><path fill="#000" fill-rule="evenodd" d="M371 89c-21.525 0-39 17.475-39 39s17.475 39 39 39 39-17.475 39-39-17.475-39-39-39" clip-rule="evenodd"/><path fill="#5B5C6C" fill-rule="evenodd" d="M371 95c18.765 0 34 15.011 34 33.5S389.765 162 371 162s-34-15.011-34-33.5S352.235 95 371 95" clip-rule="evenodd"/><path fill="#fff" fill-rule="evenodd" d="M447 128c0 1.656-1.12 3-2.5 3s-2.5-1.344-2.5-3 1.12-3 2.5-3 2.5 1.344 2.5 3m-152 0c0-1.656 1.12-3 2.5-3s2.5 1.344 2.5 3-1.12 3-2.5 3-2.5-1.344-2.5-3m10.335-37.75a2.501 2.501 0 0 1 4.33 2.5 2.501 2.501 0 0 1-4.33-2.5m131.33 0a2.5 2.5 0 0 1-4.33 2.5 2.5 2.5 0 0 1 4.33-2.5M409.5 62.335c1.434.69 1.926 2.22 1.098 3.415s-2.664 1.605-4.098.915-1.926-2.22-1.098-3.415 2.664-1.605 4.098-.915m-77 0c1.434-.69 3.27-.28 4.098.915s.336 2.725-1.098 3.415-3.27.28-4.098-.915-.336-2.725 1.098-3.415M371 52c1.656 0 3 1.12 3 2.5s-1.344 2.5-3 2.5-3-1.12-3-2.5 1.344-2.5 3-2.5" clip-rule="evenodd"/><path fill="#4A4B58" fill-rule="evenodd" d="M354.292 99c6.43 15.396 18.811 36.421 41.708 51.442-6.168 7.081-15.25 11.558-25.369 11.558C352.069 162 337 146.937 337 128.384c0-12.628 6.98-23.638 17.292-29.384" clip-rule="evenodd"/><path fill="#D08B05" fill-rule="evenodd" d="M378.427 105.895V100h-5.651v5.254h-4.239V100h-5.65v5.254h-8.401v5.6h3.695v14.818H354v5.6h4.181v14.818h-3.695v5.6h10.215V156h5.651v-4.31h3.836V156h5.651v-4.417c6.274-.82 11.161-6.268 11.161-12.902 0-5.109-2.898-9.515-7.097-11.644a13.06 13.06 0 0 0 3.355-8.774c0-5.786-3.718-10.67-8.831-12.368m-14.595 25.377v14.818h14.363c3.973 0 7.154-3.344 7.154-7.409s-3.181-7.409-7.154-7.409zm10.62-5.6c3.974 0 7.155-3.344 7.155-7.409s-3.181-7.409-7.155-7.409h-10.62v14.818z" clip-rule="evenodd"/><path fill="#C17C04" fill-rule="evenodd" d="M357.879 105a123 123 0 0 0 5.806 10.728v9.792h6.654a111 111 0 0 0 4.561 5.628h-11.215v14.892h14.147c3.139 0 5.776-2.161 6.696-5.125a103 103 0 0 0 4.472 3.758c-1.876 3.692-5.405 6.335-9.548 6.888V156h-5.567v-4.332h-3.778V156h-5.566v-4.332h-10.062v-5.628h3.64v-14.892H354v-5.628h4.119v-14.892h-3.64V105z" clip-rule="evenodd"/></g><defs><clipPath id="a"><path fill="#fff" d="M0 0h742v256H0z"/></clipPath></defs></svg>