<svg xmlns="http://www.w3.org/2000/svg" width="742" height="256" fill="none"><g clip-path="url(#a)"><path fill="#fff" d="M0 0h742v256H0z"/><path fill="#1950AC" d="M0 0h742v256H0z"/><path fill="#fff" d="m122.828 145.353-1.783.087-.13 2.567-4.567.304-.348 6.308 4.61-.305-.13 2.61 1.783-.13.13-2.567 4.785-.304.261-6.308-4.741.305zm24.965-20.881-1.739.087-.087 2.437-4.393.261-.826 25.796 4.523-.261-.044 2.566 1.784-.087.043-2.61 4.697-.261.566-25.752-4.611.261zm23.617 23.056-1.74.087v2.567l-4.479.261-.174 18.009 4.566-.304-.043 2.653 1.827-.13v-2.654l4.697-.304V149.79l-4.654.261zm23.921-6.395-1.739.087.043 2.523-4.393.261.435 33.496 4.524-.304.043 2.697 1.783-.131-.043-2.697 4.697-.304-.739-33.409-4.567.261zm24.009 8.962-1.74.13.13 2.523-4.392.261.521 15.661 4.437-.305.13 2.61 1.74-.13-.087-2.61 4.61-.305-.696-15.573-4.566.261zm22.92-11.659-1.696.087.131 2.48-4.306.261 1.087 19.053 4.393-.261.13 2.567 1.74-.131-.174-2.566 4.524-.305-1.218-19.01-4.48.261zm23.139-.261-1.696.087.217 2.48-4.262.261.348 4.611 4.305-.261.174 2.48 1.697-.131-.218-2.479 4.436-.262-.391-4.611-4.436.261zm21.616-12.702-1.653.087.261 2.393-4.175.261 3.305 33.582 4.306-.304.261 2.567 1.653-.131-.261-2.523 4.48-.305-3.61-33.495-4.306.261zm19.963-19.924-1.566.087.261 2.306-4.044.217 4.131 34.584 4.176-.261.304 2.436 1.653-.087-.305-2.436 4.306-.305-4.393-34.453-4.218.218zm24.4 17.357-1.609.087.347 2.349-4.088.261 4.219 29.929 4.175-.261.348 2.48 1.653-.131-.391-2.479 4.349-.305-4.436-29.798-4.219.217zm23.921 11.746-1.566.087.392 2.392-4.089.261 7.046 43.806 4.219-.348.435 2.61 1.653-.13-.435-2.567 4.393-.348-7.394-43.632-4.263.261zm17.441-24.926-1.566.087.435 2.262-3.958.217 3.436 18.923 4.001-.217.435 2.349 1.566-.087-.435-2.349 4.175-.261-3.61-18.88-4.088.218zm21.268-.305-1.522.087.478 2.262-3.914.218 3.784 18.749 3.957-.218.479 2.349 1.566-.13-.479-2.349 4.089-.218-3.915-18.705-4.045.217zm25.269 18.184-1.522.087.522 2.305-3.914.261 7.828 35.497 4.045-.304.566 2.479 1.565-.087-.565-2.523 4.219-.261-8.133-35.366-4.089.217zm16.354-20.185-1.479.087.522 2.262-3.784.174 5.915 24.622 3.871-.261.609 2.349 1.522-.087-.609-2.349 4.045-.261-6.089-24.491-3.958.217zm24.008 12.354-1.479.087.609 2.306-3.827.217 6.698 25.753 3.914-.261.652 2.393 1.523-.087-.653-2.393 4.045-.304-6.915-25.666-3.958.261zm21.877 3.785-1.479.087.653 2.305-3.784.218 1.609 5.786 3.827-.261.653 2.305 1.478-.087-.652-2.305 3.958-.261-1.653-5.743-3.958.261zm23.269 8.483-1.479.13.696 2.306-3.784.217 5.219 17.357 3.827-.261.696 2.393 1.523-.131-.74-2.392 4.002-.261-5.307-17.27-3.957.217zm23.703 9.439-1.478.087.783 2.349-3.784.261 9.09 28.581 3.871-.305.782 2.48 1.523-.131-.783-2.436 4.001-.304-9.307-28.537-3.915.261zm17.615-8.961-1.435.087.783 2.262-3.741.261 7.351 21.707 3.74-.304.826 2.392 1.479-.087-.826-2.392 3.914-.261-7.481-21.62-3.827.217zm12.135-22.707-1.436.087.783 2.175-3.566.217 5.48 15.443 3.653-.261.827 2.262 1.392-.087-.783-2.262 3.784-.217-5.611-15.4-3.74.218zm11.569-21.446-1.348.087.782 2.088-3.522.174 8.568 22.794 3.566-.217.826 2.175 1.392-.087-.826-2.175 3.697-.218-8.699-22.707-3.653.173zm21.094 4.785-1.392.087.827 2.088-3.48.217 8.873 22.534 3.566-.218.87 2.219 1.392-.087-.87-2.175 3.653-.261-9.003-22.49-3.61.217zm28.836 23.49-1.392.087.914 2.175-3.523.218 1.696 4.132 3.523-.217.913 2.218 1.392-.087-.913-2.218 3.653-.261-1.696-4.089-3.654.217z" opacity=".11"/><path fill="#fff" fill-rule="evenodd" d="m181.805 199.904-1.479 2.827 75.591-29.929 62.369 21.055 56.063-85.132 72.633 92.701L549.67 82.711l7.306 7.265 2.132-27.71-25.139 8.439 7.35 5.307-93.554 107.709-73.416-87.872-58.368 90.7-60.499-17.531z" clip-rule="evenodd" opacity=".19"/><path fill="#29368F" d="M302.846 171.41c0 4.046 21.834 7.265 48.756 7.265s48.756-3.263 48.756-7.265v-11.136h-97.512z"/><path fill="#3A66AF" d="M351.602 153.009c-26.922 0-48.756 3.263-48.756 7.265s21.834 7.265 48.756 7.265 48.756-3.263 48.756-7.265-21.834-7.265-48.756-7.265"/><path fill="#29368F" d="M312.197 153.531c0 4.046 21.834 7.265 48.756 7.265s48.756-3.263 48.756-7.265v-11.136h-97.512z"/><path fill="#3A66AF" d="M360.953 135.13c-26.922 0-48.756 3.263-48.756 7.265s21.834 7.265 48.756 7.265 48.756-3.263 48.756-7.265-21.834-7.265-48.756-7.265"/><path fill="#3555A5" d="M318.721 142.395c6.307 1.74 20.486 3.741 42.232 3.741 21.747 0 35.969-2.001 42.232-3.741-6.307-1.74-20.485-3.741-42.232-3.741-21.79 0-35.969 2.001-42.232 3.741"/><path fill="#29368F" d="M292.886 135.13c0 4.002 21.834 7.265 48.756 7.265s48.756-3.263 48.756-7.265v-11.136h-97.512z"/><path fill="#3555A5" d="M341.642 116.729c-26.922 0-48.756 3.263-48.756 7.265s21.834 7.265 48.756 7.265 48.756-3.263 48.756-7.265-21.834-7.265-48.756-7.265"/><path fill="#334A9E" d="M305.76 118.382c0 4.002 21.834 7.265 48.756 7.265s48.756-3.263 48.756-7.265v-11.136H305.76z"/><path fill="#3A66AF" d="M354.516 99.981c-26.922 0-48.756 3.263-48.756 7.265 0 4.046 21.834 7.265 48.756 7.265s48.756-3.263 48.756-7.265-21.834-7.265-48.756-7.265"/><path fill="#3555A5" d="M312.241 107.246c6.263 1.74 20.485 3.741 42.275 3.741s35.969-2.001 42.232-3.741c-6.263-1.74-20.485-3.741-42.232-3.741-21.79 0-35.969 2.001-42.275 3.741"/><path fill="#4069B1" d="M322.549 181.851c26.831 0 48.581-21.755 48.581-48.591s-21.75-48.591-48.581-48.591-48.582 21.755-48.582 48.591 21.751 48.591 48.582 48.591"/><path fill="#334A9E" d="M322.549 182.59c26.831 0 48.581-21.755 48.581-48.591s-21.75-48.59-48.581-48.59-48.582 21.754-48.582 48.59 21.751 48.591 48.582 48.591"/><path fill="#29368F" d="m327.376 85.626 43.537 43.545c-.174-1.827-.478-3.611-.826-5.351l-37.361-37.368a46 46 0 0 0-5.35-.826m-26.791 5.003c-14.223 7.22-24.4 21.185-26.314 37.715 14.614 14.616 34.055 34.018 53.932 53.898 16.527-1.914 30.488-12.093 37.708-26.318zm68.675 56.856a48.3 48.3 0 0 0 1.827-10.702l-51.322-51.331a48.3 48.3 0 0 0-10.699 1.827z"/><path stroke="#6FCBDC" stroke-miterlimit="10" stroke-width=".25" d="M322.549 179.023c24.861 0 45.015-20.158 45.015-45.024s-20.154-45.023-45.015-45.023-45.016 20.157-45.016 45.023 20.154 45.024 45.016 45.024Z"/><path fill="#3A66AF" d="M322.549 174.716c22.483 0 40.709-18.229 40.709-40.717 0-22.487-18.226-40.717-40.709-40.717s-40.71 18.23-40.71 40.717c0 22.488 18.226 40.717 40.71 40.717"/><path fill="#488DCB" d="M322.549 93.804c22.399 0 40.535 18.097 40.709 40.456v-.261c0-22.49-18.223-40.717-40.709-40.717s-40.71 18.227-40.71 40.717v.261c.174-22.403 18.311-40.456 40.71-40.456"/><path fill="#fff" d="M344.991 127.648c1.044-7.047-4.262-10.832-11.482-13.355l2.349-9.57-5.742-1.436-2.305 9.31c-1.522-.392-3.044-.74-4.61-1.088l2.305-9.353-5.741-1.435-2.348 9.527-11.57-2.915-1.522 6.221s4.262 1 4.175 1.044c2.306.609 2.74 2.131 2.653 3.393l-6.436 26.144c-.305.696-1.001 1.784-2.61 1.392.043.087-4.175-1.044-4.175-1.044l-2.827 6.656 11.569 2.958-2.392 9.657 5.741 1.436 2.348-9.571c1.566.435 3.088.827 4.567 1.218l-2.349 9.527 5.742 1.436 2.392-9.658c9.786 1.871 17.136 1.131 20.224-7.83 2.479-7.221-.131-11.397-5.263-14.094 3.697-.87 6.524-3.393 7.307-8.57m-13.135 18.662c-1.783 7.221-13.744 3.306-17.658 2.349l3.132-12.789c3.914.957 16.396 2.871 14.526 10.44m1.783-18.749c-1.609 6.569-11.612 3.219-14.831 2.393l2.871-11.615c3.218.826 13.657 2.392 11.96 9.222"/><path fill="#4069B1" d="M439.023 135.609c16.046 0 29.054-13.01 29.054-29.059s-13.008-29.059-29.054-29.059-29.053 13.01-29.053 29.059 13.007 29.059 29.053 29.059"/><path fill="#334A9E" d="M439.023 136.044c16.046 0 29.054-13.01 29.054-29.059s-13.008-29.059-29.054-29.059-29.053 13.01-29.053 29.059 13.007 29.059 29.053 29.059"/><path fill="#29368F" d="M425.888 81.058c-8.481 4.307-14.57 12.66-15.744 22.534l32.228 32.234c9.873-1.131 18.224-7.221 22.53-15.704z"/><path stroke="#6FCBDC" stroke-miterlimit="10" stroke-width=".25" d="M439.023 133.912c14.869 0 26.922-12.056 26.922-26.927s-12.053-26.927-26.922-26.927-26.922 12.055-26.922 26.927 12.053 26.927 26.922 26.927Z"/><path fill="#3A66AF" d="M439.023 131.302c13.428 0 24.313-10.887 24.313-24.317s-10.885-24.317-24.313-24.317-24.312 10.887-24.312 24.317 10.885 24.317 24.312 24.317"/><path fill="#fff" d="m433.108 104.984 6.524-6.525 6.524 6.525 3.784-3.785-10.308-10.31-10.308 10.31zm-10.264 2.653 3.784-3.784 3.784 3.784-3.784 3.785zm10.264 2.698 6.524 6.525 6.524-6.525 3.784 3.784-10.308 10.31-10.308-10.31zm15.701-2.698 3.784-3.784 3.784 3.784-3.784 3.785z"/><path fill="#fff" d="m443.459 107.637-3.827-3.828-2.827 2.828-.348.348-.652.652 3.827 3.829z"/><path fill="#4069B1" d="M376.785 96.936c12.13 0 21.964-9.835 21.964-21.968S388.915 53 376.785 53c-12.131 0-21.964 9.835-21.964 21.968s9.833 21.968 21.964 21.968"/><path fill="#334A9E" d="M376.48 97.023c12.131 0 21.964-9.835 21.964-21.968s-9.833-21.968-21.964-21.968-21.964 9.835-21.964 21.968 9.834 21.968 21.964 21.968"/><path fill="#29368F" d="M393.442 61.135c-4.566-5.568-11.743-8.7-19.18-7.961-5.002 7.874-11.7 18.314-18.528 29.015 2.436 7.091 8.307 12.268 15.266 14.095z"/><path stroke="#6FCBDC" stroke-miterlimit="10" stroke-width=".25" d="M376.48 95.414c11.242 0 20.355-9.115 20.355-20.359s-9.113-20.359-20.355-20.359-20.355 9.115-20.355 20.36c0 11.243 9.113 20.358 20.355 20.358Z"/><path fill="#3A66AF" d="M376.48 93.456c10.161 0 18.398-8.238 18.398-18.4 0-10.163-8.237-18.402-18.398-18.402s-18.397 8.238-18.397 18.401 8.236 18.401 18.397 18.401"/><path fill="#fff" d="M369.739 73.88v.088l7.046-3.829v-6.612zm7.046-10.353v6.612l7.045 3.742zm-7.046 12.659V76.1l7.046 3.828v6.612zm7.046 10.354v-6.613l7.045-3.74zm0-15.27-6.916 3.611 6.916.696z"/><path fill="#fff" d="m369.869 74.881-.13.087 7.046 3.785v-3.176z"/><path fill="#fff" d="M383.7 74.968h.043l-6.958-3.698v4.307z"/><path fill="#fff" d="M376.785 75.577v3.176l6.915-3.785z"/></g><defs><clipPath id="a"><path fill="#fff" d="M0 0h742v256H0z"/></clipPath></defs></svg>