<svg width="742" height="256" viewBox="0 0 742 256" fill="none" xmlns="http://www.w3.org/2000/svg">
<g clip-path="url(#clip0_1_8)">
<rect width="742" height="256" fill="white"/>
<rect width="742" height="256" fill="#1950AC"/>
<g opacity="0.11">
<path d="M122.828 145.353L121.045 145.44L120.915 148.007L116.348 148.311L116 154.619L120.61 154.314L120.48 156.924L122.263 156.794L122.393 154.227L127.178 153.923L127.439 147.615L122.698 147.92L122.828 145.353Z" fill="white"/>
<path d="M147.793 124.472L146.054 124.559L145.967 126.996L141.574 127.257L140.748 153.053L145.271 152.792L145.227 155.358L147.011 155.271L147.054 152.661L151.751 152.4L152.317 126.648L147.706 126.909L147.793 124.472Z" fill="white"/>
<path d="M171.41 147.528L169.67 147.615V150.182L165.191 150.443L165.017 168.452L169.583 168.148L169.54 170.801L171.367 170.671V168.017L176.064 167.713V149.79L171.41 150.051V147.528Z" fill="white"/>
<path d="M195.331 141.133L193.592 141.22L193.635 143.743L189.242 144.004L189.677 177.5L194.201 177.196L194.244 179.893L196.027 179.762L195.984 177.065L200.681 176.761L199.942 143.352L195.375 143.613L195.331 141.133Z" fill="white"/>
<path d="M219.34 150.095L217.6 150.225L217.73 152.748L213.338 153.009L213.859 168.67L218.296 168.365L218.426 170.975L220.166 170.845L220.079 168.235L224.689 167.93L223.993 152.357L219.427 152.618L219.34 150.095Z" fill="white"/>
<path d="M242.26 138.436L240.564 138.523L240.695 141.003L236.389 141.264L237.476 160.317L241.869 160.056L241.999 162.623L243.739 162.492L243.565 159.926L248.089 159.621L246.871 140.611L242.391 140.872L242.26 138.436Z" fill="white"/>
<path d="M265.399 138.175L263.703 138.262L263.92 140.742L259.658 141.003L260.006 145.614L264.311 145.353L264.485 147.833L266.182 147.702L265.964 145.223L270.4 144.961L270.009 140.35L265.573 140.611L265.399 138.175Z" fill="white"/>
<path d="M287.015 125.473L285.362 125.56L285.623 127.953L281.448 128.214L284.753 161.796L289.059 161.492L289.32 164.059L290.973 163.928L290.712 161.405L295.192 161.1L291.582 127.605L287.276 127.866L287.015 125.473Z" fill="white"/>
<path d="M306.978 105.549L305.412 105.636L305.673 107.942L301.629 108.159L305.76 142.743L309.936 142.482L310.24 144.918L311.893 144.831L311.588 142.395L315.894 142.09L311.501 107.637L307.283 107.855L306.978 105.549Z" fill="white"/>
<path d="M331.378 122.906L329.769 122.993L330.116 125.342L326.028 125.603L330.247 155.532L334.422 155.271L334.77 157.751L336.423 157.62L336.032 155.141L340.381 154.836L335.945 125.038L331.726 125.255L331.378 122.906Z" fill="white"/>
<path d="M355.299 134.652L353.733 134.739L354.125 137.131L350.036 137.392L357.082 181.198L361.301 180.85L361.736 183.46L363.389 183.33L362.954 180.763L367.347 180.415L359.953 136.783L355.69 137.044L355.299 134.652Z" fill="white"/>
<path d="M372.74 109.726L371.174 109.813L371.609 112.075L367.651 112.292L371.087 131.215L375.088 130.998L375.523 133.347L377.089 133.26L376.654 130.911L380.829 130.65L377.219 111.77L373.131 111.988L372.74 109.726Z" fill="white"/>
<path d="M394.008 109.421L392.486 109.508L392.964 111.77L389.05 111.988L392.834 130.737L396.791 130.519L397.27 132.868L398.836 132.738L398.357 130.389L402.446 130.171L398.531 111.466L394.486 111.683L394.008 109.421Z" fill="white"/>
<path d="M419.277 127.605L417.755 127.692L418.277 129.997L414.363 130.258L422.191 165.755L426.236 165.451L426.802 167.93L428.367 167.843L427.802 165.32L432.021 165.059L423.888 129.693L419.799 129.91L419.277 127.605Z" fill="white"/>
<path d="M435.631 107.42L434.152 107.507L434.674 109.769L430.89 109.943L436.805 134.565L440.676 134.304L441.285 136.653L442.807 136.566L442.198 134.217L446.243 133.956L440.154 109.465L436.196 109.682L435.631 107.42Z" fill="white"/>
<path d="M459.639 119.774L458.16 119.861L458.769 122.167L454.942 122.384L461.64 148.137L465.554 147.876L466.206 150.269L467.729 150.182L467.076 147.789L471.121 147.485L464.206 121.819L460.248 122.08L459.639 119.774Z" fill="white"/>
<path d="M481.516 123.559L480.037 123.646L480.69 125.951L476.906 126.169L478.515 131.955L482.342 131.694L482.995 133.999L484.473 133.912L483.821 131.607L487.779 131.346L486.126 125.603L482.168 125.864L481.516 123.559Z" fill="white"/>
<path d="M504.785 132.042L503.306 132.172L504.002 134.478L500.218 134.695L505.437 152.052L509.264 151.791L509.96 154.184L511.483 154.053L510.743 151.661L514.745 151.4L509.438 134.13L505.481 134.347L504.785 132.042Z" fill="white"/>
<path d="M528.488 141.481L527.01 141.568L527.793 143.917L524.009 144.178L533.099 172.759L536.97 172.454L537.752 174.934L539.275 174.803L538.492 172.367L542.493 172.063L533.186 143.526L529.271 143.787L528.488 141.481Z" fill="white"/>
<path d="M546.103 132.52L544.668 132.607L545.451 134.869L541.71 135.13L549.061 156.837L552.801 156.533L553.627 158.925L555.106 158.838L554.28 156.446L558.194 156.185L550.713 134.565L546.886 134.782L546.103 132.52Z" fill="white"/>
<path d="M558.238 109.813L556.802 109.9L557.585 112.075L554.019 112.292L559.499 127.735L563.152 127.474L563.979 129.736L565.371 129.649L564.588 127.387L568.372 127.17L562.761 111.77L559.021 111.988L558.238 109.813Z" fill="white"/>
<path d="M569.807 88.3665L568.459 88.4535L569.241 90.5415L565.719 90.7155L574.287 113.51L577.853 113.293L578.679 115.468L580.071 115.381L579.245 113.206L582.942 112.988L574.243 90.2805L570.59 90.4545L569.807 88.3665Z" fill="white"/>
<path d="M590.901 93.1516L589.509 93.2386L590.336 95.3266L586.856 95.5441L595.729 118.078L599.295 117.86L600.165 120.079L601.557 119.992L600.687 117.817L604.34 117.556L595.337 95.0656L591.727 95.2831L590.901 93.1516Z" fill="white"/>
<path d="M619.737 116.642L618.345 116.729L619.259 118.904L615.736 119.122L617.432 123.254L620.955 123.037L621.868 125.255L623.26 125.168L622.347 122.95L626 122.689L624.304 118.6L620.65 118.817L619.737 116.642Z" fill="white"/>
</g>
<path opacity="0.19" fill-rule="evenodd" clip-rule="evenodd" d="M181.805 199.904L180.326 202.731L255.917 172.802L318.286 193.857L374.349 108.725L446.982 201.426L549.67 82.7113L556.976 89.976L559.108 62.2657L533.969 70.705L541.319 76.0121L447.765 183.721L374.349 95.8487L315.981 186.549L255.482 169.018L181.805 199.904Z" fill="white"/>
<path d="M302.846 171.41C302.846 175.456 324.68 178.675 351.602 178.675C378.524 178.675 400.358 175.412 400.358 171.41V160.274H302.846V171.41Z" fill="#29368F"/>
<path d="M351.602 153.009C324.68 153.009 302.846 156.272 302.846 160.274C302.846 164.276 324.68 167.539 351.602 167.539C378.524 167.539 400.358 164.276 400.358 160.274C400.358 156.272 378.524 153.009 351.602 153.009Z" fill="#3A66AF"/>
<path d="M312.197 153.531C312.197 157.577 334.031 160.796 360.953 160.796C387.875 160.796 409.709 157.533 409.709 153.531V142.395H312.197V153.531Z" fill="#29368F"/>
<path d="M360.953 135.13C334.031 135.13 312.197 138.393 312.197 142.395C312.197 146.397 334.031 149.66 360.953 149.66C387.875 149.66 409.709 146.397 409.709 142.395C409.709 138.393 387.875 135.13 360.953 135.13Z" fill="#3A66AF"/>
<path d="M318.721 142.395C325.028 144.135 339.207 146.136 360.953 146.136C382.7 146.136 396.922 144.135 403.185 142.395C396.878 140.655 382.7 138.654 360.953 138.654C339.163 138.654 324.984 140.655 318.721 142.395Z" fill="#3555A5"/>
<path d="M292.886 135.13C292.886 139.132 314.72 142.395 341.642 142.395C368.564 142.395 390.398 139.132 390.398 135.13V123.994H292.886V135.13Z" fill="#29368F"/>
<path d="M341.642 116.729C314.72 116.729 292.886 119.992 292.886 123.994C292.886 127.996 314.72 131.259 341.642 131.259C368.564 131.259 390.398 127.996 390.398 123.994C390.398 119.992 368.564 116.729 341.642 116.729Z" fill="#3555A5"/>
<path d="M305.76 118.382C305.76 122.384 327.594 125.647 354.516 125.647C381.438 125.647 403.272 122.384 403.272 118.382V107.246H305.76V118.382Z" fill="#334A9E"/>
<path d="M354.516 99.9813C327.594 99.9813 305.76 103.244 305.76 107.246C305.76 111.292 327.594 114.511 354.516 114.511C381.438 114.511 403.272 111.248 403.272 107.246C403.272 103.244 381.438 99.9813 354.516 99.9813Z" fill="#3A66AF"/>
<path d="M312.241 107.246C318.504 108.986 332.726 110.987 354.516 110.987C376.306 110.987 390.485 108.986 396.748 107.246C390.485 105.506 376.263 103.505 354.516 103.505C332.726 103.505 318.547 105.506 312.241 107.246Z" fill="#3555A5"/>
<path d="M322.549 181.851C349.38 181.851 371.13 160.096 371.13 133.26C371.13 106.424 349.38 84.6689 322.549 84.6689C295.718 84.6689 273.967 106.424 273.967 133.26C273.967 160.096 295.718 181.851 322.549 181.851Z" fill="#4069B1"/>
<path d="M322.549 182.59C349.38 182.59 371.13 160.835 371.13 133.999C371.13 107.163 349.38 85.4084 322.549 85.4084C295.718 85.4084 273.967 107.163 273.967 133.999C273.967 160.835 295.718 182.59 322.549 182.59Z" fill="#334A9E"/>
<path d="M327.376 85.6259L370.913 129.171C370.739 127.344 370.435 125.56 370.087 123.82L332.726 86.4524C330.943 86.0609 329.16 85.7999 327.376 85.6259Z" fill="#29368F"/>
<path d="M300.585 90.6285C286.362 97.8497 276.185 111.814 274.271 128.344C288.885 142.96 308.326 162.362 328.203 182.242C344.73 180.328 358.691 170.149 365.911 155.924L300.585 90.6285Z" fill="#29368F"/>
<path d="M369.26 147.485C370.261 144.048 370.87 140.481 371.087 136.783L319.765 85.4519C316.068 85.6694 312.502 86.2784 309.066 87.2789L369.26 147.485Z" fill="#29368F"/>
<path d="M322.549 179.023C347.41 179.023 367.564 158.865 367.564 133.999C367.564 109.133 347.41 88.9755 322.549 88.9755C297.687 88.9755 277.533 109.133 277.533 133.999C277.533 158.865 297.687 179.023 322.549 179.023Z" stroke="#6FCBDC" stroke-width="0.25" stroke-miterlimit="10"/>
<path d="M322.549 174.716C345.032 174.716 363.258 156.487 363.258 133.999C363.258 111.512 345.032 93.2821 322.549 93.2821C300.065 93.2821 281.839 111.512 281.839 133.999C281.839 156.487 300.065 174.716 322.549 174.716Z" fill="#3A66AF"/>
<path d="M322.549 93.8041C344.948 93.8041 363.084 111.901 363.258 134.26C363.258 134.173 363.258 134.086 363.258 133.999C363.258 111.509 345.035 93.2821 322.549 93.2821C300.063 93.2821 281.839 111.509 281.839 133.999C281.839 134.086 281.839 134.173 281.839 134.26C282.013 111.857 300.15 93.8041 322.549 93.8041Z" fill="#488DCB"/>
<path d="M344.991 127.648C346.035 120.601 340.729 116.816 333.509 114.293L335.858 104.723L330.116 103.287L327.811 112.597C326.289 112.205 324.767 111.857 323.201 111.509L325.506 102.156L319.765 100.721L317.417 110.248L305.847 107.333L304.325 113.554C304.325 113.554 308.587 114.554 308.5 114.598C310.806 115.207 311.24 116.729 311.153 117.991L304.717 144.135C304.412 144.831 303.716 145.919 302.107 145.527C302.15 145.614 297.932 144.483 297.932 144.483L295.105 151.139L306.674 154.097L304.282 163.754L310.023 165.19L312.371 155.619C313.937 156.054 315.459 156.446 316.938 156.837L314.589 166.364L320.331 167.8L322.723 158.142C332.509 160.013 339.859 159.273 342.947 150.312C345.426 143.091 342.816 138.915 337.684 136.218C341.381 135.348 344.208 132.825 344.991 127.648ZM331.856 146.31C330.073 153.531 318.112 149.616 314.198 148.659L317.33 135.87C321.244 136.827 333.726 138.741 331.856 146.31ZM333.639 127.561C332.03 134.13 322.027 130.78 318.808 129.954L321.679 118.339C324.897 119.165 335.336 120.731 333.639 127.561Z" fill="white"/>
<path d="M439.023 135.609C455.069 135.609 468.077 122.599 468.077 106.55C468.077 90.5012 455.069 77.4911 439.023 77.4911C422.977 77.4911 409.97 90.5012 409.97 106.55C409.97 122.599 422.977 135.609 439.023 135.609Z" fill="#4069B1"/>
<path d="M439.023 136.044C455.069 136.044 468.077 123.034 468.077 106.985C468.077 90.9362 455.069 77.9262 439.023 77.9262C422.977 77.9262 409.97 90.9362 409.97 106.985C409.97 123.034 422.977 136.044 439.023 136.044Z" fill="#334A9E"/>
<path d="M425.888 81.0582C417.407 85.3649 411.318 93.7171 410.144 103.592C418.886 112.336 430.499 123.95 442.372 135.826C452.245 134.695 460.596 128.605 464.902 120.122L425.888 81.0582Z" fill="#29368F"/>
<path d="M439.023 133.912C453.892 133.912 465.945 121.856 465.945 106.985C465.945 92.1135 453.892 80.0577 439.023 80.0577C424.154 80.0577 412.101 92.1135 412.101 106.985C412.101 121.856 424.154 133.912 439.023 133.912Z" stroke="#6FCBDC" stroke-width="0.25" stroke-miterlimit="10"/>
<path d="M439.023 131.302C452.451 131.302 463.336 120.415 463.336 106.985C463.336 93.555 452.451 82.6678 439.023 82.6678C425.596 82.6678 414.711 93.555 414.711 106.985C414.711 120.415 425.596 131.302 439.023 131.302Z" fill="#3A66AF"/>
<path d="M433.108 104.984L439.632 98.4587L446.156 104.984L449.94 101.199L439.632 90.8895L429.324 101.199L433.108 104.984ZM422.844 107.637L426.628 103.853L430.412 107.637L426.628 111.422L422.844 107.637ZM433.108 110.335L439.632 116.86L446.156 110.335L449.94 114.119L439.632 124.429L429.324 114.119L433.108 110.335ZM448.809 107.637L452.593 103.853L456.377 107.637L452.593 111.422L448.809 107.637Z" fill="white"/>
<path d="M443.459 107.637L439.632 103.809L436.805 106.637L436.457 106.985L435.805 107.637L439.632 111.466L443.459 107.637Z" fill="white"/>
<path d="M376.785 96.9362C388.915 96.9362 398.749 87.1007 398.749 74.9681C398.749 62.8354 388.915 53 376.785 53C364.654 53 354.821 62.8354 354.821 74.9681C354.821 87.1007 364.654 96.9362 376.785 96.9362Z" fill="#4069B1"/>
<path d="M376.48 97.0232C388.611 97.0232 398.444 87.1878 398.444 75.0551C398.444 62.9225 388.611 53.087 376.48 53.087C364.35 53.087 354.516 62.9225 354.516 75.0551C354.516 87.1878 364.35 97.0232 376.48 97.0232Z" fill="#334A9E"/>
<path d="M393.442 61.1347C388.876 55.5666 381.699 52.4345 374.262 53.174C369.26 61.0477 362.562 71.488 355.734 82.1893C358.17 89.28 364.041 94.4566 371 96.2837L393.442 61.1347Z" fill="#29368F"/>
<path d="M376.48 95.4137C387.722 95.4137 396.835 86.2988 396.835 75.0551C396.835 63.8114 387.722 54.6965 376.48 54.6965C365.238 54.6965 356.125 63.8114 356.125 75.0551C356.125 86.2988 365.238 95.4137 376.48 95.4137Z" stroke="#6FCBDC" stroke-width="0.25" stroke-miterlimit="10"/>
<path d="M376.48 93.4561C386.641 93.4561 394.878 85.2177 394.878 75.0551C394.878 64.8925 386.641 56.6541 376.48 56.6541C366.319 56.6541 358.083 64.8925 358.083 75.0551C358.083 85.2177 366.319 93.4561 376.48 93.4561Z" fill="#3A66AF"/>
<path d="M369.739 73.8806V73.9676L376.785 70.1395V63.5273L369.739 73.8806Z" fill="white"/>
<path d="M376.785 63.5273V70.1395L383.83 73.8806L376.785 63.5273Z" fill="white"/>
<path d="M369.739 76.1861V76.0991L376.785 79.9272V86.5394L369.739 76.1861Z" fill="white"/>
<path d="M376.785 86.5394V79.9272L383.83 76.1861L376.785 86.5394Z" fill="white"/>
<path d="M376.785 71.2705L369.869 74.8811L376.785 75.5771V71.2705Z" fill="white"/>
<path d="M369.869 74.8811L369.739 74.9681L376.785 78.7527V75.5771L369.869 74.8811Z" fill="white"/>
<path d="M383.7 74.9681H383.743L376.785 71.2705V75.5771L383.7 74.9681Z" fill="white"/>
<path d="M376.785 75.5771V78.7527L383.7 74.9681L376.785 75.5771Z" fill="white"/>
</g>
<defs>
<clipPath id="clip0_1_8">
<rect width="742" height="256" fill="white"/>
</clipPath>
</defs>
</svg>
