<svg width="960" height="960" viewBox="0 0 960 960" fill="none" xmlns="http://www.w3.org/2000/svg">
<path d="M960 960H0V0H960V960Z" fill="#005066"/>
<mask id="mask0_186_14" style="mask-type:alpha" maskUnits="userSpaceOnUse" x="0" y="0" width="960" height="960">
<path d="M0.5 959.5H959.5V0.5H0.5V959.5Z" fill="#6231E9" stroke="black"/>
</mask>
<g mask="url(#mask0_186_14)">
<g filter="url(#filter0_f_186_14)">
<ellipse cx="667.508" cy="364.082" rx="667.508" ry="364.082" transform="matrix(-0.604174 -0.482463 0.267369 -1.16555 717.169 452.097)" fill="#00303E"/>
<path d="M8.23291 -616.113C35.042 -732.983 104.366 -802.963 194.912 -821.467C285.445 -839.968 397.108 -806.979 508.433 -718.08C619.758 -629.181 709.637 -501.229 764.963 -366.254C820.297 -231.257 841.02 -89.3696 814.211 27.4999C787.402 144.369 718.078 214.35 627.532 232.854C536.999 251.354 425.336 218.365 314.011 129.467C202.686 40.5683 112.807 -87.384 57.4811 -222.36C2.14671 -357.356 -18.5762 -499.244 8.23291 -616.113Z" stroke="black"/>
</g>
<mask id="mask1_186_14" style="mask-type:alpha" maskUnits="userSpaceOnUse" x="-420" y="-1044" width="1633" height="2300">
<path d="M-418.645 197.972L-214.388 -1042.79L1211.87 -177.161L999.53 1255.12L-418.645 197.972Z" fill="url(#paint0_linear_186_14)" stroke="black"/>
</mask>
<g mask="url(#mask1_186_14)">
<mask id="mask2_186_14" style="mask-type:alpha" maskUnits="userSpaceOnUse" x="-753" y="-1410" width="2029" height="2512">
<path d="M1274.6 -74.4594C1164.6 430.16 1024.19 1073.81 1020.61 1100.38L-752.447 -234.034L-498.453 -1408.87L1274.6 -74.4594Z" fill="url(#paint1_linear_186_14)" stroke="black"/>
</mask>
<g mask="url(#mask2_186_14)">
<path d="M283.739 192.793C190.429 122.567 111.042 22.9398 57.8992 -72.5708C31.3268 -120.328 11.3266 -167.036 -0.575109 -208.504C-12.4847 -250 -16.2484 -286.116 -10.4834 -312.782C1.10256 -366.372 33.3333 -414.317 87.7384 -430.029C142.142 -445.74 218.689 -429.202 318.808 -353.852C353.461 -327.772 392.609 -308.507 433.389 -288.439C451.043 -279.752 469.002 -270.914 487.035 -261.308C546.746 -229.499 607.308 -189.248 660.428 -118.117C714.482 -45.7361 726.699 21.8934 724.011 78.1177C722.665 106.264 717.582 131.607 712.093 153.326C709.567 163.321 706.957 172.542 704.586 180.918C704.38 181.642 704.177 182.361 703.976 183.072C701.45 192.004 699.234 199.949 697.759 206.775C691.996 233.43 674.98 254.747 649.64 269.481C624.321 284.204 590.78 292.302 552.118 292.647C474.795 293.337 377.046 263.016 283.739 192.793Z" fill="#00303E" stroke="black"/>
<g filter="url(#filter1_f_186_14)">
<path d="M287.845 165.927C87.6171 15.2346 -33.3561 -195.876 -13.3411 -288.454C6.67379 -381.032 108.484 -445.668 308.713 -294.976C407.935 -220.3 542.31 -193.923 650.228 -59.1008C760.085 78.144 705.501 183.873 695.404 230.574C675.389 323.152 488.074 316.62 287.845 165.927Z" fill="#00303E"/>
<path d="M287.97 165.352C187.882 90.0253 107.614 -0.393779 54.8771 -83.5283C28.5071 -125.098 9.0334 -164.826 -2.59632 -199.914C-14.2349 -235.029 -17.973 -265.355 -13.0299 -288.22C-3.08849 -334.203 27.2168 -373.438 80.1382 -382.323C133.05 -391.205 208.503 -369.725 308.588 -294.4C343.576 -268.069 382.94 -247.734 423.953 -226.549C441.119 -217.682 458.573 -208.666 476.116 -198.998C535.593 -166.222 596.127 -125.943 650.042 -58.5865C704.917 9.96876 718.633 70.5327 717.464 119.659C716.879 144.254 712.562 166.051 707.751 184.638C705.537 193.193 703.22 201.059 701.114 208.209C700.932 208.827 700.752 209.44 700.573 210.047C698.331 217.669 696.363 224.462 695.093 230.339C690.155 253.18 674.847 270.07 651.359 280.115C627.898 290.148 596.386 293.304 559.224 288.857C484.905 279.965 388.054 240.676 287.97 165.352Z" stroke="black"/>
</g>
<g filter="url(#filter2_f_186_14)">
<path d="M274.101 171.447C49.6846 2.55006 -83.4008 -245.637 -58.7248 -359.774C-34.0489 -473.911 83.0047 -559.972 307.422 -391.075C418.631 -307.378 573.096 -295.653 692.934 -139.376C814.925 19.7079 748.599 162.014 736.152 219.591C711.476 333.728 498.518 340.345 274.101 171.447Z" fill="#00303E"/>
<path d="M274.226 170.872C162.046 86.4451 72.7063 -17.7904 14.5022 -115.158C-14.6011 -163.844 -35.9076 -210.793 -48.3964 -252.668C-60.8906 -294.561 -64.5272 -331.262 -58.4136 -359.54C-46.1355 -416.331 -10.8364 -466.294 49.4913 -480.946C109.815 -495.598 195.122 -474.923 307.297 -390.499C347.763 -360.044 393.961 -339.109 442.107 -317.291C460.15 -309.115 478.467 -300.814 496.859 -291.842C564.346 -258.919 632.874 -216.941 692.742 -138.869C753.667 -59.4196 767.499 15.7325 764.623 78.1155C763.184 109.342 757.556 137.424 751.502 161.316C748.678 172.46 745.763 182.686 743.137 191.896C742.949 192.558 742.761 193.215 742.575 193.868C739.811 203.572 737.404 212.123 735.84 219.356C729.732 247.612 711.929 269.354 685.012 283.373C658.115 297.382 622.206 303.63 580.038 301.036C495.706 295.848 386.401 255.296 274.226 170.872Z" stroke="black"/>
</g>
<g filter="url(#filter3_f_186_14)">
<path d="M248.82 141.463C-22.2008 -95.0609 -292.5 -421.713 -190.824 -549.408C-161.944 -682.991 9.90698 -721.562 279.05 -519.004C412.424 -418.626 615.354 -435.18 759.431 -249.401C906.097 -60.2851 830.03 94.3007 815.461 161.687C800.491 368.148 562.783 415.463 248.82 141.463Z" fill="#00303E"/>
<path d="M-190.634 -548.893L-190.55 -548.999L-190.512 -549.174C-183.335 -582.373 -167.261 -609.732 -142.937 -628.926C-118.613 -648.12 -86.0604 -659.128 -45.981 -659.638C34.1769 -660.658 144.38 -619.688 278.926 -518.428C330.649 -479.501 392.831 -458.147 457.945 -435.785C476.832 -429.299 495.966 -422.728 515.163 -415.619C600.571 -383.99 687.263 -341.702 759.241 -248.892C832.512 -154.413 850.069 -68.6747 847.575 1.74678C846.326 36.9914 840.054 68.4615 833.174 95.3511C830.008 107.726 826.716 119.123 823.725 129.474C823.466 130.369 823.21 131.257 822.956 132.137C819.77 143.175 816.979 152.992 815.15 161.452L815.134 161.524L815.129 161.6C811.404 212.974 793.825 254.493 764.599 283.611C735.365 312.737 694.495 329.435 644.255 331.127C543.777 334.511 405.911 277.874 248.961 140.902C113.46 22.6478 -21.8445 -118.124 -110.559 -245.274C-154.924 -308.859 -187.6 -368.987 -202.842 -421.142C-210.461 -447.214 -213.705 -471.231 -211.91 -492.662C-210.117 -514.072 -203.285 -533.005 -190.634 -548.893Z" stroke="black"/>
</g>
<g filter="url(#filter4_f_186_14)">
<path d="M177.138 4.03131C-112.659 -214.071 -324.934 -573.943 -296.698 -704.547C-268.462 -835.152 -86.5152 -862.382 203.282 -644.28C346.89 -536.199 532.034 -454.813 688.592 -261.366C847.962 -64.4434 769.959 83.9626 755.715 149.846C727.479 280.451 466.935 222.134 177.138 4.03131Z" fill="#00303E"/>
<path d="M177.262 3.45609C32.394 -105.572 -93.0929 -250.033 -178.828 -383.544C-221.697 -450.302 -254.615 -514.304 -275.049 -569.752C-285.267 -597.476 -292.355 -623.04 -296.01 -645.723C-299.665 -668.407 -299.878 -688.161 -296.386 -704.313C-289.374 -736.746 -272.803 -762.842 -247.298 -780.317C-221.795 -797.792 -187.394 -806.622 -144.8 -804.558C-59.6123 -800.431 58.2823 -752.738 203.158 -643.704C244.898 -612.29 290.163 -583.121 337.206 -552.805C371.087 -530.971 405.891 -508.543 440.965 -484.253C524.762 -426.223 610.16 -357.534 688.407 -260.85C768.042 -162.451 788.278 -76.296 786.924 -6.64668C786.246 28.2092 780.161 59.0022 773.345 85.2194C770.208 97.2854 766.919 108.373 763.931 118.446C763.673 119.317 763.416 120.18 763.163 121.036C759.98 131.777 757.193 141.335 755.404 149.612C748.416 181.933 727.008 202.732 694.099 212.219C661.219 221.697 616.983 219.843 564.553 207.088C459.698 181.58 322.141 112.492 177.262 3.45609Z" stroke="black"/>
</g>
<g filter="url(#filter5_f_186_14)">
<path d="M114.954 -39.9565C-184.524 -265.346 -443.622 -728.446 -414.742 -862.029C-385.862 -995.611 -198.16 -1022.25 101.318 -796.864C249.724 -685.173 440.938 -600.539 602.876 -401.319C767.722 -198.521 892.494 318.894 877.926 386.28C849.046 519.863 414.432 185.433 114.954 -39.9565Z" fill="#00303E"/>
<path d="M115.078 -40.5317C-34.6218 -153.197 -174.234 -325.279 -272.808 -485.885C-322.096 -566.189 -361.113 -643.607 -386.001 -709.275C-398.445 -742.11 -407.348 -771.986 -412.24 -797.799C-417.134 -823.625 -417.997 -845.299 -414.43 -861.794C-407.258 -894.97 -390.207 -921.587 -363.921 -939.313C-337.637 -957.039 -302.154 -965.846 -258.194 -963.44C-170.277 -958.628 -48.5224 -908.966 101.194 -796.289C144.329 -763.825 191.095 -733.637 239.7 -702.263C274.705 -679.666 310.664 -656.454 346.907 -631.334C433.494 -571.318 521.754 -500.374 602.692 -400.803C685.05 -299.483 757.423 -119.53 807.39 43.5641C832.371 125.103 851.745 202.404 863.962 263.52C870.071 294.08 874.388 320.579 876.723 341.531C877.89 352.007 878.561 361.082 878.714 368.578C878.867 376.084 878.499 381.952 877.614 386.046C874.076 402.413 864.295 411.753 849.093 414.945C833.908 418.135 813.43 415.161 788.697 407.12C739.239 391.039 672.867 354.728 598.021 307.189C461.055 220.192 295.768 95.6277 153.945 -11.2539C140.773 -21.1804 127.804 -30.9545 115.078 -40.5317Z" stroke="black"/>
</g>
<g filter="url(#filter6_f_186_14)">
<path d="M296.273 57.7773C0.0322465 -83.8861 -301.145 -317.283 -173.743 -534.083C-46.3404 -750.883 72.5968 -793.781 334.641 -596.565C464.496 -498.835 629.847 -415.707 769.744 -233.074C912.155 -47.1606 837.055 108.153 822.487 175.539C782.711 408.594 576.877 371.092 296.273 57.7773Z" fill="#00303E"/>
<path d="M296.445 57.2459L296.402 57.1988L296.355 57.176C148.242 -13.6522 -1.07649 -107.401 -97.4347 -210.514C-145.624 -262.082 -180.509 -315.932 -195.411 -370.342C-202.855 -397.526 -205.307 -424.833 -201.949 -452.075C-198.589 -479.326 -189.407 -506.582 -173.515 -533.624C-109.847 -641.969 -48.3271 -706.805 29.9908 -719.961C108.326 -733.12 203.511 -694.585 334.516 -595.99C366.85 -571.655 401.375 -548.231 437.154 -523.956C545.122 -450.702 664.507 -369.701 769.552 -232.567C840.693 -139.694 857.432 -54.577 854.648 15.6309C853.255 50.7691 846.971 82.2322 840.115 109.141C836.96 121.525 833.686 132.936 830.713 143.3C830.455 144.196 830.201 145.085 829.948 145.966C826.78 157.018 824.004 166.846 822.175 175.305L822.171 175.327L822.167 175.349C812.252 233.442 791.996 274.661 762.807 298.952C733.605 323.253 695.444 330.626 649.726 320.93C558.289 301.536 436.728 213.882 296.445 57.2459Z" stroke="black"/>
</g>
</g>
</g>
<g filter="url(#filter7_f_186_14)">
<ellipse cx="303.757" cy="462.13" rx="303.757" ry="462.13" transform="matrix(-0.242595 -1.16179 0.622304 -0.45235 79.228 1762.45)" fill="#16B4DF"/>
<path d="M219.555 848.179C298.917 790.491 378.995 777.75 444.301 803.754C509.61 829.76 560.103 894.49 580.397 991.683C600.692 1088.88 586.978 1200.28 548.311 1301.86C509.647 1403.44 446.054 1495.14 366.692 1552.82C287.329 1610.51 207.252 1623.25 141.946 1597.25C76.6373 1571.24 26.1443 1506.51 5.84935 1409.32C-14.4455 1312.13 -0.730883 1200.72 37.9356 1099.14C76.6003 997.559 140.192 905.867 219.555 848.179Z" stroke="black"/>
</g>
<mask id="mask3_186_14" style="mask-type:alpha" maskUnits="userSpaceOnUse" x="-245" y="-148" width="1062" height="2276">
<path d="M816.501 312.247L152.638 -146.619L-201.266 943.6L-243.798 1293.99L63.4186 2039.25L376.301 2127.06L632.143 1161.01L816.501 312.247Z" fill="url(#paint2_linear_186_14)" stroke="black"/>
</mask>
<g mask="url(#mask3_186_14)">
<mask id="mask4_186_14" style="mask-type:alpha" maskUnits="userSpaceOnUse" x="-319" y="-206" width="1143" height="2410">
<path d="M341.011 2202.33C48.765 1931.99 -303.104 1528.75 -318.135 1517.08L142.622 -204.347L822.921 303.086L341.011 2202.33Z" fill="url(#paint3_linear_186_14)" stroke="black"/>
</mask>
<g mask="url(#mask4_186_14)">
<path d="M-34.6177 989.138C-9.64908 894.857 39.4727 832.134 94.1001 803.793C148.729 775.452 208.819 781.519 255.681 824.723C302.594 867.973 351.759 937.075 382.485 1020.65C413.205 1104.2 425.479 1202.17 398.702 1303.28C392.025 1328.49 388.935 1358.66 386.824 1390.85C385.987 1403.61 385.304 1416.68 384.614 1429.89C383.561 1450.06 382.49 1470.56 380.827 1490.82C375.327 1557.79 363.379 1621.57 324.335 1659.56C284.582 1698.24 234.573 1681.31 188.508 1649.14C154.889 1625.67 123.444 1594.13 99.6866 1570.3C90.8943 1561.48 83.1549 1553.72 76.7477 1547.81C29.8924 1504.62 -10.4493 1412.12 -32.8249 1306.78C-55.2004 1201.45 -59.5833 1083.41 -34.6177 989.138Z" fill="#00303E" stroke="black"/>
<g filter="url(#filter8_f_186_14)">
<path d="M-27.4746 998.538C26.1936 795.89 145.915 725.824 218.814 793.031C291.712 860.238 367.13 1024.89 313.462 1227.54C286.866 1327.96 305.201 1496.57 237.302 1582.41C168.183 1669.79 76.0726 1550.52 39.2988 1516.61C-33.5997 1449.41 -81.1428 1201.19 -27.4746 998.538Z" fill="#00303E"/>
<path d="M-27.1749 998.815C26.4282 796.412 145.965 726.564 218.666 793.589C255.066 827.148 292.086 885.03 313.305 959.786C334.516 1034.52 339.946 1126.13 313.162 1227.26C306.492 1252.45 302.645 1281.89 299.562 1313.17C298.296 1326.01 297.16 1339.15 296.011 1352.44C294.357 1371.57 292.677 1391.01 290.544 1410.32C283.321 1475.7 270.955 1539.11 237.114 1581.89C202.684 1625.42 162.505 1617.51 126.279 1594.4C99.8334 1577.53 75.5605 1552.61 57.2086 1533.77C50.4125 1526.79 44.4284 1520.65 39.4467 1516.05C3.10991 1482.56 -26.9549 1403.88 -41.2284 1308.2C-55.4992 1212.54 -53.9676 1099.98 -27.1749 998.815Z" stroke="black"/>
</g>
<g filter="url(#filter9_f_186_14)">
<path d="M-25.8492 992.405C34.3024 765.276 177.755 695.29 267.769 778.276C357.783 861.262 453.216 1055.86 393.064 1282.99C363.256 1395.54 397.962 1597.57 317.723 1689.97C236.042 1784.02 113.857 1632.87 68.4496 1591.01C-21.5645 1508.02 -86.0008 1219.53 -25.8492 992.405Z" fill="#00303E"/>
<path d="M-25.5495 992.681C34.5231 765.85 177.778 696.006 267.621 778.834C312.585 820.287 358.891 889.609 386.441 976.895C413.983 1064.15 422.784 1169.36 392.765 1282.71C385.286 1310.95 381.861 1344.77 379.669 1381C378.672 1397.47 377.928 1414.46 377.176 1431.65C377.101 1433.37 377.026 1435.09 376.95 1436.81C376.118 1455.76 375.243 1474.94 373.974 1493.96C368.898 1570.03 357.533 1643.39 317.547 1689.43C276.843 1736.31 226.007 1722.12 179.597 1690.87C145.579 1667.96 114.015 1635.95 90.6265 1612.23C82.1062 1603.59 74.6709 1596.05 68.5975 1590.45C23.6917 1549.05 -14.8728 1456.34 -34.6949 1345.56C-54.5148 1234.8 -55.5788 1106.07 -25.5495 992.681Z" stroke="black"/>
</g>
<g filter="url(#filter10_f_186_14)">
<path d="M10.5172 993.209C109.191 735.289 299.767 621.991 416.226 729.358C532.686 836.724 620.891 1095.12 548.751 1367.52C513.002 1502.5 593.974 1793.05 493.508 1899.96C391.236 2008.79 182.817 1796.52 124.069 1742.35C7.60925 1634.99 -103.791 1292 10.5172 993.209Z" fill="#00303E"/>
<path d="M10.7893 993.571C60.082 864.727 132.334 771.996 206.81 724.891C281.291 677.782 357.952 676.328 416.078 729.916C532.434 837.187 620.482 1095.26 548.451 1367.24C539.475 1401.14 537.837 1444.74 538.832 1492.65C539.329 1516.61 540.486 1541.68 541.719 1567.17C541.843 1569.73 541.967 1572.29 542.092 1574.86C543.21 1597.87 544.342 1621.18 545.065 1644.3C548.281 1747.17 543.387 1846.16 493.342 1899.42C467.856 1926.54 435.73 1933.68 400.926 1928.24C366.125 1922.8 328.677 1904.8 292.575 1881.69C230.696 1842.08 172.813 1787.52 139.027 1755.67C133.387 1750.35 128.42 1745.67 124.217 1741.8C66.0651 1688.19 9.15713 1575.72 -18.9329 1439.34C-47.0177 1302.99 -46.2902 1142.77 10.7893 993.571Z" stroke="black"/>
</g>
<g filter="url(#filter11_f_186_14)">
<path d="M59.4861 946.969C137.162 653.669 359.627 518.554 473.49 623.527C587.353 728.5 669.859 995.233 592.183 1288.53C553.691 1433.88 550.409 1650.41 447.976 1770.82C343.702 1893.39 84.9064 1761.45 27.468 1708.49C-86.3951 1603.52 -18.1897 1240.27 59.4861 946.969Z" fill="#00303E"/>
<path d="M59.7858 947.245C98.5778 800.768 173.537 693.755 253.039 636.477C332.55 579.191 416.526 571.705 473.342 624.085C587.072 728.936 669.463 995.322 591.884 1288.26C582.248 1324.64 574.82 1365.46 567.498 1408.08C566.308 1415.02 565.12 1421.99 563.926 1429.01C557.776 1465.14 551.462 1502.24 543.746 1538.8C525.324 1626.09 498.93 1710.19 447.797 1770.29C421.798 1800.85 386.138 1815.58 346.34 1819.62C306.547 1823.65 262.652 1817 220.209 1804.86C135.315 1780.58 56.2933 1734.37 27.6159 1707.93C-0.757391 1681.78 -17.7871 1639.54 -26.1677 1586.29C-34.552 1533.02 -34.2801 1468.71 -28.0204 1398.46C-15.5008 1257.95 20.9512 1093.88 59.7858 947.245Z" stroke="black"/>
</g>
<g filter="url(#filter12_f_186_14)">
<path d="M140.717 853.767C220.987 550.669 443.56 431.221 560.019 538.587C676.478 645.954 760.435 920.395 680.164 1223.49C640.386 1373.69 423.439 1452.71 318.186 1577.69C211.041 1704.92 63.1437 1517.18 4.3956 1463.02C-112.064 1355.65 60.4458 1156.87 140.717 853.767Z" fill="#00303E"/>
<path d="M141.016 854.044C181.105 702.67 256.738 597.126 336.912 542.839C417.093 488.546 501.75 485.563 559.871 539.146C676.194 646.387 760.04 920.479 679.865 1223.22C669.964 1260.6 649.016 1293.62 621.454 1324.09C593.901 1354.55 559.784 1382.4 523.604 1409.47C507.511 1421.51 491.009 1433.4 474.497 1445.3C416.789 1486.87 358.951 1528.54 318.006 1577.17C264.565 1640.62 200.932 1625.57 143.252 1587.79C101.147 1560.21 62.2827 1520.57 32.9204 1490.62C22.0544 1479.54 12.4897 1469.79 4.54347 1462.46C-9.98358 1449.07 -19.9749 1434.28 -26.2043 1418.08C-32.4289 1401.9 -34.9113 1384.29 -34.3899 1365.18C-33.3454 1326.91 -20.2494 1282.66 -0.945462 1232.15C10.4139 1202.43 23.8958 1170.61 38.2978 1136.62C48.3662 1112.85 58.8843 1088.02 69.4413 1062.11C95.0874 999.162 120.935 929.87 141.016 854.044Z" stroke="black"/>
</g>
<g filter="url(#filter13_f_186_14)">
<path d="M61.8215 1064.67C132.058 799.457 345.993 712.626 462.452 819.992C578.911 927.359 668.111 1182 597.874 1447.21C563.068 1578.64 551.786 1766.77 452.44 1869.45C351.308 1973.97 202.044 1791.39 143.296 1737.23C26.8366 1629.87 -8.41545 1329.88 61.8215 1064.67Z" fill="#00303E"/>
<path d="M62.1212 1064.94C97.1861 932.541 168.136 844.618 244.897 803.212C321.661 761.804 404.169 766.954 462.304 820.551C520.475 874.179 571.831 964.586 599.872 1074.68C627.91 1184.75 632.644 1314.52 597.574 1446.94C588.906 1479.67 581.696 1515.91 574.231 1553.43L574.123 1553.98C566.618 1591.7 558.845 1630.72 549.058 1668.84C529.487 1745.07 501.871 1817.65 452.277 1868.91C401.846 1921.03 339.371 1901.6 282.089 1862.26C240.28 1833.55 201.308 1794.29 171.869 1764.63C160.976 1753.66 151.388 1744 143.444 1736.68C27.2071 1629.51 -8.06544 1329.97 62.1212 1064.94Z" stroke="black"/>
</g>
</g>
</g>
</g>
<path d="M666.803 556.448V401H729.355C741.163 401 750.976 402.771 758.795 406.313C766.667 409.805 772.545 414.587 776.428 420.659C780.364 426.731 782.332 433.613 782.332 441.304C782.332 447.629 781.055 453.044 778.502 457.547C775.949 462 772.518 465.618 768.21 468.401C763.901 471.184 759.088 473.183 753.769 474.397V475.915C759.566 476.219 765.125 477.914 770.444 481.001C775.816 484.037 780.204 488.338 783.608 493.904C787.012 499.471 788.714 506.2 788.714 514.094C788.714 522.14 786.667 529.376 782.571 535.802C778.475 542.178 772.305 547.213 764.061 550.907C755.817 554.601 745.444 556.448 732.945 556.448H666.803ZM696.404 532.918H728.238C738.982 532.918 746.721 530.97 751.455 527.074C756.242 523.127 758.636 518.067 758.636 511.893C758.636 507.288 757.439 503.139 755.045 499.445C752.652 495.701 749.248 492.766 744.833 490.641C740.418 488.465 735.152 487.377 729.035 487.377H696.404V532.918ZM696.404 467.111H725.685C730.791 467.111 735.392 466.225 739.487 464.454C743.583 462.633 746.801 460.077 749.141 456.788C751.535 453.448 752.732 449.502 752.732 444.947C752.732 438.926 750.498 433.967 746.03 430.071C741.615 426.174 735.046 424.226 726.323 424.226H696.404V467.111Z" fill="#CBDDE1"/>
<path d="M605.03 401H634.63V502.557C634.63 513.69 631.864 523.481 626.333 531.931C620.854 540.382 613.142 546.985 603.195 551.742C593.249 556.448 581.627 558.801 568.329 558.801C554.978 558.801 543.33 556.448 533.383 551.742C523.437 546.985 515.724 540.382 510.246 531.931C504.767 523.481 502.028 513.69 502.028 502.557V401H531.628V500.204C531.628 506.681 533.117 512.45 536.096 517.51C539.128 522.57 543.383 526.542 548.862 529.427C554.34 532.26 560.829 533.677 568.329 533.677C575.829 533.677 582.318 532.26 587.797 529.427C593.328 526.542 597.583 522.57 600.562 517.51C603.541 512.45 605.03 506.681 605.03 500.204V401Z" fill="#CBDDE1"/>
<path d="M334.839 558.417V401H364.396V467.641H440V401H469.636V558.417H440V491.545H364.396V558.417H334.839Z" fill="#CBDDE1"/>
<path d="M175 417C175 408.163 182.163 401 191 401H335.883V558.493H192C182.611 558.493 175 550.881 175 541.493V417Z" fill="#CBDDE1"/>
<path fill-rule="evenodd" clip-rule="evenodd" d="M268.117 516.278C265.29 516.246 263.536 515.496 261.879 514.584C258.662 512.857 255.478 511.098 252.294 509.339C246.987 506.428 241.692 503.507 236.407 500.575C235.009 499.825 233.612 499.076 232.313 498.196C231.468 497.642 230.688 496.893 230.038 496.111C228.804 494.612 228.706 492.82 229.421 491.094C230.428 488.683 231.63 486.337 232.833 484.024C234.62 480.505 236.471 477.052 238.323 473.565C240.5 469.395 242.71 465.225 244.919 461.022C247.128 456.819 249.338 452.551 251.58 448.316C253.464 444.667 255.413 441.018 257.33 437.369C258.857 434.469 260.352 431.504 261.911 428.605C262.821 426.878 263.666 425.054 265.095 423.653C266.233 422.512 267.5 422.219 268.734 422.936C269.384 423.327 270.034 423.881 270.424 424.5C271.431 426.064 272.373 427.66 273.251 429.289C274.55 431.667 275.785 434.111 277.052 436.522C278.969 440.203 280.886 443.885 282.803 447.566C284.297 450.434 285.824 453.268 287.319 456.135C288.64 458.676 289.972 461.218 291.315 463.759C292.68 466.398 294.077 469.004 295.441 471.643C296.773 474.152 298.073 476.693 299.405 479.202C301.095 482.46 302.817 485.653 304.441 488.943C304.929 489.856 305.253 490.866 305.546 491.876C306.131 494.124 305.351 496.013 303.629 497.317C302.069 498.489 300.412 499.434 298.755 500.379C295.831 502.041 292.875 503.637 289.95 505.234C286.864 506.928 283.777 508.589 280.691 510.284C277.864 511.847 275.037 513.411 272.178 514.91C270.619 515.757 268.994 516.278 268.117 516.278ZM253.496 487.282C254.731 487.966 255.901 488.65 257.07 489.269C260.254 491.029 263.438 492.755 266.623 494.515C267.142 494.808 267.597 494.808 268.117 494.547C271.009 492.951 273.9 491.354 276.825 489.758C278.276 488.954 279.738 488.14 281.211 487.314C280.333 485.099 267.727 461.348 267.24 461.087C262.659 469.786 258.078 478.518 253.496 487.282Z" fill="#086C81"/>
<path d="M317.118 536.364C315.11 536.234 313.07 536.169 311.094 535.943C308.439 535.684 306.463 534.194 305.168 531.895C303.127 528.397 301.249 524.803 299.403 521.208C298.95 520.301 298.723 519.233 298.626 518.229C298.399 515.994 299.565 514.44 301.281 513.339C303.03 512.205 304.844 511.201 306.658 510.197C307.661 509.679 308.698 509.193 309.799 508.837C312.26 507.995 314.236 508.578 315.79 510.716C316.924 512.27 317.863 513.986 318.77 515.67C320.033 517.937 321.231 520.237 322.43 522.568C323.725 525.062 325.02 527.588 326.251 530.146C326.542 530.761 326.672 531.538 326.704 532.218C326.834 534.032 325.733 535.425 323.854 535.813C322.786 536.04 321.652 536.137 320.551 536.202C319.418 536.266 318.252 536.234 317.118 536.234C317.118 536.277 317.118 536.32 317.118 536.364Z" fill="#086C81"/>
<path d="M217.277 536.364C215.65 536.266 213.534 536.202 211.484 535.943C210.084 535.748 208.815 535.1 208.359 533.578C208.164 532.865 208.197 532.056 208.327 531.311C208.62 529.561 209.564 528.072 210.377 526.517C212.037 523.31 213.73 520.103 215.455 516.929C216.529 514.953 217.603 512.945 218.872 511.066C220.565 508.507 223.168 507.794 225.87 509.122C228.506 510.451 231.11 511.811 233.584 513.398C236.09 515.018 237.034 517.382 235.797 520.298C234.69 522.921 233.323 525.415 231.989 527.942C231.143 529.529 230.264 531.051 229.287 532.541C227.855 534.712 225.772 535.878 223.266 536.072C221.411 536.234 219.588 536.266 217.277 536.364Z" fill="#086C81"/>
<defs>
<filter id="filter0_f_186_14" x="-336.608" y="-1159.92" width="1495.66" height="1731.22" filterUnits="userSpaceOnUse" color-interpolation-filters="sRGB">
<feFlood flood-opacity="0" result="BackgroundImageFix"/>
<feBlend mode="normal" in="SourceGraphic" in2="BackgroundImageFix" result="shape"/>
<feGaussianBlur stdDeviation="166.431" result="effect1_foregroundBlur_186_14"/>
</filter>
<filter id="filter1_f_186_14" x="-24.8325" y="-394.163" width="752.037" height="694.948" filterUnits="userSpaceOnUse" color-interpolation-filters="sRGB">
<feFlood flood-opacity="0" result="BackgroundImageFix"/>
<feBlend mode="normal" in="SourceGraphic" in2="BackgroundImageFix" result="shape"/>
<feGaussianBlur stdDeviation="4.66894" result="effect1_foregroundBlur_186_14"/>
</filter>
<filter id="filter2_f_186_14" x="-94.3349" y="-518.581" width="892.33" height="853.495" filterUnits="userSpaceOnUse" color-interpolation-filters="sRGB">
<feFlood flood-opacity="0" result="BackgroundImageFix"/>
<feBlend mode="normal" in="SourceGraphic" in2="BackgroundImageFix" result="shape"/>
<feGaussianBlur stdDeviation="16.3413" result="effect1_foregroundBlur_186_14"/>
</filter>
<filter id="filter3_f_186_14" x="-259.418" y="-706.967" width="1154.24" height="1085.55" filterUnits="userSpaceOnUse" color-interpolation-filters="sRGB">
<feFlood flood-opacity="0" result="BackgroundImageFix"/>
<feBlend mode="normal" in="SourceGraphic" in2="BackgroundImageFix" result="shape"/>
<feGaussianBlur stdDeviation="23.3447" result="effect1_foregroundBlur_186_14"/>
</filter>
<filter id="filter4_f_186_14" x="-425.279" y="-931.535" width="1338.66" height="1276.41" filterUnits="userSpaceOnUse" color-interpolation-filters="sRGB">
<feFlood flood-opacity="0" result="BackgroundImageFix"/>
<feBlend mode="normal" in="SourceGraphic" in2="BackgroundImageFix" result="shape"/>
<feGaussianBlur stdDeviation="63.0306" result="effect1_foregroundBlur_186_14"/>
</filter>
<filter id="filter5_f_186_14" x="-729.765" y="-1277.27" width="1921.67" height="2006.91" filterUnits="userSpaceOnUse" color-interpolation-filters="sRGB">
<feFlood flood-opacity="0" result="BackgroundImageFix"/>
<feBlend mode="normal" in="SourceGraphic" in2="BackgroundImageFix" result="shape"/>
<feGaussianBlur stdDeviation="156.409" result="effect1_foregroundBlur_186_14"/>
</filter>
<filter id="filter6_f_186_14" x="-348.497" y="-867.815" width="1348.5" height="1338.24" filterUnits="userSpaceOnUse" color-interpolation-filters="sRGB">
<feFlood flood-opacity="0" result="BackgroundImageFix"/>
<feBlend mode="normal" in="SourceGraphic" in2="BackgroundImageFix" result="shape"/>
<feGaussianBlur stdDeviation="72.3685" result="effect1_foregroundBlur_186_14"/>
</filter>
<filter id="filter7_f_186_14" x="-354.144" y="439.946" width="1294.54" height="1521.11" filterUnits="userSpaceOnUse" color-interpolation-filters="sRGB">
<feFlood flood-opacity="0" result="BackgroundImageFix"/>
<feBlend mode="normal" in="SourceGraphic" in2="BackgroundImageFix" result="shape"/>
<feGaussianBlur stdDeviation="175.16" result="effect1_foregroundBlur_186_14"/>
</filter>
<filter id="filter8_f_186_14" x="-64.5104" y="754.271" width="410.143" height="873.533" filterUnits="userSpaceOnUse" color-interpolation-filters="sRGB">
<feFlood flood-opacity="0" result="BackgroundImageFix"/>
<feBlend mode="normal" in="SourceGraphic" in2="BackgroundImageFix" result="shape"/>
<feGaussianBlur stdDeviation="7.0064" result="effect1_foregroundBlur_186_14"/>
</filter>
<filter id="filter9_f_186_14" x="-98.3183" y="695.55" width="559.253" height="1073.76" filterUnits="userSpaceOnUse" color-interpolation-filters="sRGB">
<feFlood flood-opacity="0" result="BackgroundImageFix"/>
<feBlend mode="normal" in="SourceGraphic" in2="BackgroundImageFix" result="shape"/>
<feGaussianBlur stdDeviation="24.5224" result="effect1_foregroundBlur_186_14"/>
</filter>
<filter id="filter10_f_186_14" x="-107.448" y="618.943" width="752.367" height="1381.68" filterUnits="userSpaceOnUse" color-interpolation-filters="sRGB">
<feFlood flood-opacity="0" result="BackgroundImageFix"/>
<feBlend mode="normal" in="SourceGraphic" in2="BackgroundImageFix" result="shape"/>
<feGaussianBlur stdDeviation="35.032" result="effect1_foregroundBlur_186_14"/>
</filter>
<filter id="filter11_f_186_14" x="-222.108" y="399.024" width="1033.89" height="1611.57" filterUnits="userSpaceOnUse" color-interpolation-filters="sRGB">
<feFlood flood-opacity="0" result="BackgroundImageFix"/>
<feBlend mode="normal" in="SourceGraphic" in2="BackgroundImageFix" result="shape"/>
<feGaussianBlur stdDeviation="94.5864" result="effect1_foregroundBlur_186_14"/>
</filter>
<filter id="filter12_f_186_14" x="-504.22" y="30.4483" width="1685.52" height="2060.06" filterUnits="userSpaceOnUse" color-interpolation-filters="sRGB">
<feFlood flood-opacity="0" result="BackgroundImageFix"/>
<feBlend mode="normal" in="SourceGraphic" in2="BackgroundImageFix" result="shape"/>
<feGaussianBlur stdDeviation="234.714" result="effect1_foregroundBlur_186_14"/>
</filter>
<filter id="filter13_f_186_14" x="-191.403" y="557.934" width="1031.33" height="1560.45" filterUnits="userSpaceOnUse" color-interpolation-filters="sRGB">
<feFlood flood-opacity="0" result="BackgroundImageFix"/>
<feBlend mode="normal" in="SourceGraphic" in2="BackgroundImageFix" result="shape"/>
<feGaussianBlur stdDeviation="108.599" result="effect1_foregroundBlur_186_14"/>
</filter>
<linearGradient id="paint0_linear_186_14" x1="190.22" y1="-196.528" x2="1063.34" y2="-20.2498" gradientUnits="userSpaceOnUse">
<stop stop-color="#C4C4C4" stop-opacity="0"/>
<stop offset="0.36916" stop-color="#C4C4C4"/>
<stop offset="1" stop-color="#C4C4C4"/>
</linearGradient>
<linearGradient id="paint1_linear_186_14" x1="408.129" y1="337.817" x2="719.586" y2="-149.091" gradientUnits="userSpaceOnUse">
<stop stop-color="#C4C4C4"/>
<stop offset="1" stop-color="#C4C4C4" stop-opacity="0"/>
</linearGradient>
<linearGradient id="paint2_linear_186_14" x1="196.641" y1="822.758" x2="-159.573" y2="1305" gradientUnits="userSpaceOnUse">
<stop stop-color="#C4C4C4"/>
<stop offset="0.943414" stop-color="#C4C4C4" stop-opacity="0"/>
</linearGradient>
<linearGradient id="paint3_linear_186_14" x1="73.9316" y1="1092.5" x2="530.919" y2="1247.26" gradientUnits="userSpaceOnUse">
<stop stop-color="#C4C4C4"/>
<stop offset="1" stop-color="#C4C4C4" stop-opacity="0"/>
</linearGradient>
</defs>
</svg>
