<svg width="742" height="256" viewBox="0 0 742 256" fill="none" xmlns="http://www.w3.org/2000/svg">
<g clip-path="url(#clip0_1_8)">
<rect width="742" height="256" fill="white"/>
<rect x="0.0559998" width="741.888" height="608.604" fill="#898781"/>
<rect x="271" y="28" width="200.928" height="199.97" rx="47" fill="#787878"/>
<path d="M421.134 162.672C414.862 162.672 409.102 161.2 403.854 158.256C398.606 155.312 394.446 151.248 391.374 146.064C388.302 140.816 386.766 134.896 386.766 128.304C386.766 121.776 388.302 115.92 391.374 110.736C394.446 105.488 398.606 101.392 403.854 98.448C409.102 95.504 414.862 94.032 421.134 94.032C427.47 94.032 433.23 95.504 438.414 98.448C443.662 101.392 447.79 105.488 450.798 110.736C453.87 115.92 455.406 121.776 455.406 128.304C455.406 134.896 453.87 140.816 450.798 146.064C447.79 151.248 443.662 155.312 438.414 158.256C433.166 161.2 427.406 162.672 421.134 162.672ZM421.134 150.672C425.166 150.672 428.718 149.776 431.79 147.984C434.862 146.128 437.262 143.504 438.99 140.112C440.718 136.72 441.582 132.784 441.582 128.304C441.582 123.824 440.718 119.92 438.99 116.592C437.262 113.2 434.862 110.608 431.79 108.816C428.718 107.024 425.166 106.128 421.134 106.128C417.102 106.128 413.518 107.024 410.382 108.816C407.31 110.608 404.91 113.2 403.182 116.592C401.454 119.92 400.59 123.824 400.59 128.304C400.59 132.784 401.454 136.72 403.182 140.112C404.91 143.504 407.31 146.128 410.382 147.984C413.518 149.776 417.102 150.672 421.134 150.672Z" fill="white"/>
<path d="M313.079 128.4C313.079 121.808 314.551 115.92 317.495 110.736C320.503 105.488 324.567 101.424 329.687 98.544C334.871 95.6 340.663 94.128 347.063 94.128C354.551 94.128 361.111 96.048 366.743 99.888C372.375 103.728 376.311 109.04 378.551 115.824H363.095C361.559 112.624 359.383 110.224 356.567 108.624C353.815 107.024 350.615 106.224 346.967 106.224C343.063 106.224 339.575 107.152 336.503 109.008C333.495 110.8 331.127 113.36 329.399 116.688C327.735 120.016 326.903 123.92 326.903 128.4C326.903 132.816 327.735 136.72 329.399 140.112C331.127 143.44 333.495 146.032 336.503 147.888C339.575 149.68 343.063 150.576 346.967 150.576C350.615 150.576 353.815 149.776 356.567 148.176C359.383 146.512 361.559 144.08 363.095 140.88H378.551C376.311 147.728 372.375 153.072 366.743 156.912C361.175 160.688 354.615 162.576 347.063 162.576C340.663 162.576 334.871 161.136 329.687 158.256C324.567 155.312 320.503 151.248 317.495 146.064C314.551 140.88 313.079 134.992 313.079 128.4Z" fill="white"/>
<path d="M303.064 94.992V162H289.624V94.992H303.064Z" fill="white"/>
</g>
<defs>
<clipPath id="clip0_1_8">
<rect width="742" height="256" fill="white"/>
</clipPath>
</defs>
</svg>
