<svg xmlns="http://www.w3.org/2000/svg" width="960" height="960" fill="none"><path fill="#005066" d="M960 960H0V0h960z"/><mask id="a" width="960" height="960" x="0" y="0" maskUnits="userSpaceOnUse" style="mask-type:alpha"><path fill="#6231E9" stroke="#000" d="M.5 959.5h959V.5H.5z"/></mask><g mask="url(#a)"><g filter="url(#b)"><ellipse cx="667.508" cy="364.082" fill="#00303E" rx="667.508" ry="364.082" transform="matrix(-.60417 -.48246 .26737 -1.16555 717.169 452.097)"/><path stroke="#000" d="M8.233-616.113c26.809-116.87 96.133-186.85 186.679-205.354 90.533-18.501 202.196 14.488 313.521 103.387s201.204 216.851 256.53 351.826C820.297-231.257 841.02-89.37 814.211 27.5c-26.809 116.869-96.133 186.85-186.679 205.354-90.533 18.5-202.196-14.489-313.521-103.387C202.686 40.568 112.807-87.384 57.481-222.36 2.147-357.356-18.576-499.244 8.233-616.113Z"/></g><mask id="d" width="1633" height="2300" x="-420" y="-1044" maskUnits="userSpaceOnUse" style="mask-type:alpha"><path fill="url(#c)" stroke="#000" d="m-418.645 197.972 204.257-1240.762L1211.87-177.161 999.53 1255.12z"/></mask><g mask="url(#d)"><mask id="f" width="2029" height="2512" x="-753" y="-1410" maskUnits="userSpaceOnUse" style="mask-type:alpha"><path fill="url(#e)" stroke="#000" d="M1274.6-74.46c-110 504.62-250.41 1148.27-253.99 1174.84L-752.447-234.034l253.994-1174.836z"/></mask><g mask="url(#f)"><path fill="#00303E" stroke="#000" d="M283.739 192.793C190.429 122.567 111.042 22.94 57.899-72.571 31.327-120.328 11.327-167.036-.575-208.504c-11.91-41.496-15.673-77.612-9.908-104.278 11.586-53.59 43.816-101.535 98.221-117.247 54.404-15.711 130.951.827 231.07 76.177 34.653 26.08 73.801 45.345 114.581 65.413 17.654 8.687 35.613 17.525 53.646 27.131 59.711 31.809 120.273 72.06 173.393 143.191 54.054 72.38 66.271 140.01 63.583 196.235-1.346 28.146-6.429 53.489-11.918 75.208-2.526 9.995-5.136 19.216-7.507 27.592l-.61 2.154c-2.526 8.932-4.742 16.877-6.217 23.703-5.763 26.655-22.779 47.972-48.119 62.706-25.319 14.723-58.86 22.821-97.522 23.166-77.323.69-175.072-29.631-268.379-99.854Z"/><g filter="url(#g)"><path fill="#00303E" d="M287.845 165.927C87.617 15.235-33.356-195.876-13.341-288.454s121.825-157.214 322.054-6.522C407.935-220.3 542.31-193.923 650.228-59.101c109.857 137.245 55.273 242.974 45.176 289.675-20.015 92.578-207.33 86.046-407.559-64.647"/><path stroke="#000" d="M287.97 165.352C187.882 90.025 107.614-.394 54.877-83.528c-26.37-41.57-45.844-81.298-57.473-116.386-11.639-35.115-15.377-65.441-10.434-88.306 9.942-45.983 40.247-85.218 93.168-94.103 52.912-8.882 128.365 12.598 228.45 87.923 34.988 26.331 74.352 46.666 115.365 67.851 17.166 8.867 34.62 17.883 52.163 27.551 59.477 32.776 120.011 73.055 173.926 140.412 54.875 68.555 68.591 129.119 67.422 178.245-.585 24.595-4.902 46.392-9.713 64.979-2.214 8.555-4.531 16.421-6.637 23.571l-.541 1.838c-2.242 7.622-4.21 14.415-5.48 20.292-4.938 22.841-20.246 39.731-43.734 49.776-23.461 10.033-54.973 13.189-92.135 8.742-74.319-8.892-171.17-48.181-271.254-123.505Z"/></g><g filter="url(#h)"><path fill="#00303E" d="M274.101 171.447C49.685 2.55-83.401-245.637-58.725-359.774s141.73-200.198 366.147-31.301c111.209 83.697 265.674 95.422 385.512 251.699 121.991 159.084 55.665 301.39 43.218 358.967-24.676 114.137-237.634 120.754-462.051-48.144"/><path stroke="#000" d="M274.226 170.872C162.046 86.445 72.706-17.79 14.502-115.158c-29.103-48.686-50.41-95.635-62.898-137.51-12.495-41.893-16.131-78.594-10.018-106.872 12.279-56.791 47.578-106.754 107.905-121.406 60.324-14.652 145.631 6.023 257.806 90.447 40.466 30.455 86.664 51.39 134.81 73.208 18.043 8.176 36.36 16.477 54.752 25.449 67.487 32.923 136.015 74.901 195.883 152.973 60.925 79.45 74.757 154.602 71.881 216.985-1.439 31.226-7.067 59.308-13.121 83.2-2.824 11.144-5.739 21.37-8.365 30.58l-.562 1.972c-2.764 9.704-5.171 18.255-6.735 25.488-6.108 28.256-23.911 49.998-50.828 64.017-26.897 14.009-62.806 20.257-104.974 17.663-84.332-5.188-193.637-45.74-305.812-130.164Z"/></g><g filter="url(#i)"><path fill="#00303E" d="M248.82 141.463C-22.2-95.061-292.5-421.713-190.824-549.408c28.88-133.583 200.731-172.154 469.874 30.404 133.374 100.378 336.304 83.824 480.381 269.603 146.666 189.116 70.599 343.702 56.03 411.088-14.97 206.461-252.678 253.776-566.641-20.224"/><path stroke="#000" d="m-190.634-548.893.084-.106.038-.175c7.177-33.199 23.251-60.558 47.575-79.752s56.877-30.202 96.956-30.712c80.158-1.02 190.361 39.95 324.907 141.21 51.723 38.927 113.905 60.281 179.019 82.643 18.887 6.486 38.021 13.057 57.218 20.166 85.408 31.629 172.1 73.917 244.078 166.727 73.271 94.479 90.828 180.217 88.334 250.639-1.249 35.244-7.521 66.715-14.401 93.604-3.166 12.375-6.458 23.772-9.449 34.123l-.769 2.663c-3.186 11.038-5.977 20.855-7.806 29.315l-.016.072-.005.076c-3.725 51.374-21.304 92.893-50.53 122.011-29.234 29.126-70.104 45.824-120.344 47.516-100.478 3.384-238.344-53.253-395.294-190.225C113.46 22.648-21.844-118.124-110.559-245.274c-44.365-63.585-77.041-123.713-92.283-175.868-7.619-26.072-10.863-50.089-9.068-71.52 1.793-21.41 8.625-40.343 21.276-56.231Z"/></g><g filter="url(#j)"><path fill="#00303E" d="M177.138 4.031C-112.659-214.07-324.934-573.943-296.698-704.547c28.236-130.605 210.183-157.835 499.98 60.267 143.608 108.081 328.752 189.467 485.31 382.914 159.37 196.923 81.367 345.329 67.123 411.212-28.236 130.605-288.78 72.288-578.577-145.815"/><path stroke="#000" d="M177.262 3.456c-144.868-109.028-270.355-253.489-356.09-387-42.869-66.758-75.787-130.76-96.221-186.208-10.218-27.724-17.306-53.288-20.961-75.971s-3.868-42.438-.376-58.59c7.012-32.433 23.583-58.529 49.088-76.004 25.503-17.475 59.904-26.305 102.498-24.241 85.188 4.127 203.082 51.82 347.958 160.854 41.74 31.414 87.005 60.583 134.048 90.899 33.881 21.834 68.685 44.262 103.759 68.552 83.797 58.03 169.195 126.719 247.442 223.403 79.635 98.399 99.871 184.554 98.517 254.203-.678 34.856-6.763 65.65-13.579 91.866-3.137 12.066-6.426 23.154-9.414 33.227l-.768 2.59c-3.183 10.741-5.97 20.299-7.759 28.576-6.988 32.321-28.396 53.12-61.305 62.607-32.88 9.478-77.116 7.624-129.546-5.131C459.698 181.58 322.141 112.492 177.262 3.456Z"/></g><g filter="url(#k)"><path fill="#00303E" d="M114.954-39.956c-299.478-225.39-558.576-688.49-529.696-822.073s216.582-160.221 516.06 65.165c148.406 111.691 339.62 196.325 501.558 395.545 164.846 202.798 289.618 720.213 275.05 787.599-28.88 133.583-463.494-200.847-762.972-426.236"/><path stroke="#000" d="M115.078-40.532c-149.7-112.665-289.312-284.747-387.886-445.353-49.288-80.304-88.305-157.722-113.193-223.39-12.444-32.835-21.347-62.711-26.239-88.524-4.894-25.826-5.757-47.5-2.19-63.995 7.172-33.176 24.223-59.793 50.509-77.519 26.284-17.726 61.767-26.533 105.727-24.127 87.917 4.812 209.672 54.474 359.388 167.151 43.135 32.464 89.901 62.652 138.506 94.026 35.005 22.597 70.964 45.809 107.207 70.929 86.587 60.016 174.847 130.96 255.785 230.531C685.05-299.483 757.423-119.53 807.39 43.564c24.981 81.539 44.355 158.84 56.572 219.956 6.109 30.56 10.426 57.059 12.761 78.011 1.167 10.476 1.838 19.551 1.991 27.047.153 7.506-.215 13.374-1.1 17.468-3.538 16.367-13.319 25.707-28.521 28.899-15.185 3.19-35.663.216-60.396-7.825-49.458-16.081-115.83-52.392-190.676-99.931C461.055 220.192 295.768 95.628 153.945-11.254c-13.172-9.926-26.141-19.7-38.867-29.278Z"/></g><g filter="url(#l)"><path fill="#00303E" d="M296.273 57.777C.033-83.886-301.145-317.283-173.743-534.083c127.403-216.8 246.34-259.698 508.384-62.482 129.855 97.73 295.206 180.858 435.103 363.491 142.411 185.913 67.311 341.227 52.743 408.613-39.776 233.055-245.61 195.553-526.214-117.762"/><path stroke="#000" d="m296.445 57.246-.043-.047-.047-.023C148.242-13.652-1.076-107.401-97.435-210.514c-48.189-51.568-83.074-105.418-97.976-159.828-7.444-27.184-9.896-54.491-6.538-81.733 3.36-27.251 12.542-54.507 28.434-81.549 63.668-108.345 125.188-173.181 203.506-186.337 78.335-13.159 173.52 25.376 304.525 123.971 32.334 24.335 66.859 47.759 102.638 72.034 107.968 73.254 227.353 154.255 332.398 291.389 71.141 92.873 87.88 177.99 85.096 248.198-1.393 35.138-7.677 66.601-14.533 93.51-3.155 12.384-6.429 23.795-9.402 34.159l-.765 2.666c-3.168 11.052-5.944 20.88-7.773 29.339l-.004.022-.004.022c-9.915 58.093-30.171 99.312-59.36 123.603-29.202 24.301-67.363 31.674-113.081 21.978-91.437-19.394-212.998-107.048-353.281-263.684Z"/></g></g></g><g filter="url(#m)"><ellipse cx="303.757" cy="462.13" fill="#16B4DF" rx="303.757" ry="462.13" transform="matrix(-.2426 -1.16179 .6223 -.45235 79.228 1762.45)"/><path stroke="#000" d="M219.555 848.179c79.362-57.688 159.44-70.429 224.746-44.425 65.309 26.006 115.802 90.736 136.096 187.929 20.295 97.197 6.581 208.597-32.086 310.177-38.664 101.58-102.257 193.28-181.619 250.96-79.363 57.69-159.44 70.43-224.746 44.43-65.309-26.01-115.802-90.74-136.097-187.93-20.294-97.19-6.58-208.6 32.087-310.18C76.6 997.559 140.192 905.867 219.555 848.179Z"/></g><mask id="o" width="1062" height="2276" x="-245" y="-148" maskUnits="userSpaceOnUse" style="mask-type:alpha"><path fill="url(#n)" stroke="#000" d="M816.501 312.247 152.638-146.619-201.266 943.6l-42.532 350.39 307.217 745.26 312.882 87.81 255.842-966.05z"/></mask><g mask="url(#o)"><mask id="q" width="1143" height="2410" x="-319" y="-206" maskUnits="userSpaceOnUse" style="mask-type:alpha"><path fill="url(#p)" stroke="#000" d="M341.011 2202.33c-292.246-270.34-644.115-673.58-659.146-685.25L142.622-204.347l680.299 507.433z"/></mask><g mask="url(#q)"><path fill="#00303E" stroke="#000" d="M-34.618 989.138C-9.649 894.857 39.472 832.134 94.1 803.793c54.629-28.341 114.719-22.274 161.581 20.93 46.913 43.25 96.078 112.352 126.804 195.927 30.72 83.55 42.994 181.52 16.217 282.63-6.677 25.21-9.767 55.38-11.878 87.57-.837 12.76-1.52 25.83-2.21 39.04-1.053 20.17-2.124 40.67-3.787 60.93-5.5 66.97-17.448 130.75-56.492 168.74-39.753 38.68-89.762 21.75-135.827-10.42-33.619-23.47-65.064-55.01-88.821-78.84-8.793-8.82-16.532-16.58-22.94-22.49-46.855-43.19-87.196-135.69-109.572-241.03-22.375-105.33-26.758-223.37-1.793-317.642Z"/><g filter="url(#r)"><path fill="#00303E" d="M-27.475 998.538c53.669-202.648 173.39-272.714 246.289-205.507 72.898 67.207 148.316 231.859 94.648 434.509-26.596 100.42-8.261 269.03-76.16 354.87-69.119 87.38-161.23-31.89-198.003-65.8-72.899-67.2-120.442-315.42-66.774-518.072"/><path stroke="#000" d="M-27.175 998.815c53.603-202.403 173.14-272.251 245.841-205.226 36.4 33.559 73.42 91.441 94.639 166.197 21.211 74.734 26.641 166.344-.143 267.474-6.67 25.19-10.517 54.63-13.6 85.91-1.266 12.84-2.402 25.98-3.551 39.27-1.654 19.13-3.334 38.57-5.467 57.88-7.223 65.38-19.589 128.79-53.43 171.57-34.43 43.53-74.609 35.62-110.835 12.51-26.446-16.87-50.718-41.79-69.07-60.63-6.797-6.98-12.78-13.12-17.762-17.72-36.337-33.49-66.402-112.17-80.675-207.85-14.271-95.66-12.74-208.22 14.053-309.385Z"/></g><g filter="url(#s)"><path fill="#00303E" d="M-25.85 992.405C34.303 765.276 177.756 695.29 267.77 778.276s185.447 277.584 125.295 504.714c-29.808 112.55 4.898 314.58-75.341 406.98-81.681 94.05-203.866-57.1-249.273-98.96-90.014-82.99-154.45-371.48-94.3-598.605"/><path stroke="#000" d="M-25.55 992.681C34.524 765.85 177.779 696.006 267.621 778.834c44.964 41.453 91.27 110.775 118.82 198.061 27.542 87.255 36.343 192.465 6.324 305.815-7.479 28.24-10.904 62.06-13.096 98.29-.997 16.47-1.741 33.46-2.493 50.65l-.226 5.16c-.832 18.95-1.707 38.13-2.976 57.15-5.076 76.07-16.441 149.43-56.427 195.47-40.704 46.88-91.54 32.69-137.95 1.44-34.018-22.91-65.582-54.92-88.97-78.64-8.52-8.64-15.956-16.18-22.03-21.78-44.905-41.4-83.47-134.11-103.292-244.89-19.82-110.76-20.884-239.49 9.146-352.879Z"/></g><g filter="url(#t)"><path fill="#00303E" d="M10.517 993.209c98.674-257.92 289.25-371.218 405.709-263.851 116.46 107.366 204.665 365.762 132.525 638.162-35.749 134.98 45.223 425.53-55.243 532.44-102.272 108.83-310.691-103.44-369.439-157.61C7.609 1634.99-103.791 1292 10.517 993.209"/><path stroke="#000" d="M10.79 993.571c49.292-128.844 121.544-221.575 196.02-268.68 74.481-47.109 151.142-48.563 209.268 5.025 116.356 107.271 204.404 365.344 132.373 637.324-8.976 33.9-10.614 77.5-9.619 125.41.497 23.96 1.654 49.03 2.887 74.52l.373 7.69c1.118 23.01 2.25 46.32 2.973 69.44 3.216 102.87-1.678 201.86-51.723 255.12-25.486 27.12-57.612 34.26-92.416 28.82-34.801-5.44-72.249-23.44-108.351-46.55-61.879-39.61-119.762-94.17-153.548-126.02-5.64-5.32-10.607-10-14.81-13.87-58.152-53.61-115.06-166.08-143.15-302.46-28.085-136.35-27.357-296.57 29.722-445.769Z"/></g><g filter="url(#u)"><path fill="#00303E" d="M59.486 946.969c77.676-293.3 300.141-428.415 414.004-323.442s196.369 371.706 118.693 665.003c-38.492 145.35-41.774 361.88-144.207 482.29-104.274 122.57-363.07-9.37-420.508-62.33-113.863-104.97-45.658-468.22 32.018-761.521"/><path stroke="#000" d="M59.786 947.245c38.792-146.477 113.751-253.49 193.253-310.768 79.511-57.286 163.487-64.772 220.303-12.392 113.73 104.851 196.121 371.237 118.542 664.175-9.636 36.38-17.064 77.2-24.386 119.82-1.19 6.94-2.378 13.91-3.572 20.93-6.15 36.13-12.464 73.23-20.18 109.79-18.422 87.29-44.816 171.39-95.949 231.49-25.999 30.56-61.659 45.29-101.457 49.33-39.793 4.03-83.688-2.62-126.131-14.76-84.894-24.28-163.916-70.49-192.593-96.93-28.373-26.15-45.403-68.39-53.784-121.64-8.384-53.27-8.112-117.58-1.852-187.83 12.52-140.51 48.971-304.58 87.806-451.215Z"/></g><g filter="url(#v)"><path fill="#00303E" d="M140.717 853.767c80.27-303.098 302.843-422.546 419.302-315.18 116.459 107.367 200.416 381.808 120.145 684.903-39.778 150.2-256.725 229.22-361.978 354.2-107.145 127.23-255.042-60.51-313.79-114.67-116.46-107.37 56.05-306.15 136.321-609.253"/><path stroke="#000" d="M141.016 854.044c40.089-151.374 115.722-256.918 195.896-311.205 80.181-54.293 164.838-57.276 222.959-3.693C676.194 646.387 760.04 920.479 679.865 1223.22c-9.901 37.38-30.849 70.4-58.411 100.87-27.553 30.46-61.67 58.31-97.85 85.38-16.093 12.04-32.595 23.93-49.107 35.83-57.708 41.57-115.546 83.24-156.491 131.87-53.441 63.45-117.074 48.4-174.754 10.62-42.105-27.58-80.97-67.22-110.332-97.17-10.866-11.08-20.43-20.83-28.377-28.16-14.527-13.39-24.518-28.18-30.747-44.38-6.225-16.18-8.707-33.79-8.186-52.9 1.045-38.27 14.14-82.52 33.445-133.03 11.359-29.72 24.84-61.54 39.243-95.53 10.068-23.77 20.586-48.6 31.143-74.51 25.646-62.948 51.494-132.24 71.575-208.066Z"/></g><g filter="url(#w)"><path fill="#00303E" d="M61.822 1064.67c70.236-265.213 284.171-352.044 400.63-244.678C578.911 927.359 668.111 1182 597.874 1447.21c-34.806 131.43-46.088 319.56-145.434 422.24-101.132 104.52-250.396-78.06-309.144-132.22-116.46-107.36-151.711-407.35-81.474-672.56"/><path stroke="#000" d="M62.121 1064.94c35.065-132.399 106.015-220.322 182.776-261.728 76.764-41.408 159.272-36.258 217.407 17.339 58.171 53.628 109.527 144.035 137.568 254.129 28.038 110.07 32.772 239.84-2.298 372.26-8.668 32.73-15.878 68.97-23.343 106.49l-.108.55c-7.505 37.72-15.278 76.74-25.065 114.86-19.571 76.23-47.187 148.81-96.781 200.07-50.431 52.12-112.906 32.69-170.188-6.65-41.809-28.71-80.781-67.97-110.22-97.63-10.893-10.97-20.481-20.63-28.425-27.95-116.237-107.17-151.51-406.71-81.323-671.74Z"/></g></g></g></g><path fill="#CBDDE1" d="M666.803 556.448V401h62.552q17.712 0 29.44 5.313 11.808 5.238 17.633 14.346 5.904 9.108 5.904 20.645 0 9.488-3.83 16.243-3.83 6.68-10.292 10.854-6.463 4.175-14.441 5.996v1.518q8.696.456 16.675 5.086 8.058 4.554 13.164 12.903t5.106 20.19q0 12.069-6.143 21.708-6.144 9.564-18.51 15.105t-31.116 5.541zm29.601-23.53h31.834q16.116 0 23.217-5.844 7.18-5.92 7.181-15.181 0-6.907-3.591-12.448-3.59-5.616-10.212-8.804-6.623-3.264-15.798-3.264h-32.631zm0-65.807h29.281q7.66 0 13.802-2.657 6.144-2.732 9.654-7.666 3.591-5.01 3.591-11.841 0-9.032-6.702-14.876-6.622-5.845-19.707-5.845h-29.919zM605.03 401h29.6v101.557q0 16.7-8.297 29.374-8.218 12.676-23.138 19.811-14.919 7.059-34.866 7.059-20.026 0-34.946-7.059-14.92-7.135-23.137-19.811t-8.218-29.374V401h29.6v99.204q0 9.716 4.468 17.306 4.548 7.59 12.766 11.917 8.217 4.25 19.467 4.25t19.468-4.25q8.296-4.327 12.765-11.917 4.468-7.59 4.468-17.306zM334.839 558.417V401h29.557v66.641H440V401h29.636v157.417H440v-66.872h-75.604v66.872z"/><path fill="#CBDDE1" d="M175 417c0-8.837 7.163-16 16-16h144.883v157.493H192c-9.389 0-17-7.612-17-17z"/><path fill="#086C81" fill-rule="evenodd" d="M268.117 516.278c-2.827-.032-4.581-.782-6.238-1.694a906 906 0 0 1-9.585-5.245 3782 3782 0 0 1-15.887-8.764c-1.398-.75-2.795-1.499-4.094-2.379-.845-.554-1.625-1.303-2.275-2.085-1.234-1.499-1.332-3.291-.617-5.017 1.007-2.411 2.209-4.757 3.412-7.07 1.787-3.519 3.638-6.972 5.49-10.459 2.177-4.17 4.387-8.34 6.596-12.543s4.419-8.471 6.661-12.706c1.884-3.649 3.833-7.298 5.75-10.947 1.527-2.9 3.022-5.865 4.581-8.764.91-1.727 1.755-3.551 3.184-4.952 1.138-1.141 2.405-1.434 3.639-.717.65.391 1.3.945 1.69 1.564a72 72 0 0 1 2.827 4.789c1.299 2.378 2.534 4.822 3.801 7.233l5.751 11.044c1.494 2.868 3.021 5.702 4.516 8.569q1.982 3.812 3.996 7.624c1.365 2.639 2.762 5.245 4.126 7.884 1.332 2.509 2.632 5.05 3.964 7.559 1.69 3.258 3.412 6.451 5.036 9.741.488.913.812 1.923 1.105 2.933.585 2.248-.195 4.137-1.917 5.441-1.56 1.172-3.217 2.117-4.874 3.062-2.924 1.662-5.88 3.258-8.805 4.855-3.086 1.694-6.173 3.355-9.259 5.05-2.827 1.563-5.654 3.127-8.513 4.626-1.559.847-3.184 1.368-4.061 1.368m-14.621-28.996c1.235.684 2.405 1.368 3.574 1.987 3.184 1.76 6.368 3.486 9.553 5.246.519.293.974.293 1.494.032 2.892-1.596 5.783-3.193 8.708-4.789a988 988 0 0 0 4.386-2.444c-.878-2.215-13.484-25.966-13.971-26.227a9951 9951 0 0 0-13.744 26.195" clip-rule="evenodd"/><path fill="#086C81" d="M317.118 536.364c-2.008-.13-4.048-.195-6.024-.421-2.655-.259-4.631-1.749-5.926-4.048-2.041-3.498-3.919-7.092-5.765-10.687-.453-.907-.68-1.975-.777-2.979-.227-2.235.939-3.789 2.655-4.89 1.749-1.134 3.563-2.138 5.377-3.142 1.003-.518 2.04-1.004 3.141-1.36 2.461-.842 4.437-.259 5.991 1.879 1.134 1.554 2.073 3.27 2.98 4.954 1.263 2.267 2.461 4.567 3.66 6.898 1.295 2.494 2.59 5.02 3.821 7.578.291.615.421 1.392.453 2.072.13 1.814-.971 3.207-2.85 3.595-1.068.227-2.202.324-3.303.389-1.133.064-2.299.032-3.433.032zm-99.841 0c-1.627-.098-3.743-.162-5.793-.421-1.4-.195-2.669-.843-3.125-2.365-.195-.713-.162-1.522-.032-2.267.293-1.75 1.237-3.239 2.05-4.794a538 538 0 0 1 5.078-9.588c1.074-1.976 2.148-3.984 3.417-5.863 1.693-2.559 4.296-3.272 6.998-1.944 2.636 1.329 5.24 2.689 7.714 4.276 2.506 1.62 3.45 3.984 2.213 6.9-1.107 2.623-2.474 5.117-3.808 7.644a59 59 0 0 1-2.702 4.599c-1.432 2.171-3.515 3.337-6.021 3.531-1.855.162-3.678.194-5.989.292"/><defs><filter id="b" width="1495.66" height="1731.22" x="-336.608" y="-1159.92" color-interpolation-filters="sRGB" filterUnits="userSpaceOnUse"><feFlood flood-opacity="0" result="BackgroundImageFix"/><feBlend in="SourceGraphic" in2="BackgroundImageFix" result="shape"/><feGaussianBlur result="effect1_foregroundBlur_186_14" stdDeviation="166.431"/></filter><filter id="g" width="752.037" height="694.948" x="-24.832" y="-394.163" color-interpolation-filters="sRGB" filterUnits="userSpaceOnUse"><feFlood flood-opacity="0" result="BackgroundImageFix"/><feBlend in="SourceGraphic" in2="BackgroundImageFix" result="shape"/><feGaussianBlur result="effect1_foregroundBlur_186_14" stdDeviation="4.669"/></filter><filter id="h" width="892.33" height="853.495" x="-94.335" y="-518.581" color-interpolation-filters="sRGB" filterUnits="userSpaceOnUse"><feFlood flood-opacity="0" result="BackgroundImageFix"/><feBlend in="SourceGraphic" in2="BackgroundImageFix" result="shape"/><feGaussianBlur result="effect1_foregroundBlur_186_14" stdDeviation="16.341"/></filter><filter id="i" width="1154.24" height="1085.55" x="-259.418" y="-706.967" color-interpolation-filters="sRGB" filterUnits="userSpaceOnUse"><feFlood flood-opacity="0" result="BackgroundImageFix"/><feBlend in="SourceGraphic" in2="BackgroundImageFix" result="shape"/><feGaussianBlur result="effect1_foregroundBlur_186_14" stdDeviation="23.345"/></filter><filter id="j" width="1338.66" height="1276.41" x="-425.279" y="-931.535" color-interpolation-filters="sRGB" filterUnits="userSpaceOnUse"><feFlood flood-opacity="0" result="BackgroundImageFix"/><feBlend in="SourceGraphic" in2="BackgroundImageFix" result="shape"/><feGaussianBlur result="effect1_foregroundBlur_186_14" stdDeviation="63.031"/></filter><filter id="k" width="1921.67" height="2006.91" x="-729.765" y="-1277.27" color-interpolation-filters="sRGB" filterUnits="userSpaceOnUse"><feFlood flood-opacity="0" result="BackgroundImageFix"/><feBlend in="SourceGraphic" in2="BackgroundImageFix" result="shape"/><feGaussianBlur result="effect1_foregroundBlur_186_14" stdDeviation="156.409"/></filter><filter id="l" width="1348.5" height="1338.24" x="-348.497" y="-867.815" color-interpolation-filters="sRGB" filterUnits="userSpaceOnUse"><feFlood flood-opacity="0" result="BackgroundImageFix"/><feBlend in="SourceGraphic" in2="BackgroundImageFix" result="shape"/><feGaussianBlur result="effect1_foregroundBlur_186_14" stdDeviation="72.368"/></filter><filter id="m" width="1294.54" height="1521.11" x="-354.144" y="439.946" color-interpolation-filters="sRGB" filterUnits="userSpaceOnUse"><feFlood flood-opacity="0" result="BackgroundImageFix"/><feBlend in="SourceGraphic" in2="BackgroundImageFix" result="shape"/><feGaussianBlur result="effect1_foregroundBlur_186_14" stdDeviation="175.16"/></filter><filter id="r" width="410.143" height="873.533" x="-64.51" y="754.271" color-interpolation-filters="sRGB" filterUnits="userSpaceOnUse"><feFlood flood-opacity="0" result="BackgroundImageFix"/><feBlend in="SourceGraphic" in2="BackgroundImageFix" result="shape"/><feGaussianBlur result="effect1_foregroundBlur_186_14" stdDeviation="7.006"/></filter><filter id="s" width="559.253" height="1073.76" x="-98.318" y="695.55" color-interpolation-filters="sRGB" filterUnits="userSpaceOnUse"><feFlood flood-opacity="0" result="BackgroundImageFix"/><feBlend in="SourceGraphic" in2="BackgroundImageFix" result="shape"/><feGaussianBlur result="effect1_foregroundBlur_186_14" stdDeviation="24.522"/></filter><filter id="t" width="752.367" height="1381.68" x="-107.448" y="618.943" color-interpolation-filters="sRGB" filterUnits="userSpaceOnUse"><feFlood flood-opacity="0" result="BackgroundImageFix"/><feBlend in="SourceGraphic" in2="BackgroundImageFix" result="shape"/><feGaussianBlur result="effect1_foregroundBlur_186_14" stdDeviation="35.032"/></filter><filter id="u" width="1033.89" height="1611.57" x="-222.108" y="399.024" color-interpolation-filters="sRGB" filterUnits="userSpaceOnUse"><feFlood flood-opacity="0" result="BackgroundImageFix"/><feBlend in="SourceGraphic" in2="BackgroundImageFix" result="shape"/><feGaussianBlur result="effect1_foregroundBlur_186_14" stdDeviation="94.586"/></filter><filter id="v" width="1685.52" height="2060.06" x="-504.22" y="30.448" color-interpolation-filters="sRGB" filterUnits="userSpaceOnUse"><feFlood flood-opacity="0" result="BackgroundImageFix"/><feBlend in="SourceGraphic" in2="BackgroundImageFix" result="shape"/><feGaussianBlur result="effect1_foregroundBlur_186_14" stdDeviation="234.714"/></filter><filter id="w" width="1031.33" height="1560.45" x="-191.403" y="557.934" color-interpolation-filters="sRGB" filterUnits="userSpaceOnUse"><feFlood flood-opacity="0" result="BackgroundImageFix"/><feBlend in="SourceGraphic" in2="BackgroundImageFix" result="shape"/><feGaussianBlur result="effect1_foregroundBlur_186_14" stdDeviation="108.599"/></filter><linearGradient id="c" x1="190.22" x2="1063.34" y1="-196.528" y2="-20.25" gradientUnits="userSpaceOnUse"><stop stop-color="#C4C4C4" stop-opacity="0"/><stop offset=".369" stop-color="#C4C4C4"/><stop offset="1" stop-color="#C4C4C4"/></linearGradient><linearGradient id="e" x1="408.129" x2="719.586" y1="337.817" y2="-149.091" gradientUnits="userSpaceOnUse"><stop stop-color="#C4C4C4"/><stop offset="1" stop-color="#C4C4C4" stop-opacity="0"/></linearGradient><linearGradient id="n" x1="196.641" x2="-159.573" y1="822.758" y2="1305" gradientUnits="userSpaceOnUse"><stop stop-color="#C4C4C4"/><stop offset=".943" stop-color="#C4C4C4" stop-opacity="0"/></linearGradient><linearGradient id="p" x1="73.932" x2="530.919" y1="1092.5" y2="1247.26" gradientUnits="userSpaceOnUse"><stop stop-color="#C4C4C4"/><stop offset="1" stop-color="#C4C4C4" stop-opacity="0"/></linearGradient></defs></svg>