<svg xmlns="http://www.w3.org/2000/svg" width="960" height="960" fill="none"><path fill="#005066" d="M960 960H0V0h960z"/><mask id="a" width="960" height="960" x="0" y="0" maskUnits="userSpaceOnUse" style="mask-type:alpha"><path fill="#6231E9" stroke="#000" d="M.5 959.5h959V.5H.5z"/></mask><g mask="url(#a)"><g filter="url(#b)"><ellipse cx="667.508" cy="364.082" fill="#00303E" rx="667.508" ry="364.082" transform="matrix(-.60417 -.48246 .26737 -1.16555 717.168 452.097)"/><path stroke="#000" d="M8.233-616.113c26.809-116.87 96.133-186.85 186.679-205.354 90.532-18.501 202.195 14.488 313.521 103.387 111.325 88.899 201.204 216.851 256.53 351.826C820.297-231.257 841.02-89.37 814.211 27.5c-26.809 116.869-96.133 186.85-186.68 205.354-90.532 18.5-202.195-14.489-313.52-103.387C202.686 40.568 112.807-87.384 57.481-222.36 2.146-357.356-18.576-499.244 8.233-616.113Z"/></g><mask id="d" width="1633" height="2300" x="-420" y="-1044" maskUnits="userSpaceOnUse" style="mask-type:alpha"><path fill="url(#c)" stroke="#000" d="m-418.645 197.972 204.257-1240.762L1211.87-177.161 999.53 1255.12z"/></mask><g mask="url(#d)"><mask id="f" width="2029" height="2512" x="-753" y="-1410" maskUnits="userSpaceOnUse" style="mask-type:alpha"><path fill="url(#e)" stroke="#000" d="M1274.6-74.46c-110 504.62-250.41 1148.27-253.99 1174.84L-752.448-234.034l253.995-1174.836z"/></mask><g mask="url(#f)"><path fill="#00303E" stroke="#000" d="M283.739 192.793C190.428 122.567 111.042 22.94 57.899-72.571 31.327-120.328 11.326-167.036-.575-208.504-12.485-250-16.25-286.116-10.484-312.782c11.586-53.59 43.817-101.535 98.222-117.247 54.404-15.711 130.951.827 231.07 76.177 34.653 26.08 73.801 45.345 114.581 65.413 17.653 8.687 35.613 17.525 53.645 27.131 59.712 31.809 120.273 72.06 173.394 143.191 54.054 72.38 66.27 140.01 63.582 196.235-1.345 28.146-6.428 53.489-11.917 75.208-2.527 9.995-5.137 19.216-7.508 27.592l-.609 2.154c-2.526 8.932-4.742 16.877-6.218 23.703-5.762 26.655-22.779 47.972-48.118 62.706-25.319 14.723-58.86 22.821-97.522 23.166-77.323.69-175.072-29.631-268.379-99.854Z"/><g filter="url(#g)"><path fill="#00303E" d="M287.845 165.927C87.617 15.235-33.356-195.876-13.341-288.454s121.825-157.214 322.053-6.522C407.935-220.3 542.31-193.923 650.228-59.101 760.085 78.144 705.5 183.873 695.404 230.574c-20.015 92.578-207.331 86.046-407.559-64.647"/><path stroke="#000" d="M287.969 165.352C187.881 90.025 107.614-.394 54.877-83.528c-26.37-41.57-45.844-81.298-57.474-116.386-11.638-35.115-15.376-65.441-10.433-88.306 9.941-45.983 40.247-85.218 93.168-94.103 52.911-8.882 128.365 12.598 228.45 87.923 34.988 26.331 74.352 46.666 115.365 67.851 17.166 8.867 34.62 17.883 52.163 27.551 59.477 32.776 120.011 73.055 173.926 140.412 54.875 68.555 68.591 129.119 67.422 178.245-.586 24.595-4.902 46.392-9.713 64.979-2.215 8.555-4.531 16.421-6.637 23.571l-.541 1.838c-2.242 7.622-4.21 14.415-5.481 20.292-4.938 22.841-20.246 39.731-43.733 49.776-23.461 10.033-54.974 13.189-92.135 8.742-74.32-8.892-171.17-48.181-271.255-123.505Z"/></g><g filter="url(#h)"><path fill="#00303E" d="M274.101 171.447C49.684 2.55-83.401-245.637-58.725-359.774s141.73-200.198 366.146-31.301c111.21 83.697 265.674 95.422 385.513 251.699 121.991 159.084 55.665 301.39 43.217 358.967-24.676 114.137-237.633 120.754-462.05-48.144"/><path stroke="#000" d="M274.226 170.872C162.046 86.445 72.706-17.79 14.502-115.158c-29.103-48.686-50.41-95.635-62.899-137.51-12.494-41.893-16.13-78.594-10.017-106.872 12.278-56.791 47.577-106.754 107.905-121.406 60.324-14.652 145.63 6.023 257.806 90.447 40.466 30.455 86.664 51.39 134.81 73.208 18.043 8.176 36.36 16.477 54.751 25.449 67.488 32.923 136.016 74.901 195.884 152.973 60.924 79.45 74.757 154.602 71.881 216.985-1.439 31.226-7.067 59.308-13.122 83.2-2.824 11.144-5.738 21.37-8.364 30.58l-.562 1.972c-2.764 9.704-5.171 18.255-6.735 25.488-6.109 28.256-23.912 49.998-50.828 64.017-26.897 14.009-62.806 20.257-104.974 17.663-84.332-5.188-193.637-45.74-305.812-130.164Z"/></g><g filter="url(#i)"><path fill="#00303E" d="M248.82 141.463C-22.201-95.061-292.5-421.713-190.824-549.408c28.88-133.583 200.73-172.154 469.874 30.404 133.374 100.378 336.303 83.824 480.381 269.603 146.666 189.116 70.598 343.702 56.03 411.088-14.97 206.461-252.678 253.776-566.641-20.224"/><path stroke="#000" d="m-190.635-548.893.084-.106.038-.175c7.178-33.199 23.251-60.558 47.575-79.752s56.877-30.202 96.957-30.712c80.158-1.02 190.361 39.95 324.907 141.21 51.723 38.927 113.904 60.281 179.019 82.643 18.887 6.486 38.021 13.057 57.218 20.166 85.408 31.629 172.1 73.917 244.078 166.727 73.271 94.479 90.828 180.217 88.333 250.639-1.248 35.244-7.52 66.715-14.4 93.604-3.166 12.375-6.459 23.772-9.449 34.123l-.769 2.663c-3.186 11.038-5.977 20.855-7.806 29.315l-.016.072-.005.076c-3.725 51.374-21.304 92.893-50.531 122.011-29.233 29.126-70.103 45.824-120.344 47.516-100.477 3.384-238.343-53.253-395.293-190.225C113.46 22.648-21.845-118.124-110.559-245.274c-44.365-63.585-77.041-123.713-92.283-175.868-7.619-26.072-10.863-50.089-9.068-71.52 1.793-21.41 8.625-40.343 21.275-56.231Z"/></g><g filter="url(#j)"><path fill="#00303E" d="M177.137 4.031C-112.66-214.07-324.934-573.943-296.698-704.547c28.236-130.605 210.183-157.835 499.98 60.267 143.608 108.081 328.752 189.467 485.31 382.914 159.37 196.923 81.366 345.329 67.123 411.212-28.237 130.605-288.78 72.288-578.578-145.815"/><path stroke="#000" d="M177.262 3.456c-144.868-109.028-270.355-253.489-356.09-387-42.869-66.758-75.787-130.76-96.222-186.208-10.217-27.724-17.305-53.288-20.96-75.971s-3.869-42.438-.377-58.59c7.012-32.433 23.584-58.529 49.088-76.004s59.904-26.305 102.499-24.241c85.188 4.127 203.082 51.82 347.957 160.854 41.741 31.414 87.006 60.583 134.049 90.899 33.881 21.834 68.685 44.262 103.759 68.552 83.797 58.03 169.195 126.719 247.442 223.403 79.634 98.399 99.871 184.554 98.517 254.203-.678 34.856-6.763 65.65-13.579 91.866-3.137 12.066-6.426 23.154-9.414 33.227l-.768 2.59c-3.183 10.741-5.97 20.299-7.76 28.576-6.987 32.321-28.395 53.12-61.304 62.607-32.88 9.478-77.116 7.624-129.546-5.131C459.698 181.58 322.14 112.492 177.262 3.456Z"/></g><g filter="url(#k)"><path fill="#00303E" d="M114.954-39.956c-299.479-225.39-558.576-688.49-529.696-822.073s216.581-160.221 516.06 65.165c148.406 111.691 339.62 196.325 501.558 395.545C767.722-198.521 892.494 318.894 877.925 386.28c-28.88 133.583-463.493-200.847-762.971-426.236"/><path stroke="#000" d="M115.078-40.532c-149.7-112.665-289.312-284.747-387.886-445.353-49.288-80.304-88.305-157.722-113.193-223.39-12.444-32.835-21.348-62.711-26.239-88.524-4.894-25.826-5.757-47.5-2.191-63.995 7.173-33.176 24.224-59.793 50.509-77.519s61.768-26.533 105.728-24.127c87.917 4.812 209.671 54.474 359.387 167.151 43.136 32.464 89.902 62.652 138.506 94.026 35.006 22.597 70.965 45.809 107.208 70.929 86.587 60.016 174.847 130.96 255.784 230.531C685.05-299.483 757.422-119.53 807.39 43.564c24.981 81.539 44.355 158.84 56.572 219.956 6.109 30.56 10.426 57.059 12.761 78.011 1.167 10.476 1.837 19.551 1.99 27.047.153 7.506-.214 13.374-1.099 17.468-3.538 16.367-13.319 25.707-28.521 28.899-15.185 3.19-35.664.216-60.396-7.825-49.458-16.081-115.831-52.392-190.676-99.931C461.054 220.192 295.768 95.628 153.945-11.254c-13.172-9.926-26.141-19.7-38.867-29.278Z"/></g><g filter="url(#l)"><path fill="#00303E" d="M296.273 57.777C.032-83.886-301.145-317.283-173.743-534.083s246.34-259.698 508.383-62.482c129.856 97.73 295.207 180.858 435.104 363.491 142.411 185.913 67.311 341.227 52.743 408.613-39.776 233.055-245.611 195.553-526.214-117.762"/><path stroke="#000" d="m296.444 57.246-.042-.047-.047-.023C148.242-13.652-1.077-107.401-97.435-210.514c-48.189-51.568-83.075-105.418-97.976-159.828-7.445-27.184-9.897-54.491-6.538-81.733 3.36-27.251 12.542-54.507 28.434-81.549 63.668-108.345 125.188-173.181 203.506-186.337 78.335-13.159 173.52 25.376 304.525 123.971 32.334 24.335 66.859 47.759 102.637 72.034 107.968 73.254 227.354 154.255 332.399 291.389 71.141 92.873 87.88 177.99 85.096 248.198-1.393 35.138-7.677 66.601-14.533 93.51-3.155 12.384-6.429 23.795-9.403 34.159l-.764 2.666c-3.168 11.052-5.944 20.88-7.773 29.339l-.004.022-.004.022c-9.915 58.093-30.171 99.312-59.361 123.603-29.201 24.301-67.362 31.674-113.08 21.978-91.437-19.394-212.998-107.048-353.282-263.684Z"/></g></g></g><g filter="url(#m)"><ellipse cx="303.757" cy="462.13" fill="#16B4DF" rx="303.757" ry="462.13" transform="matrix(-.2426 -1.16179 .6223 -.45235 79.228 1762.45)"/><path stroke="#000" d="M219.555 848.179c79.362-57.688 159.44-70.43 224.746-44.425 65.309 26.006 115.802 90.736 136.096 187.929 20.295 97.197 6.581 208.597-32.086 310.177-38.664 101.58-102.257 193.28-181.619 250.96-79.363 57.69-159.44 70.43-224.746 44.43-65.309-26.01-115.802-90.74-136.097-187.93-20.294-97.19-6.58-208.6 32.087-310.18C76.6 997.559 140.192 905.867 219.555 848.179Z"/></g><mask id="o" width="1062" height="2276" x="-245" y="-148" maskUnits="userSpaceOnUse" style="mask-type:alpha"><path fill="url(#n)" stroke="#000" d="M816.501 312.247 152.638-146.619-201.266 943.6l-42.532 350.39 307.217 745.26 312.882 87.81 255.842-966.05z"/></mask><g mask="url(#o)"><mask id="q" width="1143" height="2410" x="-319" y="-206" maskUnits="userSpaceOnUse" style="mask-type:alpha"><path fill="url(#p)" stroke="#000" d="M341.011 2202.33c-292.246-270.34-644.115-673.58-659.146-685.25L142.622-204.347l680.299 507.433z"/></mask><g mask="url(#q)"><path fill="#00303E" stroke="#000" d="M-34.618 989.138C-9.649 894.857 39.472 832.134 94.1 803.793c54.629-28.341 114.719-22.274 161.581 20.93 46.913 43.25 96.078 112.352 126.804 195.927 30.72 83.55 42.994 181.52 16.217 282.63-6.677 25.21-9.767 55.38-11.878 87.57-.837 12.76-1.52 25.83-2.21 39.04-1.053 20.17-2.124 40.67-3.787 60.93-5.5 66.97-17.448 130.75-56.492 168.74-39.753 38.68-89.762 21.75-135.827-10.42-33.619-23.47-65.064-55.01-88.821-78.84-8.793-8.82-16.532-16.58-22.94-22.49-46.855-43.19-87.196-135.69-109.572-241.03-22.375-105.33-26.758-223.37-1.793-317.642Z"/><g filter="url(#r)"><path fill="#00303E" d="M-27.475 998.538c53.669-202.648 173.39-272.714 246.289-205.507 72.898 67.207 148.316 231.859 94.648 434.509-26.596 100.42-8.261 269.03-76.16 354.87-69.119 87.38-161.23-31.89-198.003-65.8-72.899-67.2-120.442-315.42-66.774-518.072"/><path stroke="#000" d="M-27.175 998.815c53.603-202.403 173.14-272.251 245.841-205.226 36.4 33.559 73.42 91.441 94.639 166.197 21.211 74.734 26.641 166.344-.143 267.474-6.67 25.19-10.517 54.63-13.6 85.91-1.266 12.84-2.402 25.98-3.551 39.27-1.654 19.13-3.334 38.57-5.467 57.88-7.223 65.38-19.589 128.79-53.43 171.57-34.43 43.53-74.609 35.62-110.835 12.51-26.446-16.87-50.718-41.79-69.07-60.63-6.797-6.98-12.78-13.12-17.762-17.72-36.337-33.49-66.402-112.17-80.675-207.85-14.271-95.66-12.74-208.22 14.053-309.385Z"/></g><g filter="url(#s)"><path fill="#00303E" d="M-25.85 992.405C34.303 765.276 177.756 695.29 267.77 778.276s185.447 277.584 125.295 504.714c-29.808 112.55 4.898 314.58-75.341 406.98-81.681 94.05-203.866-57.1-249.273-98.96-90.014-82.99-154.45-371.48-94.3-598.605"/><path stroke="#000" d="M-25.55 992.681C34.524 765.85 177.779 696.006 267.621 778.834c44.964 41.453 91.27 110.775 118.82 198.061 27.542 87.255 36.343 192.465 6.324 305.815-7.479 28.24-10.904 62.06-13.096 98.29-.997 16.47-1.741 33.46-2.493 50.65l-.226 5.16c-.832 18.95-1.707 38.13-2.976 57.15-5.076 76.07-16.441 149.43-56.427 195.47-40.704 46.88-91.54 32.69-137.95 1.44-34.018-22.91-65.582-54.92-88.97-78.64-8.52-8.64-15.956-16.18-22.03-21.78-44.905-41.4-83.47-134.11-103.292-244.89-19.82-110.76-20.884-239.49 9.146-352.879Z"/></g><g filter="url(#t)"><path fill="#00303E" d="M10.517 993.209c98.674-257.92 289.25-371.218 405.709-263.851 116.46 107.366 204.665 365.762 132.525 638.162-35.749 134.98 45.223 425.53-55.243 532.44-102.272 108.83-310.691-103.44-369.439-157.61C7.609 1634.99-103.791 1292 10.517 993.209"/><path stroke="#000" d="M10.79 993.571c49.292-128.844 121.544-221.575 196.02-268.68 74.481-47.109 151.142-48.563 209.268 5.025 116.356 107.271 204.404 365.344 132.373 637.324-8.976 33.9-10.614 77.5-9.619 125.41.497 23.96 1.654 49.03 2.887 74.52l.373 7.69c1.118 23.01 2.25 46.32 2.973 69.44 3.216 102.87-1.678 201.86-51.723 255.12-25.486 27.12-57.612 34.26-92.416 28.82-34.801-5.44-72.249-23.44-108.351-46.55-61.879-39.61-119.762-94.17-153.548-126.02-5.64-5.32-10.607-10-14.81-13.87-58.152-53.61-115.06-166.08-143.15-302.46-28.085-136.35-27.357-296.57 29.722-445.769Z"/></g><g filter="url(#u)"><path fill="#00303E" d="M59.486 946.969c77.676-293.3 300.141-428.415 414.004-323.442s196.369 371.706 118.693 665.003c-38.492 145.35-41.774 361.88-144.207 482.29-104.274 122.57-363.07-9.37-420.508-62.33-113.863-104.97-45.658-468.22 32.018-761.521"/><path stroke="#000" d="M59.786 947.245c38.792-146.477 113.751-253.49 193.253-310.768 79.511-57.286 163.487-64.772 220.303-12.392 113.73 104.851 196.121 371.237 118.542 664.175-9.636 36.38-17.064 77.2-24.386 119.82-1.19 6.94-2.378 13.91-3.572 20.93-6.15 36.13-12.464 73.23-20.18 109.79-18.422 87.29-44.816 171.39-95.949 231.49-25.999 30.56-61.659 45.29-101.457 49.33-39.793 4.03-83.688-2.62-126.131-14.76-84.894-24.28-163.916-70.49-192.593-96.93-28.373-26.15-45.403-68.39-53.784-121.64-8.384-53.27-8.112-117.58-1.852-187.83 12.52-140.51 48.971-304.58 87.806-451.215Z"/></g><g filter="url(#v)"><path fill="#00303E" d="M140.717 853.767c80.27-303.098 302.843-422.546 419.302-315.18 116.459 107.367 200.416 381.808 120.145 684.903-39.778 150.2-256.725 229.22-361.978 354.2-107.145 127.23-255.042-60.51-313.79-114.67-116.46-107.37 56.05-306.15 136.321-609.253"/><path stroke="#000" d="M141.016 854.044c40.089-151.374 115.722-256.918 195.896-311.205 80.181-54.293 164.838-57.276 222.959-3.693C676.194 646.387 760.04 920.479 679.865 1223.22c-9.901 37.38-30.849 70.4-58.411 100.87-27.553 30.46-61.67 58.31-97.85 85.38-16.093 12.04-32.595 23.93-49.107 35.83-57.708 41.57-115.546 83.24-156.491 131.87-53.441 63.45-117.074 48.4-174.754 10.62-42.105-27.58-80.97-67.22-110.332-97.17-10.866-11.08-20.43-20.83-28.377-28.16-14.527-13.39-24.518-28.18-30.747-44.38-6.225-16.18-8.707-33.79-8.186-52.9 1.045-38.27 14.14-82.52 33.445-133.03 11.359-29.72 24.84-61.54 39.243-95.53 10.068-23.77 20.586-48.6 31.143-74.51 25.646-62.948 51.494-132.24 71.575-208.066Z"/></g><g filter="url(#w)"><path fill="#00303E" d="M61.822 1064.67c70.236-265.213 284.171-352.044 400.63-244.678C578.911 927.359 668.111 1182 597.874 1447.21c-34.806 131.43-46.088 319.56-145.434 422.24-101.132 104.52-250.396-78.06-309.144-132.22-116.46-107.36-151.711-407.35-81.474-672.56"/><path stroke="#000" d="M62.121 1064.94c35.065-132.399 106.015-220.322 182.776-261.728 76.764-41.408 159.272-36.258 217.407 17.339 58.171 53.628 109.527 144.035 137.568 254.129 28.038 110.07 32.772 239.84-2.298 372.26-8.668 32.73-15.878 68.97-23.343 106.49l-.108.55c-7.505 37.72-15.278 76.74-25.065 114.86-19.571 76.23-47.187 148.81-96.781 200.07-50.431 52.12-112.906 32.69-170.188-6.65-41.809-28.71-80.781-67.97-110.22-97.63-10.893-10.97-20.481-20.63-28.425-27.95-116.237-107.17-151.51-406.71-81.323-671.74Z"/></g></g></g></g><path fill="#086C81" d="M699 479.5C699 685.281 685.281 699 479.5 699S260 692.141 260 479.5 266.859 260 479.5 260 699 273.719 699 479.5"/><path fill="#CBDDE1" fill-rule="evenodd" d="M481.003 568.268c-6.545-.078-10.608-1.885-14.445-4.084-7.448-4.162-14.82-8.404-22.193-12.645a8466 8466 0 0 1-36.789-21.127c-3.235-1.807-6.47-3.613-9.479-5.734-1.956-1.335-3.761-3.141-5.266-5.026-2.859-3.613-3.085-7.933-1.43-12.095 2.333-5.812 5.116-11.467 7.9-17.044 4.138-8.482 8.426-16.807 12.714-25.211 5.041-10.053 10.156-20.106 15.272-30.238s10.232-20.42 15.423-30.631c4.363-8.796 8.877-17.593 13.316-26.389 3.536-6.99 6.996-14.137 10.607-21.127 2.107-4.163 4.063-8.561 7.373-11.939 2.633-2.748 5.567-3.455 8.426-1.727 1.505.942 3.009 2.277 3.912 3.769a173 173 0 0 1 6.545 11.546c3.01 5.733 5.869 11.624 8.803 17.436l13.316 26.625c3.46 6.911 6.996 13.744 10.457 20.656a3160 3160 0 0 0 9.253 18.378c3.16 6.362 6.395 12.645 9.555 19.007 3.084 6.048 6.094 12.174 9.178 18.222 3.912 7.854 7.9 15.55 11.661 23.483 1.129 2.199 1.881 4.634 2.558 7.069 1.354 5.419-.451 9.974-4.439 13.116-3.611 2.827-7.448 5.105-11.284 7.383-6.771 4.005-13.617 7.854-20.388 11.702-7.147 4.084-14.294 8.09-21.441 12.174-6.546 3.77-13.091 7.54-19.711 11.153-3.611 2.042-7.373 3.298-9.404 3.298m-33.855-69.901c2.859 1.65 5.568 3.299 8.276 4.791 7.373 4.242 14.745 8.404 22.118 12.645 1.204.707 2.257.707 3.461.079 6.695-3.848 13.391-7.697 20.162-11.545a2310 2310 0 0 0 10.156-5.891c-2.031-5.341-31.221-62.597-32.349-63.225a23589 23589 0 0 0-31.824 63.146" clip-rule="evenodd"/><path fill="#CBDDE1" d="M594.466 616.688c-4.649-.313-9.373-.469-13.948-1.015-6.149-.625-10.724-4.216-13.723-9.759-4.725-8.431-9.074-17.096-13.349-25.762-1.049-2.186-1.574-4.762-1.799-7.182-.525-5.387 2.174-9.134 6.149-11.788 4.049-2.733 8.249-5.153 12.448-7.573 2.325-1.249 4.725-2.42 7.275-3.279 5.699-2.029 10.273-.624 13.873 4.528 2.624 3.748 4.799 7.885 6.899 11.945 2.925 5.464 5.699 11.007 8.474 16.628 2.999 6.011 5.999 12.1 8.849 18.268.675 1.483.975 3.357 1.05 4.996.3 4.372-2.25 7.729-6.6 8.665-2.474.547-5.099.781-7.649.937-2.624.156-5.324.078-7.949.078zm-231.183 0c-3.768-.235-8.667-.391-13.415-1.016-3.241-.468-6.18-2.03-7.235-5.7-.452-1.718-.377-3.67-.076-5.466.679-4.216 2.864-7.808 4.748-11.556a1326 1326 0 0 1 11.757-23.114c2.487-4.763 4.974-9.604 7.914-14.133 3.919-6.169 9.948-7.887 16.203-4.685 6.105 3.201 12.134 6.481 17.862 10.307 5.803 3.904 7.988 9.605 5.124 16.632-2.562 6.325-5.727 12.338-8.817 18.428-1.96 3.827-3.995 7.497-6.256 11.089-3.316 5.231-8.139 8.042-13.942 8.511-4.296.39-8.516.468-13.867.703"/><defs><filter id="b" width="1495.66" height="1731.22" x="-336.608" y="-1159.92" color-interpolation-filters="sRGB" filterUnits="userSpaceOnUse"><feFlood flood-opacity="0" result="BackgroundImageFix"/><feBlend in="SourceGraphic" in2="BackgroundImageFix" result="shape"/><feGaussianBlur result="effect1_foregroundBlur_186_14" stdDeviation="166.431"/></filter><filter id="g" width="752.037" height="694.948" x="-24.833" y="-394.163" color-interpolation-filters="sRGB" filterUnits="userSpaceOnUse"><feFlood flood-opacity="0" result="BackgroundImageFix"/><feBlend in="SourceGraphic" in2="BackgroundImageFix" result="shape"/><feGaussianBlur result="effect1_foregroundBlur_186_14" stdDeviation="4.669"/></filter><filter id="h" width="892.329" height="853.495" x="-94.335" y="-518.581" color-interpolation-filters="sRGB" filterUnits="userSpaceOnUse"><feFlood flood-opacity="0" result="BackgroundImageFix"/><feBlend in="SourceGraphic" in2="BackgroundImageFix" result="shape"/><feGaussianBlur result="effect1_foregroundBlur_186_14" stdDeviation="16.341"/></filter><filter id="i" width="1154.24" height="1085.55" x="-259.418" y="-706.967" color-interpolation-filters="sRGB" filterUnits="userSpaceOnUse"><feFlood flood-opacity="0" result="BackgroundImageFix"/><feBlend in="SourceGraphic" in2="BackgroundImageFix" result="shape"/><feGaussianBlur result="effect1_foregroundBlur_186_14" stdDeviation="23.345"/></filter><filter id="j" width="1338.66" height="1276.41" x="-425.28" y="-931.535" color-interpolation-filters="sRGB" filterUnits="userSpaceOnUse"><feFlood flood-opacity="0" result="BackgroundImageFix"/><feBlend in="SourceGraphic" in2="BackgroundImageFix" result="shape"/><feGaussianBlur result="effect1_foregroundBlur_186_14" stdDeviation="63.031"/></filter><filter id="k" width="1921.67" height="2006.91" x="-729.765" y="-1277.27" color-interpolation-filters="sRGB" filterUnits="userSpaceOnUse"><feFlood flood-opacity="0" result="BackgroundImageFix"/><feBlend in="SourceGraphic" in2="BackgroundImageFix" result="shape"/><feGaussianBlur result="effect1_foregroundBlur_186_14" stdDeviation="156.409"/></filter><filter id="l" width="1348.5" height="1338.24" x="-348.498" y="-867.815" color-interpolation-filters="sRGB" filterUnits="userSpaceOnUse"><feFlood flood-opacity="0" result="BackgroundImageFix"/><feBlend in="SourceGraphic" in2="BackgroundImageFix" result="shape"/><feGaussianBlur result="effect1_foregroundBlur_186_14" stdDeviation="72.368"/></filter><filter id="m" width="1294.54" height="1521.11" x="-354.144" y="439.946" color-interpolation-filters="sRGB" filterUnits="userSpaceOnUse"><feFlood flood-opacity="0" result="BackgroundImageFix"/><feBlend in="SourceGraphic" in2="BackgroundImageFix" result="shape"/><feGaussianBlur result="effect1_foregroundBlur_186_14" stdDeviation="175.16"/></filter><filter id="r" width="410.143" height="873.533" x="-64.51" y="754.271" color-interpolation-filters="sRGB" filterUnits="userSpaceOnUse"><feFlood flood-opacity="0" result="BackgroundImageFix"/><feBlend in="SourceGraphic" in2="BackgroundImageFix" result="shape"/><feGaussianBlur result="effect1_foregroundBlur_186_14" stdDeviation="7.006"/></filter><filter id="s" width="559.253" height="1073.76" x="-98.318" y="695.55" color-interpolation-filters="sRGB" filterUnits="userSpaceOnUse"><feFlood flood-opacity="0" result="BackgroundImageFix"/><feBlend in="SourceGraphic" in2="BackgroundImageFix" result="shape"/><feGaussianBlur result="effect1_foregroundBlur_186_14" stdDeviation="24.522"/></filter><filter id="t" width="752.367" height="1381.68" x="-107.448" y="618.943" color-interpolation-filters="sRGB" filterUnits="userSpaceOnUse"><feFlood flood-opacity="0" result="BackgroundImageFix"/><feBlend in="SourceGraphic" in2="BackgroundImageFix" result="shape"/><feGaussianBlur result="effect1_foregroundBlur_186_14" stdDeviation="35.032"/></filter><filter id="u" width="1033.89" height="1611.57" x="-222.109" y="399.024" color-interpolation-filters="sRGB" filterUnits="userSpaceOnUse"><feFlood flood-opacity="0" result="BackgroundImageFix"/><feBlend in="SourceGraphic" in2="BackgroundImageFix" result="shape"/><feGaussianBlur result="effect1_foregroundBlur_186_14" stdDeviation="94.586"/></filter><filter id="v" width="1685.52" height="2060.06" x="-504.22" y="30.448" color-interpolation-filters="sRGB" filterUnits="userSpaceOnUse"><feFlood flood-opacity="0" result="BackgroundImageFix"/><feBlend in="SourceGraphic" in2="BackgroundImageFix" result="shape"/><feGaussianBlur result="effect1_foregroundBlur_186_14" stdDeviation="234.714"/></filter><filter id="w" width="1031.33" height="1560.45" x="-191.403" y="557.934" color-interpolation-filters="sRGB" filterUnits="userSpaceOnUse"><feFlood flood-opacity="0" result="BackgroundImageFix"/><feBlend in="SourceGraphic" in2="BackgroundImageFix" result="shape"/><feGaussianBlur result="effect1_foregroundBlur_186_14" stdDeviation="108.599"/></filter><linearGradient id="c" x1="190.219" x2="1063.34" y1="-196.528" y2="-20.25" gradientUnits="userSpaceOnUse"><stop stop-color="#C4C4C4" stop-opacity="0"/><stop offset=".369" stop-color="#C4C4C4"/><stop offset="1" stop-color="#C4C4C4"/></linearGradient><linearGradient id="e" x1="408.128" x2="719.585" y1="337.817" y2="-149.091" gradientUnits="userSpaceOnUse"><stop stop-color="#C4C4C4"/><stop offset="1" stop-color="#C4C4C4" stop-opacity="0"/></linearGradient><linearGradient id="n" x1="196.641" x2="-159.573" y1="822.758" y2="1305" gradientUnits="userSpaceOnUse"><stop stop-color="#C4C4C4"/><stop offset=".943" stop-color="#C4C4C4" stop-opacity="0"/></linearGradient><linearGradient id="p" x1="73.932" x2="530.919" y1="1092.5" y2="1247.26" gradientUnits="userSpaceOnUse"><stop stop-color="#C4C4C4"/><stop offset="1" stop-color="#C4C4C4" stop-opacity="0"/></linearGradient></defs></svg>