<svg xmlns="http://www.w3.org/2000/svg" width="742" height="256" fill="none"><g clip-path="url(#a)"><path fill="#fff" d="M0 0h742v256H0z"/><path fill="#FDA806" d="M.056 0h741.888v608.604H.056z"/><rect width="200.928" height="199.97" x="271" y="28" fill="#E09405" rx="47"/><path fill="#fff" d="M423.577 96q1.856 18.485-13.511 26.204 12.066 2.842 18.048 10.461 5.982 7.617 4.64 21.734-.721 7.211-3.351 12.696t-6.652 9.039q-4.023 3.555-10.004 5.941a61.7 61.7 0 0 1-12.53 3.504q-6.55 1.116-15.005 1.523V213h-15.883v-25.492q-8.25 0-12.581-.102V213h-15.881v-25.899q-1.856 0-5.569-.051a466 466 0 0 0-5.672-.051H309l3.197-18.586h11.448q5.157 0 5.981-5.179V93.156q-1.34-6.906-9.178-6.906H309V69.595l21.864.102q6.6 0 10.003-.102V44h15.883v25.086q8.456-.204 12.581-.203V44h15.883v25.594q8.146.711 14.438 2.285 6.29 1.574 11.654 4.57t8.508 7.921q3.144 4.927 3.763 11.63m-22.173 55.351q0-3.656-1.547-6.5-1.548-2.845-3.816-4.672-2.269-1.829-5.929-3.098-3.662-1.269-6.755-1.879t-7.632-.913q-4.537-.305-7.116-.305t-6.652.102q-4.073.1-4.898.101v34.328q.825 0 3.816.051t4.95.052q1.96-.001 5.465-.152 3.507-.152 6.033-.406t5.879-.864 5.724-1.422a35 35 0 0 0 4.898-2.133q2.526-1.32 4.073-3.047 1.548-1.726 2.527-4.062t.98-5.181m-7.323-48.344q0-3.352-1.289-5.941t-3.145-4.266-4.95-2.844q-3.093-1.168-5.672-1.676-2.579-.509-6.342-.813-3.765-.305-5.981-.254a798 798 0 0 1-5.57.102 425 425 0 0 1-4.073.05v31.18q.516 0 3.558.051t4.795 0q1.754-.05 5.156-.203 3.403-.152 5.672-.558t5.312-1.118q3.042-.71 5.001-1.879a28.4 28.4 0 0 0 3.816-2.742q1.856-1.574 2.784-3.91.928-2.334.928-5.179"/></g><defs><clipPath id="a"><path fill="#fff" d="M0 0h742v256H0z"/></clipPath></defs></svg>