<svg xmlns="http://www.w3.org/2000/svg" width="742" height="256" fill="none"><g clip-path="url(#a)"><path fill="#fff" d="M0 0h742v256H0z"/><path fill="#898781" d="M.056 0h741.888v608.604H.056z"/><rect width="200.928" height="199.97" x="271" y="28" fill="#787878" rx="47"/><path fill="#fff" d="M421.134 162.672q-9.408 0-17.28-4.416t-12.48-12.192q-4.608-7.872-4.608-17.76 0-9.792 4.608-17.568 4.608-7.872 12.48-12.288t17.28-4.416q9.504 0 17.28 4.416 7.872 4.416 12.384 12.288 4.608 7.776 4.608 17.568 0 9.888-4.608 17.76-4.512 7.776-12.384 12.192t-17.28 4.416m0-12q6.048 0 10.656-2.688 4.608-2.784 7.2-7.872t2.592-11.808-2.592-11.712q-2.592-5.088-7.2-7.776t-10.656-2.688-10.752 2.688q-4.608 2.688-7.2 7.776-2.592 4.992-2.592 11.712t2.592 11.808 7.2 7.872q4.704 2.688 10.752 2.688M313.079 128.4q0-9.888 4.416-17.664 4.512-7.872 12.192-12.192 7.776-4.416 17.376-4.416 11.232 0 19.68 5.76t11.808 15.936h-15.456q-2.304-4.8-6.528-7.2-4.128-2.4-9.6-2.4-5.856 0-10.464 2.784-4.512 2.688-7.104 7.68-2.496 4.992-2.496 11.712 0 6.624 2.496 11.712 2.592 4.992 7.104 7.776 4.608 2.688 10.464 2.688 5.472 0 9.6-2.4 4.224-2.496 6.528-7.296h15.456q-3.36 10.272-11.808 16.032-8.352 5.664-19.68 5.664-9.6 0-17.376-4.32-7.68-4.416-12.192-12.192-4.416-7.776-4.416-17.664m-10.015-33.408V162h-13.44V94.992z"/></g><defs><clipPath id="a"><path fill="#fff" d="M0 0h742v256H0z"/></clipPath></defs></svg>