<svg width="742" height="256" viewBox="0 0 742 256" fill="none" xmlns="http://www.w3.org/2000/svg">
<g clip-path="url(#clip0_1_8)">
<rect width="742" height="256" fill="white"/>
<rect x="0.0559998" width="741.888" height="608.604" fill="#FDA806"/>
<rect x="271" y="28" width="200.928" height="199.97" rx="47" fill="#E09405"/>
<path d="M423.577 96.0002C424.814 108.323 420.311 117.058 410.066 122.204C418.11 124.099 424.126 127.586 428.114 132.665C432.101 137.743 433.649 144.988 432.754 154.399C432.273 159.207 431.156 163.438 429.403 167.095C427.65 170.751 425.432 173.764 422.751 176.134C420.069 178.503 416.735 180.485 412.747 182.075C408.76 183.667 404.582 184.834 400.217 185.579C395.851 186.323 390.849 186.831 385.212 187.102V213H369.329V187.508C363.829 187.508 359.635 187.474 356.748 187.406V213H340.867V187.101C339.63 187.101 337.773 187.084 335.298 187.05C332.822 187.017 330.932 186.999 329.626 186.999H309L312.197 168.413H323.645C327.082 168.413 329.077 166.687 329.626 163.234V93.1565C328.733 88.552 325.673 86.2505 320.448 86.2505H309V69.5938L330.864 69.6957C335.264 69.6957 338.599 69.6621 340.867 69.5938V44H356.75V69.0861C362.387 68.9504 366.581 68.8832 369.331 68.8832V44H385.214V69.5938C390.645 70.0679 395.457 70.8296 399.652 71.8789C403.846 72.9282 407.73 74.4515 411.306 76.4488C414.881 78.4461 417.717 81.087 419.814 84.3703C421.91 87.6546 423.165 91.5313 423.577 96.0002ZM401.404 151.351C401.404 148.913 400.888 146.747 399.857 144.851C398.825 142.955 397.553 141.397 396.041 140.179C394.529 138.96 392.552 137.927 390.112 137.081C387.671 136.235 385.419 135.609 383.357 135.202C381.295 134.796 378.751 134.491 375.725 134.289C372.7 134.086 370.328 133.984 368.609 133.984C366.891 133.984 364.673 134.017 361.957 134.086C359.242 134.153 357.609 134.187 357.059 134.187V168.515C357.609 168.515 358.881 168.533 360.875 168.566C362.869 168.6 364.518 168.618 365.825 168.618C367.131 168.618 368.953 168.566 371.29 168.466C373.628 168.365 375.639 168.229 377.323 168.06C379.008 167.89 380.967 167.603 383.202 167.196C385.437 166.79 387.345 166.316 388.926 165.774C390.507 165.232 392.14 164.522 393.824 163.641C395.508 162.761 396.866 161.745 397.897 160.594C398.929 159.443 399.771 158.089 400.424 156.532C401.076 154.975 401.404 153.247 401.404 151.351ZM394.081 103.007C394.081 100.773 393.652 98.7921 392.792 97.0658C391.933 95.3395 390.884 93.9172 389.647 92.7997C388.41 91.6822 386.759 90.735 384.697 89.9559C382.635 89.177 380.744 88.619 379.025 88.2796C377.306 87.9412 375.192 87.6698 372.683 87.4669C370.173 87.264 368.179 87.1793 366.702 87.2129C365.223 87.2465 363.367 87.2802 361.132 87.3148C358.898 87.3484 357.54 87.3658 357.059 87.3658V118.545C357.403 118.545 358.589 118.562 360.617 118.596C362.645 118.63 364.243 118.63 365.412 118.596C366.581 118.563 368.3 118.494 370.568 118.393C372.837 118.291 374.727 118.106 376.24 117.835C377.753 117.563 379.523 117.191 381.552 116.717C383.58 116.243 385.247 115.617 386.553 114.838C387.86 114.059 389.131 113.145 390.369 112.096C391.606 111.047 392.535 109.743 393.153 108.186C393.771 106.629 394.081 104.904 394.081 103.007Z" fill="white"/>
</g>
<defs>
<clipPath id="clip0_1_8">
<rect width="742" height="256" fill="white"/>
</clipPath>
</defs>
</svg>
